<?xml version="1.0" standalone="no"?>
<!DOCTYPE svg PUBLIC "-//W3C//DTD SVG 1.1//EN" "http://www.w3.org/Graphics/SVG/1.1/DTD/svg11.dtd" >
<svg xmlns="http://www.w3.org/2000/svg" xmlns:xlink="http://www.w3.org/1999/xlink" version="1.1">
<metadata>
Created by FontForge 20161116 at Fri Jul 20 03:05:24 2012
 By Jimmy Wärting
(c) 2000-2012 Typodermic Fonts Inc. See attached license agreement. If agreement is missing visit typodermicfonts.com for more info.
</metadata>
<defs>
<font id="Baveuse3D-Regular" horiz-adv-x="671" >
  <font-face 
    font-family="Baveuse 3D"
    font-weight="400"
    font-stretch="normal"
    units-per-em="1000"
    panose-1="1 0 5 3 0 0 0 2 0 4"
    ascent="785"
    descent="-215"
    x-height="600"
    cap-height="597"
    bbox="-189 -317 1154 875"
    underline-thickness="70"
    underline-position="-168"
    unicode-range="U+0017-FB02"
  />
<missing-glyph horiz-adv-x="695" 
d="M117 -176q-91 0 -91 79v769q0 79 91 79h463q91 0 91 -79v-769q0 -79 -91 -79h-463zM311 89q2 17 6.5 33.5t13 30t22 22t33.5 8.5q13 0 25.5 -2t24.5 -2q24 0 46 6t42 22q18 14 34.5 40.5t33.5 88.5q8 27 11 51.5t3 43.5q0 66 -34 101.5t-98 52.5q-24 6 -58.5 14
t-72.5 16.5t-76.5 16t-70.5 13.5q-18 -57 -36 -113.5t-35 -114.5q74 -18 146.5 -34.5t144.5 -36.5q63 -18 63 -47q0 -22 -15 -32t-32 -10q-10 0 -27 4t-37.5 9t-42.5 9t-42 4q-56 0 -92 -39t-38 -106q38 -14 78 -26t80 -23zM311 53q-42 11 -83 21.5t-83 19.5l-29 -106
q40 -14 78 -23.5t75 -17.5z" />
    <glyph glyph-name=".notdef" horiz-adv-x="695" 
d="M117 -176q-91 0 -91 79v769q0 79 91 79h463q91 0 91 -79v-769q0 -79 -91 -79h-463zM311 89q2 17 6.5 33.5t13 30t22 22t33.5 8.5q13 0 25.5 -2t24.5 -2q24 0 46 6t42 22q18 14 34.5 40.5t33.5 88.5q8 27 11 51.5t3 43.5q0 66 -34 101.5t-98 52.5q-24 6 -58.5 14
t-72.5 16.5t-76.5 16t-70.5 13.5q-18 -57 -36 -113.5t-35 -114.5q74 -18 146.5 -34.5t144.5 -36.5q63 -18 63 -47q0 -22 -15 -32t-32 -10q-10 0 -27 4t-37.5 9t-42.5 9t-42 4q-56 0 -92 -39t-38 -106q38 -14 78 -26t80 -23zM311 53q-42 11 -83 21.5t-83 19.5l-29 -106
q40 -14 78 -23.5t75 -17.5z" />
    <glyph glyph-name="uni0017" horiz-adv-x="205" 
 />
    <glyph glyph-name="space" unicode=" " horiz-adv-x="213" 
 />
    <glyph glyph-name="exclam" unicode="!" horiz-adv-x="274" 
d="M4 121h39q-8 53 -16.5 112.5t-16 121t-14 122.5t-11.5 117q41 5 77 7.5t65 2.5q6 0 17 -0.5t23 -1t23 -1t17 -0.5q5 -5 17 -17.5t19 -22.5q-5 -54 -9 -113t-8 -118.5t-7.5 -117.5t-6.5 -109l34 -33q-4 -49 -8 -84.5t-9 -64.5q-16 1 -40.5 2.5t-51.5 3.5t-52 4.5t-43 4.5
l-40 35zM72 135q19 0 37.5 1t36.5 4q5 106 12 211.5t16 220.5q-11 1 -23 1.5t-24 0.5q-27 0 -54 -2t-56 -5q11 -114 24.5 -219.5t30.5 -212.5zM33 -2q35 -4 68.5 -6.5t65.5 -3.5q3 22 6 45.5t5 49.5q-37 3 -73 5.5t-71 2.5z" />
    <glyph glyph-name="quotedbl" unicode="&#x22;" horiz-adv-x="373" 
d="M171 409q13 -2 25.5 -3t24.5 -1q7 0 14 0.5t14 0.5q10 45 16 92t8 99q-23 3 -44 3q-29 0 -57 -3q3 -42 3 -84q0 -26 -1 -52t-3 -52zM56 408q37 -14 71 -17q7 51 12 101.5t5 104.5q-13 2 -25.5 2.5t-26.5 0.5q-17 0 -34.5 -0.5t-34.5 -2.5q19 -98 33 -189zM84 343
q-15 13 -29.5 28t-28.5 32q-3 23 -8 51.5t-10.5 58.5t-11 59t-10.5 53q8 1 22.5 2t30.5 2t30.5 1.5t22.5 0.5q14 0 30 -1t36 -3q17 1 38.5 2t32.5 1q13 0 31.5 -1.5t44.5 -3.5l35 -41q-2 -64 -10 -123.5t-20 -118.5q-27 -3 -52 -3q-14 0 -28.5 2t-35.5 12q0 -8 -1 -16
t-3 -15q-32 4 -59 9t-47 12z" />
    <glyph glyph-name="numbersign" unicode="#" horiz-adv-x="500" 
d="M260 362q0 -30 2 -62.5t5 -66.5q-23 -3 -43 -3q-14 0 -28 1t-28 6q-14 53 -14 97q0 8 0.5 14t0.5 14q28 6 53 6q14 0 26.5 -2t25.5 -4zM398 155q6 37 6 78q0 7 -0.5 14t-0.5 15l-63 -3v90h65l-6 91l-56 -1q1 18 2.5 36.5t5.5 40.5q-31 6 -59 8t-59 2q-2 -27 -2.5 -50.5
t-1.5 -44.5h-78l-6 95q-16 -1 -34 -1.5t-36 -4.5v-82l-64 6l6 -95h58v-90l-59 3q0 -29 1 -54t6 -47h53l-3 -67q29 -6 57 -7t56 -1q0 21 -1 44.5t-4 49.5l79 -4v-83q39 0 77 6l2 61zM421 500q-2 -9 -3 -16t-3 -14h13l35 -40l9 -147h-33l30 -31q0 -41 -1.5 -81t-7.5 -85l-57 6
v-31t-1 -25q-63 -9 -132 -9l-18 18v-25q-40 0 -81 1.5t-90 12.5l-40 36l1 25h-5l-40 35q-7 38 -9 77t-2 86l33 -1l-30 26l-9 159l65 -5v73q36 6 68 8.5t61 3.5l28 -33l3 32q45 0 88.5 -1t92.5 -14z" />
    <glyph glyph-name="dollar" unicode="$" horiz-adv-x="496" 
d="M297 197q-3 -30 -42 -30h-3q0 16 -0.5 30.5t-2.5 28.5q48 0 48 -25v-4zM207 278q-60 1 -60 27q0 27 58 30q1 -16 1.5 -29.5t0.5 -27.5zM183 14q31 0 60 6l-3 62q87 3 123 29.5t36 78.5q0 45 -30 68t-99 23h-12q1 14 1 26v26q31 -2 62 -5t63 -9q5 38 8 81t4 88
q-36 0 -71 -1t-73 -4q3 24 3 48q0 20 -3 41q-33 0 -62 -7q2 -23 2.5 -42t0.5 -40q-86 -2 -128.5 -39t-42.5 -107q0 -66 43 -91t128 -25q2 -12 2.5 -24t0.5 -26q-38 0 -74 3.5t-73 8.5q-7 -20 -11.5 -44t-7.5 -50q28 -2 55.5 -3.5t55.5 -1.5h21t21 1v-71zM153 18
q-26 1 -55 2.5t-62 4.5l-41 36q10 85 32 153l26 -2q-61 45 -61 125q0 78 42.5 122.5t128.5 52.5q0 15 -1.5 32t-3.5 43q58 16 122 16l36 -41l4 -45q25 1 52 1.5t56 0.5l35 -41q-2 -121 -18 -230l-29 5q32 -23 40.5 -49t8.5 -52q0 -62 -35.5 -95t-122.5 -40l3 -58
q-30 -6 -59.5 -8.5t-57.5 -2.5l-40 36v34z" />
    <glyph glyph-name="percent" unicode="%" horiz-adv-x="559" 
d="M406 64q0 -23 -12.5 -32t-44.5 -9q-50 0 -50 36q0 15 15.5 26.5t44.5 11.5q14 0 30.5 -8t16.5 -25zM190 357q0 -12 -6 -20t-15.5 -12.5t-20 -6t-19.5 -1.5q-52 0 -52 36q0 15 15 26.5t45 11.5q28 0 40.5 -10t12.5 -24zM374 -10q15 0 30 6t27 19t19 32.5t7 45.5
q0 25 -3 53t-13.5 51.5t-32.5 39t-59 15.5q-20 0 -41 -4t-43 -21l175 326q-21 3 -41 5.5t-41 2.5t-43 -3l-84 -219q2 29 2.5 60.5t0.5 62.5q0 43 -19.5 66.5t-54.5 23.5q-27 0 -44 -0.5t-28.5 -2.5t-18.5 -5t-14 -9q-32 -25 -32 -91q0 -61 5.5 -95.5t20.5 -51t40.5 -20.5
t65.5 -4q30 0 63 37l-144 -316q15 -6 31 -8.5t33 -2.5h15t15 1l78 172q-1 -5 -1 -10.5v-12.5q0 -27 3 -52.5t12 -45.5t25.5 -32.5t44.5 -12.5h44zM383 280q36 -10 62.5 -23.5t44 -39t25.5 -67.5t8 -108q0 -28 -10 -50t-25.5 -37t-35.5 -23t-40 -8h-44q-39 0 -66 18t-48 45
l-30 -67q-20 -2 -30 -2.5t-18 -0.5q-10 0 -21.5 2t-28 8t-39 18t-54.5 33l103 230q-23 2 -42.5 8.5t-42.5 24.5q-18 13 -29 30t-18 40.5t-9.5 55.5t-2.5 77q0 80 44 115q9 7 18.5 12t22.5 7t33 3t50 1q18 0 32.5 -3t26.5 -10.5t23 -19.5t24 -31l27 68q20 3 35.5 4t29.5 1
q20 0 54 -4.5t75 -11.5l35 -40z" />
    <glyph glyph-name="ampersand" unicode="&#x26;" horiz-adv-x="580" 
d="M160 208q17 -26 35 -49.5t38 -46.5q-22 2 -44 4.5t-42 7.5q-18 5 -25.5 15t-7.5 31t12 29.5t34 8.5zM321 -17q44 1 85 6t80 12q-36 32 -70.5 66.5t-66.5 73.5q36 34 68 70.5t58 72.5q-35 3 -67 3q-23 0 -44.5 -1.5t-42.5 -3.5q-8 -21 -19 -33q-29 25 -59 55t-56 59
q16 2 32 2h33q39 0 78 -2.5t79 -5.5q-2 46 -6 91.5t-13 91.5q-88 7 -176 9l-176 4q1 -26 2 -51t3 -51q14 -32 32.5 -62t38.5 -59q-23 -5 -39.5 -19.5t-26.5 -34.5t-14.5 -43t-4.5 -45q0 -97 39.5 -149.5t124.5 -52.5q40 0 62 15t31 24q8 -11 16.5 -21t18.5 -21zM566 271
q-37 -51 -74 -95.5t-66 -74.5q13 -14 28.5 -29t34.5 -33t43 -41t54 -53q-32 -8 -65.5 -13.5t-65 -10t-60 -7t-50.5 -2.5l-27 34q-14 -10 -36.5 -18t-50.5 -8q-45 0 -82.5 15t-79.5 50q-37 31 -54 81t-17 122q0 21 4 43t12.5 43t21.5 39t31 30q-15 23 -28.5 48.5t-25.5 51.5
q-1 13 -2 31.5t-1.5 39t-1.5 39t-1 31.5q44 -1 97 -2t107.5 -3t107.5 -4.5t97 -5.5l36 -41q10 -55 15.5 -108t7.5 -105l57 -3z" />
    <glyph glyph-name="quotesingle" unicode="'" horiz-adv-x="235" 
d="M54 388q24 -3 45 -3h11.5t11.5 1q15 106 15 218q-8 1 -17 1.5t-17 0.5q-21 0 -42 -2.5t-42 -6.5q13 -54 20.5 -106t14.5 -103zM23 384q-6 51 -15 108t-26 130q34 6 65.5 10t55.5 4q4 0 13 -0.5t19 -1t19 -1t14 -0.5l35 -40q0 -142 -18 -271q-23 -2 -32 -2.5t-16 -0.5
q-25 0 -49 3z" />
    <glyph glyph-name="parenleft" unicode="(" horiz-adv-x="293" 
d="M190 -117q1 17 1.5 34t0.5 36q-10 -2 -20 -2h-20q-5 75 -7.5 146.5t-2.5 142.5q0 88 3 172t11 167q17 0 34 -3q2 18 3 38.5t1 46.5q-10 2 -19 2q-19 0 -36 -5t-30 -19q-11 -12 -18.5 -24t-13 -31t-9 -47t-5.5 -70.5t-3 -102.5t-1 -143q0 -81 1.5 -133t5.5 -84.5t10 -51
t15 -33.5q22 -37 64 -37h18.5t16.5 1zM208 202q0 -61 0.5 -110.5t3.5 -105.5l10 1l36 -40v-27t-0.5 -37t-1 -36.5t-0.5 -25.5q-28 -4 -41 -4.5t-22 -0.5q-19 0 -38 7.5t-35.5 19.5t-31 27.5t-24.5 32.5q-10 16 -16.5 34.5t-10.5 52t-6 88t-2 143.5q0 84 1 145.5t3.5 106
t6.5 74.5t10.5 50.5t15.5 35t21 27.5q17 19 41 26.5t47 7.5q12 0 27 -2t22 -4l36 -40q0 -38 -1.5 -72t-6.5 -68q-17 3 -32 3q-7 -77 -9.5 -153t-2.5 -156z" />
    <glyph glyph-name="parenright" unicode=")" horiz-adv-x="293" 
d="M-7 -115q0 22 3 49t11 60q10 -2 20 -3.5t18 -1.5q2 60 3 115.5t1 105.5q0 102 -3.5 179t-8.5 126l-45 41l-5 133q23 5 41 6.5t31 1.5q60 0 94 -43q15 -19 26.5 -35t19.5 -35t14 -43.5t9 -61t4.5 -88.5t1.5 -124q0 -37 -0.5 -88.5t-3.5 -105.5t-10.5 -104t-22.5 -85
q-16 -38 -42.5 -52t-59.5 -14q-10 0 -17 0.5t-13 1.5zM23 -114q7 -1 13.5 -1.5t14.5 -0.5q36 0 60 24.5t33 90.5q2 15 5 37t6 56.5t5 86t2 126.5q0 88 -2 146t-6 95t-10.5 57t-15.5 31q-13 15 -30 24t-39 9q-11 0 -22 -0.5t-20 -2.5q0 -23 1.5 -40.5t3.5 -36.5q21 0 37 -4
q8 -37 14.5 -132t6.5 -241q0 -57 -1.5 -119.5t-3.5 -131.5q-8 -2 -12 -2q-18 0 -33 3q-4 -15 -5.5 -34t-1.5 -40z" />
    <glyph glyph-name="asterisk" unicode="*" horiz-adv-x="628" 
d="M310 309q47 -36 93.5 -65.5t94.5 -53.5q13 40 22 83.5t15 90.5q-48 0 -94.5 1.5t-94.5 5.5q82 82 175 151q-40 29 -79.5 51.5t-79.5 36.5q-25 -53 -47.5 -111t-43.5 -123q-8 49 -16.5 98t-21.5 101q-7 0 -28 -14.5t-44.5 -33.5t-44 -37.5t-25.5 -26.5q36 -21 69 -45.5
t65 -53.5q-54 -20 -107.5 -33.5t-107.5 -23.5q11 -48 26 -85.5t34 -68.5q48 35 92.5 71.5t89.5 80.5q-7 -67 -15.5 -127t-17.5 -115q27 -4 53 -6t52 -2q12 0 24 0.5t24 1.5q-14 67 -29.5 129.5t-32.5 122.5zM606 484q-33 -26 -61 -48t-52 -42h77l36 -40q-8 -61 -21 -121.5
t-32 -121.5q-42 22 -82 44.5t-75 46.5q13 -52 25.5 -107t22.5 -103q-18 -2 -37.5 -3t-39.5 -1q-33 0 -68.5 3t-73.5 11q-14 10 -26.5 20.5t-14.5 15.5q4 25 7.5 42.5t5.5 30.5t3.5 22.5t3.5 19.5q-25 -20 -51.5 -40t-52.5 -39l-45 35q-28 47 -46.5 100.5t-35.5 121.5
q50 9 96 18.5t88 22.5q-29 20 -55.5 38.5t-58.5 37.5q5 7 19.5 22t35 33.5t43.5 38.5t44 36t37.5 26.5t23.5 10.5l47 -49l6 -24q11 27 22.5 53.5t23.5 52.5q34 -13 68.5 -29t68.5 -35.5t65.5 -44t58.5 -55.5z" />
    <glyph glyph-name="plus" unicode="+" horiz-adv-x="490" 
d="M318 448q2 -29 2.5 -57.5t1.5 -56.5l101 5l36 -40q5 -35 6 -66t1 -62q-36 -4 -72.5 -7.5t-72.5 -5.5q0 -31 -2 -65t-6 -81q-36 -4 -65 -5t-62 -1l-40 36l-2 110q-27 0 -60.5 0.5t-52.5 1.5l-40 36q-1 10 -2 30t-2.5 43t-2.5 45t-1 35l28 -2l64 -4t64 -3q-2 35 -4.5 70
t-3.5 77q32 3 68.5 5t83.5 2zM249 75q2 37 4 73t2 74q74 5 145 12q0 19 -0.5 37.5t-3.5 35.5q-35 -2 -69.5 -2.5t-69.5 -1.5q0 38 -1 76.5t-3 78.5q-24 0 -46.5 -1.5t-45.5 -3.5q2 -38 4.5 -75t4.5 -74q-40 1 -78.5 2.5t-77.5 4.5q1 -27 2 -49.5t3 -42.5q19 -1 38 -1h39
h38.5t38.5 1l3 -147q35 0 73 3z" />
    <glyph glyph-name="comma" unicode="," horiz-adv-x="267" 
d="M79 -110q23 26 45 54t44 59q2 18 4.5 39t2.5 45q-38 0 -76.5 -2t-77.5 -5q-3 -21 -3.5 -43.5t-0.5 -44.5q17 0 34 0.5t35 2.5q-11 -19 -23 -35t-25 -31q10 -11 20 -21t21 -18zM118 -185q-32 24 -62 51.5t-58 61.5l13 14l-25 19q0 37 1.5 74.5t6.5 72.5q100 9 211 9
l36 -40q0 -47 -2.5 -74.5t-5.5 -47.5q-23 -35 -49 -66.5t-66 -73.5z" />
    <glyph glyph-name="hyphen" unicode="-" horiz-adv-x="353" 
d="M233 190q7 29 10.5 62t5.5 69q-56 2 -111 2.5t-112 0.5q0 -35 1 -67t5 -64q50 0 100.5 -0.5t100.5 -2.5zM5 162q-5 48 -7.5 94.5t-2.5 98.5q28 0 66 -0.5t77.5 -1t77 -2t65.5 -2.5l36 -40q-2 -50 -7.5 -93t-16.5 -91q-68 2 -133 2h-115z" />
    <glyph glyph-name="period" unicode="." horiz-adv-x="265" 
d="M26 -16q36 0 69 1.5t66 3.5q2 23 4.5 47t2.5 50q-38 -1 -74 -2.5t-71 -5.5zM-8 106q18 2 45.5 3.5t57 3t57.5 3t46 1.5l35 -40q0 -44 -2.5 -82t-6.5 -71q-17 -1 -41.5 -2t-51 -2t-52 -1.5t-43.5 -0.5l-40 36z" />
    <glyph glyph-name="slash" unicode="/" horiz-adv-x="338" 
d="M108 -23q34 152 72 299t77 296q-11 2 -26.5 4t-34.5 2q-53 -144 -100.5 -291.5t-91.5 -303.5q52 -6 104 -6zM-36 -42q22 77 48 161.5t53.5 169t55 166t53.5 153.5q37 0 68.5 -3.5t53.5 -7.5l35 -39q-40 -149 -82.5 -313.5t-80.5 -332.5q-23 0 -43 0.5t-39.5 1.5t-39 2.5
t-41.5 4.5z" />
    <glyph glyph-name="zero" unicode="0" horiz-adv-x="655" 
d="M457 343q0 -64 -3 -120t-7 -109q-66 2 -135 5t-132 8q-4 56 -5 112.5t-1 113.5q71 0 141.5 -2.5t141.5 -7.5zM391 -8q60 8 92.5 44.5t41.5 104.5q4 27 7.5 59.5t6.5 66t4.5 67t1.5 62.5q0 139 -131 148q-21 1 -49.5 2.5t-60.5 3t-65 2t-63 0.5q-83 0 -120 -68
q-11 -20 -17 -39t-9 -42t-3.5 -52.5t-0.5 -70.5q0 -33 0.5 -65.5t2.5 -58.5q4 -88 40 -130.5t98 -42.5q28 0 60.5 0.5t63 1.5t57 3t43.5 4zM205 -83q-43 0 -72.5 15t-61.5 45q-23 21 -38 46.5t-23.5 60.5t-11.5 82.5t-3 113.5q0 43 0.5 74.5t4 55.5t10.5 44.5t19 43.5
q46 84 147 84q30 0 63.5 -0.5t66 -2t61.5 -3t49 -2.5q40 -3 75.5 -20.5t62 -46t42 -67t15.5 -82.5q0 -30 -1.5 -64t-4.5 -68.5t-6.5 -67t-7.5 -59.5q-9 -68 -34.5 -104.5t-71 -54t-114.5 -20.5t-166 -3zM418 145q2 31 4.5 65.5t3.5 70.5q-47 3 -90 4.5t-96 1.5v-69t2 -66
q43 -3 87 -4.5t89 -2.5z" />
    <glyph glyph-name="one" unicode="1" horiz-adv-x="354" 
d="M110 -13q42 0 71.5 2t49.5 6q10 133 14.5 270.5t6.5 280.5q-33 6 -72 10.5t-79 4.5q-26 -22 -48.5 -46.5t-44.5 -52.5q14 -38 29 -71.5t31 -61.5q12 10 23.5 19t25.5 14q1 -23 1.5 -45t0.5 -45q0 -71 -3 -142t-6 -143zM148 -79q-35 25 -68 67q2 67 5 134.5t4 134.5
l-28 23q-24 43 -46.5 90.5t-39.5 97.5q29 35 57 66t57 57q48 0 98 -6t95 -14l36 -40q-1 -72 -3 -149.5t-4.5 -154.5t-6 -151.5t-8.5 -140.5q-32 -7 -69 -10.5t-79 -3.5z" />
    <glyph glyph-name="two" unicode="2" horiz-adv-x="609" 
d="M27 -23q113 0 225.5 2t227.5 14q8 29 15.5 63.5t12.5 76.5q-98 -10 -195.5 -13t-195.5 -3q0 38 13.5 60t41.5 22q14 0 39 -0.5t53.5 -1t58 -1t53.5 -0.5q28 0 52 9t41.5 30t27.5 55.5t10 84.5q0 167 -183 175q-66 3 -128 3q-33 0 -65.5 -1t-64.5 -3q1 -58 6 -113t14 -109
q80 8 159 13.5t160 5.5q17 0 24.5 -8.5t7.5 -28.5q0 -22 -8 -30t-25 -8q-15 0 -39 1t-52.5 1.5t-58.5 1.5t-55 1q-102 0 -142 -61q-8 -13 -14 -31.5t-9.5 -47t-5 -67.5t-1.5 -92zM-4 -24q0 85 5 138.5t15 85.5t26 48.5t38 29.5l-19 16q-11 68 -18 138.5t-7 145.5
q16 1 37 1.5t42.5 1.5t42.5 1.5t38 0.5q66 0 114.5 -2.5t86 -12t67.5 -29.5t60 -55q23 -27 36 -63t13 -84q0 -66 -15.5 -107.5t-41.5 -65.5l27 3l35 -40q-8 -64 -18 -111.5t-20 -85.5q-131 -14 -246.5 -16.5t-229.5 -2.5z" />
    <glyph glyph-name="three" unicode="3" horiz-adv-x="577" 
d="M47 -23q92 2 155 5t105 9t68.5 17t45.5 28q24 22 36.5 57t12.5 90q0 71 -37.5 100t-103.5 29q-8 0 -14.5 -0.5t-14.5 -1.5q40 17 79.5 35.5t77.5 42.5q5 31 7.5 66t2.5 77q-108 13 -215 20t-216 10q-5 -54 -7 -110t-3 -113q53 7 105 11t106 4h25.5t24.5 -1
q-26 -18 -56 -32.5t-60 -28.5q0 -21 0.5 -42t5.5 -45q22 1 43.5 1.5t43.5 0.5q29 0 59 -1.5t57 -5.5q17 -2 25 -8t8 -21q0 -19 -7.5 -27t-27.5 -10q-12 -1 -51 -2.5t-89.5 -3t-105 -2.5t-96.5 -1q1 -41 3.5 -77.5t7.5 -69.5zM-5 303q1 78 3.5 150.5t9.5 138.5
q125 -4 246.5 -11.5t242.5 -21.5l36 -40q0 -60 -3 -105t-8 -80q-16 -11 -31 -19.5t-29 -16.5q37 -29 55.5 -65.5t18.5 -86.5q0 -60 -15 -102.5t-43 -66.5q-21 -18 -50.5 -30t-74.5 -19t-110 -11t-157 -6l-69 62q-9 63 -12 182l167 1l-19 16q-6 28 -9.5 53.5t-3.5 54.5
q-25 -2 -51 -5.5t-53 -6.5z" />
    <glyph glyph-name="four" unicode="4" horiz-adv-x="517" 
d="M330 345q0 -40 -2.5 -80t-7.5 -82q-32 -4 -60.5 -6.5t-57.5 -2.5h-16t-16 1q38 50 78 92.5t82 77.5zM23 49q59 2 115 5t111 8l-9 -74q42 0 75.5 0.5t61.5 5.5q2 15 2.5 31t1.5 33h20t19 2q-1 38 -2 70.5t-5 59.5q-8 -2 -17 -3t-17 -1q2 42 3.5 82.5t1.5 80.5
q0 51 -1.5 101t-3.5 101l-121 13q-65 -95 -126 -192.5t-118 -205.5zM-17 173q60 112 124.5 216t135.5 207l166 -17l35 -40q1 -25 2 -54.5t2 -59.5t1.5 -59t0.5 -54v-54t-1 -48l26 -26q8 -51 9.5 -95t2.5 -92l-42 -5q-1 -12 -2 -31t-3 -29q-45 -8 -91.5 -9t-104.5 -1l-40 36
l4 32q-44 -3 -89 -4.5t-83 -3.5l-41 35z" />
    <glyph glyph-name="five" unicode="5" horiz-adv-x="601" 
d="M67 7q70 -7 137.5 -12t134.5 -5q82 0 121.5 46.5t39.5 120.5q0 28 -8.5 50.5t-27.5 38t-50 23.5t-77 8q-54 0 -112 -0.5t-104 -2.5q2 16 4 33t4 30l92 4t92 2q88 0 175 -6q0 51 -1 100.5t-6 101.5q-113 11 -226 15.5t-228 4.5q3 -97 7 -189.5t11 -176.5q88 5 182 7t182 2
q34 0 34 -35q0 -33 -40 -34q-55 -2 -109 -3.5t-108 -1.5h-66t-67 2q2 -38 5.5 -67.5t8.5 -55.5zM38 1q-12 65 -19 131.5t-11 138.5t-6.5 151t-6.5 168q133 -1 261 -6.5t253 -16.5l35 -40q6 -68 8 -131.5t2 -126.5q-16 2 -34 2.5t-38 1.5q8 -6 19.5 -13.5t31.5 -33.5
q18 -23 25.5 -48.5t7.5 -58.5q0 -87 -46 -141t-143 -54q-69 0 -136.5 5.5t-137.5 11.5z" />
    <glyph glyph-name="six" unicode="6" horiz-adv-x="626" 
d="M381 130q-8 -1 -27.5 -2t-44 -1.5t-52.5 -0.5h-52q-47 0 -69 4.5t-22 31.5q0 38 36 40q44 1 102.5 2t112.5 1q45 0 45 -41q0 -16 -8.5 -24t-20.5 -10zM488 338q4 39 6.5 80.5t2.5 85.5q0 11 -0.5 22.5t-0.5 23.5q-63 2 -131 3t-134 1q-100 0 -152 -49t-52 -143
q0 -52 2 -105.5t4 -102.5q4 -75 45 -113t118 -44q18 -2 40 -3.5t43.5 -2.5t40 -2t29.5 -1q84 0 129.5 45t45.5 135q0 63 -39 97.5t-117 34.5q-53 0 -86.5 -0.5t-56 -3t-37.5 -6t-31 -9.5q-2 5 -2 9v9q0 15 7.5 24t21.5 13.5t32.5 6t41.5 1.5q46 0 79 -0.5t59 -1t47.5 -2
t44.5 -2.5zM74 5q-31 26 -49.5 62.5t-21.5 84.5t-4.5 103.5t-1.5 106.5q0 109 59.5 165.5t174.5 56.5q33 0 71.5 -0.5t78 -1t77 -1.5t68.5 -2l36 -40q0 -50 -0.5 -86.5t-1.5 -64.5t-2.5 -49.5t-3.5 -40.5l-32 -26q43 -36 55.5 -71.5t12.5 -70.5q0 -104 -53 -156t-150 -52
q-11 0 -29.5 0.5t-40.5 2t-44.5 3t-40.5 3.5q-43 4 -79.5 21t-78.5 53z" />
    <glyph glyph-name="seven" unicode="7" horiz-adv-x="562" 
d="M117 -7q40 -5 78 -7.5t76 -2.5q18 49 41 102.5t48.5 109t51.5 111.5t50 110q-2 37 -7 79t-16 70q-128 0 -228 -3t-191 -5q0 -8 -0.5 -16t-0.5 -16q0 -54 3 -100t8 -90q32 2 69.5 4t76 3.5t76.5 2.5t72 1q-24 -36 -51.5 -78.5t-54.5 -88t-53 -93t-48 -93.5zM76 -22
q42 91 84 164t82 135q-54 -2 -106.5 -4.5t-92.5 -5.5l-40 35q-3 28 -5.5 56.5t-4.5 62.5t-3 74.5t-1 91.5q76 2 140 3.5t121 2.5t108.5 1.5t101.5 0.5l37 -40q16 -42 22.5 -91.5t9.5 -90.5q-51 -115 -105 -228.5t-95 -227.5q-49 0 -93.5 2.5t-83.5 7.5z" />
    <glyph glyph-name="eight" unicode="8" horiz-adv-x="627" 
d="M373 171q0 -38 -41 -40q-13 -1 -32 -1.5t-40.5 -0.5h-43.5h-42q-38 0 -38 35q0 22 12.5 32.5t41.5 10.5q42 0 82 -1t70 -3q31 -1 31 -32zM437 309q0 -29 -17 -36.5t-39 -7.5q-23 0 -47.5 0.5t-48 1.5t-44.5 3t-36 4q-14 2 -21 7t-7 19q0 32 34 37q19 2 45 4t53.5 4
t52.5 3t42 1q16 0 24.5 -9t8.5 -31zM525 124q0 92 -69 112q38 22 53 53t15 76q0 100 -42.5 146.5t-128.5 46.5q-63 0 -123 -3t-106.5 -20.5t-74.5 -55.5t-28 -107q0 -109 88 -142q-39 -17 -59 -45t-20 -77q0 -63 44 -91t133 -28q18 0 40 0.5t45 1t46.5 1.5t43.5 2
q60 2 98 31t45 99zM71 -32q-21 18 -34.5 33.5t-21.5 32t-11.5 34t-3.5 40.5q0 45 11.5 73t37.5 49q-31 24 -44.5 58.5t-13.5 83.5q0 53 16 91.5t44 64t66 39t83 17.5q35 3 74.5 3.5t78.5 0.5q34 0 60.5 -6t48 -17.5t40 -27t37.5 -34.5q27 -28 39 -72t12 -104q0 -78 -43 -124
q26 -23 35 -52t9 -65v-3q-4 -42 -17.5 -70.5t-36 -47t-52 -27.5t-64.5 -10q-20 -1 -43.5 -2t-47 -1.5t-46 -1t-39.5 -0.5q-60 0 -104 11t-70 34z" />
    <glyph glyph-name="nine" unicode="9" horiz-adv-x="628" 
d="M349 238q-11 0 -38 0.5t-56 2t-55 3t-36 3.5q-35 6 -35 40q0 30 16.5 43t47.5 13q13 0 34.5 -0.5t44.5 -1.5t44.5 -2t34.5 -2q20 -2 33.5 -12.5t13.5 -33.5q0 -29 -13.5 -41t-35.5 -12zM74 2q28 -4 61.5 -7t67 -5.5t64.5 -4t55 -1.5q99 0 146.5 53.5t52.5 145.5
q2 48 4 94t2 93q0 186 -158 186q-43 0 -87 -0.5t-82 -2.5q-86 -6 -131.5 -51t-45.5 -133q0 -182 150 -204q27 -4 53 -5.5t50 -1.5t41.5 1.5t31 4.5t24 7.5t20.5 11.5q1 -5 1 -15q0 -63 -54 -63q-13 0 -45 1t-71.5 3t-81 4.5t-74.5 5.5q0 -33 1 -62t5 -55zM44 -4q-4 26 -5 66
t-1 90l61 -6q-63 43 -85 97.5t-22 125.5q0 102 53 154.5t154 59.5q38 2 82.5 3t87.5 1q29 0 52 -5t43 -15.5t38.5 -26.5t39.5 -39q25 -28 38 -69.5t13 -99.5q0 -47 -2 -94l-4 -94q-5 -104 -60 -165t-167 -61q-25 0 -56.5 1.5t-65.5 4t-67.5 5.5t-61.5 7z" />
    <glyph glyph-name="colon" unicode=":" horiz-adv-x="283" 
d="M33 -2q35 -4 68.5 -6.5t65.5 -3.5q3 22 6 45.5t5 49.5q-37 3 -73 5.5t-71 2.5zM35 255q35 0 68.5 1t65.5 3q3 23 5 46.5t2 49.5q-37 -2 -73 -3t-71 -5zM1 375q18 2 45.5 3.5t57 3t57 2.5t45.5 2l36 -40q0 -45 -3 -81.5t-7 -69.5q-16 -1 -40.5 -2t-51 -2t-52 -1.5
t-43.5 -0.5l-40 35zM4 121q59 0 108.5 -2.5t97.5 -7.5l36 -41q-4 -49 -8 -84.5t-9 -64.5q-16 1 -40.5 2.5t-51.5 3.5t-52 4.5t-43 4.5l-40 35z" />
    <glyph glyph-name="semicolon" unicode=";" horiz-adv-x="280" 
d="M171 351q-35 0 -71 -2.5t-73 -5.5q2 -26 4.5 -49.5t6.5 -45.5q32 1 65.5 3.5t68.5 6.5zM86 -110q22 26 44.5 54t43.5 59q3 18 5.5 39t2.5 45q-39 0 -77.5 -2t-77.5 -5q-3 -21 -3.5 -43.5t-0.5 -44.5q17 0 34.5 0.5t34.5 2.5q-11 -19 -23 -35t-25 -31q19 -23 42 -39z
M126 -188q-32 26 -62.5 55t-58.5 61l12 14l-25 19q0 37 1.5 74.5t6.5 72.5q100 9 212 9l36 -40q0 -42 -3 -71.5t-8 -52.5q-23 -33 -49 -66t-62 -75zM236 341l2 -145q-18 -2 -43 -4.5t-51.5 -4.5t-51 -3.5t-40.5 -2.5l-41 36q-4 27 -8 63t-8 91q48 5 97.5 7.5t107.5 2.5z" />
    <glyph glyph-name="less" unicode="&#x3c;" horiz-adv-x="490" 
d="M21 213q76 -55 157.5 -103.5t172.5 -90.5q12 15 22 36t19 46q-73 32 -147 68t-134 73q71 38 140.5 86.5t140.5 102.5q-14 22 -27.5 39.5t-27.5 32.5q-78 -62 -154 -118.5t-153 -106.5zM1 296q85 55 169 117t169 131q51 -50 79.5 -87t48.5 -71q-65 -48 -125.5 -92.5
t-117.5 -79.5q48 -24 100.5 -48.5t106.5 -48.5l34 -39q-14 -38 -30 -71t-38 -62q-50 24 -99 50t-98.5 56.5t-101.5 67t-109 80.5z" />
    <glyph glyph-name="equal" unicode="=" horiz-adv-x="490" 
d="M393 200q-94 0 -188 1.5t-191 6.5q0 -23 0.5 -45.5t4.5 -46.5q96 0 189.5 1.5t187.5 9.5zM23 321q97 8 190 13t187 5q-1 20 -2 38t-5 35q-42 2 -83.5 3t-83.5 1q-101 0 -208 -3zM459 190l4 -126q-113 -10 -218.5 -12t-211.5 -2l-41 36q-4 25 -6 49t-2 50q0 25 3 54
q48 -2 104.5 -4t114.5 -3t114 -1.5t103 -0.5zM-14 443q51 2 109.5 2.5t130.5 0.5q21 0 45.5 -0.5t50 -1.5l51 -2t46.5 -2l36 -40q4 -23 7.5 -50.5t3.5 -76.5q-47 0 -102 -2t-112.5 -5t-113.5 -6.5l-104 -6.5l-40 36z" />
    <glyph glyph-name="greater" unicode="&#x3e;" horiz-adv-x="490" 
d="M392 309q-75 56 -157 104t-173 90q-11 -15 -21.5 -36t-19.5 -46q73 -32 147 -67.5t134 -73.5q-71 -38 -140.5 -86t-140.5 -102q14 -23 28 -40.5t28 -32.5q78 63 153.5 119.5t153.5 105.5zM459 284l-10 -94q-85 -53 -168 -115.5t-170 -131.5q-36 36 -69 72.5t-61 83.5
q68 50 131 96t115 78q-48 24 -100.5 48t-103.5 47l-40 37q14 39 31.5 74.5t37.5 62.5q101 -48 193 -102t179 -117z" />
    <glyph glyph-name="question" unicode="?" horiz-adv-x="512" 
d="M74 -40v136q-4 21 -5.5 37t-1.5 25q0 35 14 66.5t43 52.5l-95 -4l-40 36q0 25 0.5 60t2 71.5t3 71t3.5 58.5q32 3 70 5.5t74.5 4.5t69 3t53.5 1q30 0 53 -4t42 -13t36.5 -24.5t37.5 -38.5q23 -26 35 -65.5t12 -98.5q0 -60 -8.5 -89.5t-22.5 -47.5q-22 -30 -52.5 -42
t-64.5 -18q-28 -6 -28 -28v-13t1 -16l12 -10l-16 -152q-8 0 -20 -0.5t-25 -0.5h-25h-21h-20.5h-26.5t-27.5 0.5t-22.5 0.5zM257 275q-35 0 -64.5 -5.5t-50.5 -19t-33 -36t-12 -56.5q0 -9 1 -18.5t3 -19.5q70 -6 140 -6q-1 8 -1 16.5v22.5q0 47 50 56q31 5 56.5 15.5
t43.5 33.5q11 14 18 39.5t7 80.5q0 50 -10 83.5t-29 54t-47 29.5t-64 9q-21 0 -50.5 -1t-62 -2.5t-65.5 -3.5t-60 -5q-4 -49 -5.5 -100t-2.5 -102q63 3 125.5 5.5t126.5 2.5q63 0 63 -33q0 -21 -15 -30.5t-39 -9.5h-23zM249 86q-37 0 -73 -0.5t-71 -3.5v-93h134z" />
    <glyph glyph-name="at" unicode="@" horiz-adv-x="644" 
d="M366 189q0 -26 -0.5 -51.5t-3.5 -51.5q-29 -2 -58 -3t-58 -1q-6 49 -6 110q9 1 19 1h21q22 0 43.5 -1t42.5 -3zM395 116q4 26 6 52.5t2 52.5q0 25 -9 39.5t-29 22t-51.5 9.5t-77.5 2q-32 0 -50 -21t-18 -67q0 -25 0.5 -51t3.5 -47q5 -39 40 -53.5t94 -14.5q39 0 64.5 1
t43 4t29 8.5t22.5 15.5q31 28 54.5 95.5t23.5 159.5q0 41 -8.5 69.5t-26.5 49.5q-15 17 -36.5 28t-58.5 17.5t-94 9t-142 2.5q-71 0 -109 -44.5t-38 -128.5q0 -56 1 -98.5t3 -76.5t6.5 -61.5t11.5 -52.5q15 -57 48 -83t71 -29q60 -5 106.5 -7.5t84 -4t69.5 -2t64 -0.5
q3 16 4 34t1 35q-42 1 -95 3t-102.5 4.5t-89.5 5t-58 4.5q-17 3 -27 25t-15 59.5t-6.5 88t-1.5 110.5q0 20 6 32.5t21 20t41.5 10.5t67.5 3q33 0 67 -1t69 -3q19 -2 31.5 -6.5t19.5 -17.5t9.5 -36t2.5 -62q0 -105 -34 -105h-11zM207 -139q-35 3 -61.5 19t-52.5 38
q-29 24 -47 54t-28.5 76.5t-14.5 114t-4 164.5q0 99 46 151t132 52q85 0 145 -2t103 -10t71.5 -23.5t49.5 -42.5q16 -20 27.5 -35.5t19.5 -32.5t12 -40t4 -58q0 -48 -7 -91t-18.5 -78.5t-27 -62.5t-32.5 -43l42 -40q0 -29 -2.5 -61.5t-7.5 -63.5q-36 0 -73.5 0.5t-80 2
t-90.5 4.5t-105 8z" />
    <glyph glyph-name="A" unicode="A" horiz-adv-x="643" 
d="M408 127q-26 0 -53.5 0.5t-53.5 2t-49 3t-39 2.5t-23.5 8t-7.5 25q0 47 23 47q16 0 44.5 -1t61 -2.5t64.5 -3.5t55 -4q26 -3 26 -41q0 -20 -7 -28t-21 -8h-20zM546 0q-11 20 -15.5 51.5t-4.5 80.5q0 52 1 105.5t1 107.5q0 103 -40.5 149t-125.5 46q-24 0 -60 -0.5t-77 -2
t-83 -4t-79 -5.5q-5 -31 -6.5 -62t-1.5 -63q0 -40 3 -85q34 5 76.5 8.5t84.5 6t80.5 4t65.5 1.5q47 0 68 -13.5t21 -50.5q0 -8 -0.5 -14.5t-1.5 -14.5q-10 22 -27.5 32.5t-41.5 13.5q-49 6 -98.5 7.5t-91.5 1.5q-85 0 -126 -39t-41 -110q0 -81 54 -118q21 -15 51.5 -25
t62 -15.5t60.5 -7.5t48 -2q31 0 52.5 3.5t36.5 10.5t25 18.5t18 26.5q23 -43 90 -43h11t11 1zM77 -12q-23 20 -38.5 38.5t-25 37.5t-14 40t-4.5 47q0 81 44 128l-9 3q-2 27 -3.5 54.5t-1.5 56.5q0 40 2.5 80.5t8.5 82.5q43 4 90.5 6.5t91.5 4.5t82 3t62 1q29 0 52 -4
t44 -13.5t41 -26.5t43 -42q26 -29 39 -72t13 -106q0 -52 -1 -104.5t-1 -108.5q0 -23 1 -41.5t4.5 -35.5t10 -34.5t16.5 -37.5q-12 -7 -29 -9.5t-33 -2.5q-55 0 -87 25q-19 -21 -50 -31t-85 -10q-31 0 -66 2t-70 9.5t-68 21.5t-59 38z" />
    <glyph glyph-name="B" unicode="B" horiz-adv-x="647" 
d="M119 194q71 2 140 2h139q23 0 23 -29q0 -17 -6.5 -24t-19.5 -8q-4 0 -20.5 -1.5t-40 -2.5t-52 -2.5t-56 -2.5t-52 -2t-40.5 -1q-7 29 -15 71zM110 336q56 3 116 5t105 2q21 0 29.5 -13.5t8.5 -20.5q0 -14 -11 -24.5t-35 -10.5q-109 0 -215 3v34.5t2 24.5zM30 -4
q42 -2 79.5 -3.5t77.5 -2.5t85 -1h102q45 0 75.5 14t49 37.5t27 53t8.5 60.5q0 50 -15 76.5t-47 40.5q55 33 55 134q0 69 -29.5 104t-98.5 35q-63 0 -156.5 -0.5t-219.5 -0.5zM-8 573q40 0 83 0.5t83 0.5h241q27 0 47.5 -4t38.5 -12.5t34.5 -23t34.5 -35.5q39 -45 39 -132
q0 -44 -9 -75.5t-28 -54.5q23 -22 33.5 -51t10.5 -70q0 -36 -10 -70.5t-32 -62t-58 -44t-88 -16.5q-57 0 -107 0.5t-95 1.5t-87 3l-84 4l-40 35z" />
    <glyph glyph-name="C" unicode="C" horiz-adv-x="644" 
d="M440 149q-6 -9 -12 -16t-14 -15q-20 -1 -41 -1.5t-42 -0.5q-47 0 -96 1t-105 3q-7 60 -11.5 122.5t-4.5 131.5q78 -2 155.5 -5.5t158.5 -11.5q9 -10 16 -24t13 -29q27 38 50.5 77.5t45.5 83.5q-11 53 -53 74t-125 21q-25 0 -54.5 -0.5t-57 -1t-49.5 -1.5t-31 -1
q-80 -5 -118.5 -51t-38.5 -121q0 -94 2 -169.5t16.5 -129t47.5 -82t96 -28.5q17 0 46 2t62 5t66 7t59 7q99 13 119 77q-40 39 -100 76zM432 191q25 -16 47.5 -31t43.5 -32.5t42.5 -37.5t44.5 -47q-32 -98 -147 -113q-26 -3 -59.5 -7t-67.5 -7t-63.5 -5t-46.5 -2q-25 0 -44 4
t-36 11.5t-34 19.5t-37 28q-30 24 -46 57.5t-23.5 82.5t-9 116t-1.5 156q0 87 48 142.5t139 60.5q12 1 34.5 1.5t50 1t56 1t52.5 0.5q38 0 66 -4t51 -14t43.5 -27.5t44.5 -43.5q14 -17 25 -36.5t16 -41.5q-24 -48 -56.5 -101t-77.5 -115l-38 33l-21 53q-35 3 -64.5 5
t-59 3.5t-59.5 2.5t-65 2q1 -42 2.5 -81t5.5 -77q33 -1 66.5 -2t67.5 -1q20 0 39.5 0.5t39.5 1.5z" />
    <glyph glyph-name="D" unicode="D" horiz-adv-x="699" 
d="M412 372q9 -75 9 -146q0 -30 -1.5 -60t-3.5 -60q-35 -2 -71 -3.5t-71 -1.5q-40 0 -80 1.5t-81 3.5q0 58 2 116t7 116q74 17 145.5 24.5t144.5 9.5zM48 -8q19 -1 49.5 -1.5t67 -1.5t75.5 -1.5t75.5 -1t68.5 -0.5h54q123 0 137 169q5 62 10 122.5t5 118.5q0 88 -39.5 133.5
t-119.5 45.5q-29 0 -78 -3.5t-104.5 -9t-112.5 -12t-102 -12.5zM3 566q49 6 110.5 13t122 13t112.5 9.5t83 3.5t52.5 -4t38.5 -12t32 -20.5t33 -29.5q42 -39 55.5 -83t13.5 -98q0 -45 -3 -89.5t-7 -89.5l-5 -64q-15 -195 -165 -195q-22 0 -56 0.5t-74 1t-82.5 1t-81.5 1.5
t-72 2t-52 2l-40 36zM390 226q0 36 -3 77q-51 -3 -101 -9.5t-100 -16.5q-4 -40 -5.5 -73t-1.5 -71q23 -1 47 -1.5t48 -0.5h31t26 0.5t26 1.5t31 2q2 23 2 45.5v45.5z" />
    <glyph glyph-name="E" unicode="E" horiz-adv-x="641" 
d="M114 265q0 5 -0.5 10t-0.5 10q0 28 11.5 44t34.5 16h49.5t57 -0.5t52.5 -1.5t36 -3q25 -3 25 -36q0 -18 -6.5 -25t-23.5 -9q-18 -2 -46 -2.5t-60 -1.5t-66 -1h-63zM180 11q72 -8 154 -11.5t154 -5.5q7 34 9.5 67.5t2.5 68.5q-29 -2 -66 -4.5t-74 -4.5t-71 -3t-56 -1
q-26 0 -35.5 19.5t-9.5 49.5q16 -1 37 -2t44.5 -2t48 -1.5t47.5 -0.5q172 0 172 176q0 102 -41.5 152t-129.5 50q-86 0 -150.5 -6t-107.5 -23.5t-64 -50t-21 -84.5q0 -18 1 -43t3.5 -53.5t5.5 -58.5t7 -58q4 -37 13 -65.5t25 -49.5t40.5 -34.5t61.5 -20.5zM212 -55
q-29 5 -61.5 18.5t-72.5 53.5q-31 27 -46 66.5t-22 93.5q-4 28 -7 58.5t-5.5 59.5t-3.5 54.5t-1 44.5q0 63 23 101t69.5 58.5t116.5 27.5t164 7q57 0 101.5 -20t80.5 -68q12 -16 22 -33t17.5 -38t11.5 -48t4 -63q0 -118 -66 -167l29 -27q0 -50 -4 -98.5t-13 -98.5
q-40 0 -86.5 1.5t-92.5 3.5t-87.5 5.5t-70.5 7.5z" />
    <glyph glyph-name="F" unicode="F" horiz-adv-x="556" 
d="M-5 -33q3 69 6.5 147.5t8.5 156.5t11 152t12 134q114 20 229 32.5t232 20.5l36 -40q-4 -78 -14 -154t-22 -145l30 -30q-9 -42 -20.5 -72t-24.5 -54q-61 2 -129.5 2.5t-132.5 4.5q-5 -46 -7.5 -95.5t-3.5 -103.5q-91 0 -170 9zM154 190q69 -5 136 -6t135 -3q8 16 14.5 33
t11.5 38q-86 2 -171.5 6.5t-171.5 9.5q0 14 0.5 29.5t2.5 25.5q82 8 162 12.5t161 5.5q11 57 18.5 115.5t9.5 121.5q-102 -8 -201.5 -19t-199.5 -28q-13 -121 -21 -258.5t-13 -277.5q29 -2 57.5 -4t56.5 -2q2 51 4.5 101t8.5 100z" />
    <glyph glyph-name="G" unicode="G" horiz-adv-x="656" 
d="M426 -11q51 0 93 9q2 78 6 153t13 148q-66 -8 -132.5 -13.5t-134.5 -8.5q-5 -23 -6 -48.5t-1 -51.5q38 2 77 5t77 11q-2 -69 -55 -69h-60t-65.5 0.5t-60.5 1t-44 1.5q-2 11 -3.5 60.5t-3.5 154.5q72 3 142.5 5t137.5 2q5 -9 9.5 -19t8.5 -21q32 30 63 65.5t63 74.5
q-17 51 -54 81t-91 30h-112q-60 0 -107 -3.5t-79.5 -18t-50 -42.5t-17.5 -76v-96t0.5 -68t1 -53t1.5 -51q2 -64 30 -100.5t74 -50.5q26 -8 66 -9.5t87 -1.5q91 0 94 82q10 -18 17.5 -39t15.5 -44zM619 405q-14 -18 -29.5 -36.5t-31.5 -35.5l15 1l36 -40q-11 -91 -16.5 -180
t-7.5 -177q-36 -7 -65.5 -10.5t-54.5 -3.5l-37 28q-27 -27 -91 -27q-46 0 -89 2t-72 10q-21 6 -41.5 19.5t-50.5 37.5q-26 21 -41.5 43t-23 54.5t-9.5 78.5t-2 115v136q0 61 22 95t62.5 51t99 21t132.5 4h81q37 0 70.5 -16t61 -42.5t49 -60t33.5 -67.5zM193 277
q0 -47 0.5 -76t1.5 -46h38q0 32 1.5 63t6.5 62z" />
    <glyph glyph-name="H" unicode="H" horiz-adv-x="619" 
d="M356 -13q65 3 128 18q14 128 23 264.5t14 280.5q-27 5 -54.5 6.5t-53.5 1.5q-3 -52 -5 -108.5t-2 -115.5q-41 0 -82 1t-81 4q-5 48 -11 101t-11 118q-14 1 -28.5 1h-28.5q-38 0 -75 -2t-73 -6q20 -150 35 -288.5t27 -272.5q23 -3 45 -3.5t45 -0.5q2 55 5.5 108.5
t9.5 107.5q44 4 87.5 6.5t88.5 2.5q0 -57 -0.5 -112.5t-2.5 -111.5zM325 -12q2 39 3 77.5t1 78.5q-20 -1 -39.5 -2t-42.5 -3q-5 -51 -9 -111t-6 -108q-32 0 -66 1t-76 6l-40 36q-6 67 -13.5 143.5t-16.5 156.5t-18.5 160.5t-19.5 154.5q51 6 96.5 8.5t85.5 2.5h18.5t24 -0.5
t24 -1t18.5 -0.5l35 -40q4 -45 8.5 -94t8.5 -88h75q0 27 1 57t2 59.5t2.5 56.5t2.5 50q39 0 81 -2.5t87 -10.5l35 -41q-2 -72 -6 -149t-9 -154t-11 -150t-13 -137q-44 -11 -82 -16t-71 -7z" />
    <glyph glyph-name="I" unicode="I" horiz-adv-x="260" 
d="M36 -14q52 5 91 19q12 129 22 265.5t19 277.5q-71 17 -151 18q9 -144 14 -287t5 -293zM6 -15q0 150 -6 309t-14 303q58 -1 111 -7.5t103 -17.5l36 -40q-5 -70 -10 -146.5t-10.5 -152.5t-11.5 -149.5t-12 -137.5q-31 -10 -60 -17t-55 -9z" />
    <glyph glyph-name="J" unicode="J" horiz-adv-x="518" 
d="M15 -23q61 0 123.5 3.5t119.5 6.5q42 2 70.5 23.5t45.5 59.5q3 7 6 22.5t5 32t3.5 31.5t2.5 23q3 39 7 84t8 93t8 96.5t7 94.5q-42 7 -85 10t-90 4q12 -112 20.5 -222.5t12.5 -221.5q-66 0 -132.5 2.5t-135.5 8.5q0 -42 0.5 -79t3.5 -72zM-15 -26q-2 25 -3.5 50.5
t-1.5 54.5q0 6 0.5 17.5t1 23.5t1 23.5t0.5 17.5q78 -7 143 -10t122 -4q-2 53 -6 109.5t-9 114t-10.5 113.5t-11.5 108q63 -1 123 -6t120 -14l36 -40q-10 -108 -16 -176t-9.5 -110t-5 -65.5t-2.5 -41.5q-1 -8 -2.5 -24t-4 -34t-6 -35t-7.5 -26q-20 -44 -54.5 -70t-85.5 -29
l-49 -3q-46 -3 -97 -5t-98 -2z" />
    <glyph glyph-name="K" unicode="K" 
d="M374 -30q97 10 183 30q-55 70 -108 142.5t-103 148.5q63 66 121.5 133.5t116.5 137.5q-45 7 -89.5 10.5t-90.5 5.5q-42 -71 -88 -136.5t-96 -126.5q-3 58 -3 124q0 58 3 124q-10 1 -19.5 1h-18.5q-44 0 -87 -3.5t-88 -9.5q12 -140 28.5 -278.5t37.5 -279.5q22 -3 42.5 -4
t43.5 -1q-3 26 -6 55.5t-4 64.5q27 26 54 48t56 40q26 -60 54.5 -116t60.5 -110zM287 552q-2 -23 -3 -51.5t-1 -52.5q26 37 52 76.5t52 84.5q55 -2 117 -7.5t137 -17.5l34 -40q-29 -35 -60.5 -73t-64.5 -76.5t-66.5 -75.5t-64.5 -70q48 -72 105 -148t120 -156
q-68 -16 -128 -26.5t-128 -20.5q-51 62 -76 113.5t-44 92.5q-14 -11 -26.5 -22.5t-26.5 -23.5q2 -29 6 -64.5t9 -71.5q-40 0 -75 1.5t-69 6.5l-41 36q-10 70 -20 148t-19 157.5t-17.5 158t-14.5 148.5q58 7 110 11.5t98 4.5h14t20.5 -0.5t20.5 -1t15 -0.5z" />
    <glyph glyph-name="L" unicode="L" horiz-adv-x="553" 
d="M42 -29q106 3 208.5 8t206.5 14q8 35 10.5 68.5t2.5 69.5q-75 -11 -148 -18.5t-148 -7.5q17 111 30.5 221t22.5 222q-52 8 -105 11.5t-107 6.5q11 -154 16.5 -300.5t10.5 -294.5zM12 -30q-2 73 -5 151.5t-6.5 158.5t-7.5 160t-10 157q82 -5 148 -9t129 -13l36 -41
q-9 -101 -20 -198.5t-25 -198.5q60 5 122 12.5t127 16.5l36 -40q0 -53 -4 -101t-14 -96q-104 -9 -217.5 -15t-219.5 -9z" />
    <glyph glyph-name="M" unicode="M" horiz-adv-x="760" 
d="M646 -18q5 97 6 201.5t1 208.5q0 85 -38 128.5t-109 43.5q-32 0 -70 -0.5t-75 -1t-69.5 -1t-54.5 -1.5q-45 -2 -70 -24t-33 -51q-30 64 -117 65q10 -137 15 -277t10 -283q17 2 33.5 3.5t32.5 5.5q2 35 4 71.5t3 79t1.5 94t0.5 117.5q34 6 62.5 8.5t60.5 2.5
q-3 -68 -3 -134q0 -63 2 -123.5t4 -121.5q21 -2 44.5 -3t46.5 -1q2 94 4.5 185.5t10.5 181.5q33 5 65.5 7.5t65.5 3.5q4 -48 5.5 -94t1.5 -93q0 -48 -1.5 -95t-3.5 -95q42 -4 82 -5.5t82 -2.5zM12 -42q-2 71 -4.5 152t-6 162.5t-8 161t-8.5 147.5q105 -3 144 -39
q17 21 42.5 34t63.5 15q22 1 55 1.5t70 1t75.5 0.5h70.5q26 0 47 -4t40 -14t37 -26.5t38 -40.5q23 -27 37 -62.5t14 -92.5q0 -104 -1.5 -212t-7.5 -226q-64 1 -114.5 3t-104.5 7l-40 36q1 24 1.5 52t1.5 57t1.5 57t0.5 52v37.5v30t-0.5 25.5t-1.5 25q-11 -2 -20 -2t-20 -2
q-7 -87 -9.5 -185t-4.5 -186q-36 0 -74 1.5t-72 5.5l-40 35q-4 84 -5.5 170t-1.5 167l-24 -3q0 -115 -3 -202.5t-7 -157.5q-33 -8 -62.5 -11.5t-58.5 -5.5z" />
    <glyph glyph-name="N" unicode="N" horiz-adv-x="632" 
d="M392 -5q30 0 61.5 0.5t60.5 2.5q6 97 9 198t3 201q0 80 -39 119t-113 39h-74.5t-72.5 -2q-59 -3 -97 -66q-19 62 -116 75q6 -141 10 -280.5t7 -279.5q29 -9 59.5 -13t61.5 -6q3 97 9 188t17 173q73 3 152 3h38.5t37.5 -1q-2 -91 -5.5 -178t-8.5 -173zM362 -5
q2 54 4.5 94.5t4 73t3 60.5t1.5 58h-39t-32 -0.5l-30 -1t-33 -1.5q-10 -78 -15 -170t-9 -194q-45 4 -87.5 9.5t-87.5 18.5l-40 37q-2 70 -4 149t-4.5 160t-5 160t-5.5 149q57 -8 94.5 -21.5t55.5 -33.5q41 40 93 41q34 2 73 2h75q28 0 50.5 -4t42.5 -14t39 -25.5t39 -38.5
q47 -53 47 -144q0 -50 -1 -104.5t-2.5 -110t-4.5 -109.5t-6 -102q-15 -1 -34 -2t-39.5 -1.5t-40 -0.5h-34.5z" />
    <glyph glyph-name="O" unicode="O" 
d="M378 355q9 -66 12 -129.5t5 -126.5q-36 0 -76 0.5t-79.5 1.5t-75.5 2.5t-64 3.5q1 58 3.5 115.5t9.5 114.5q67 9 133 12.5t132 5.5zM193 -10q56 -2 110 -4.5t109 -2.5q68 0 100.5 43.5t37.5 128.5q5 83 9 143t4 88q0 73 -37 116t-112 48q-63 3 -122.5 4t-119.5 1
q-40 0 -68 -16.5t-46 -43.5t-26 -61t-8 -68q0 -62 2 -119t5 -86q9 -88 53 -128.5t109 -42.5zM77 -6q-27 22 -43 47.5t-25 66t-12 102t-3 156.5q0 40 10 79t31 70t55 50.5t82 19.5q60 0 120.5 -0.5t122.5 -3.5q49 -5 87 -25t76 -67q25 -31 38 -61.5t13 -79.5q0 -22 -2 -65
t-6 -100l-5 -68q-8 -97 -47.5 -147.5t-116.5 -50.5q-56 0 -113 1t-109 6q-22 2 -40.5 6t-36.5 12.5t-36 21t-40 30.5zM364 129q-3 73 -9 158q-45 -2 -89 -5t-89 -8q-5 -37 -7 -71.5t-3 -69.5q45 -2 95.5 -3t101.5 -1z" />
    <glyph glyph-name="P" unicode="P" horiz-adv-x="614" 
d="M106 337q17 1 47 3t64 3.5t65.5 3t51.5 1.5q21 0 31 -9t10 -31q0 -21 -10.5 -32.5t-26.5 -11.5q-17 0 -46 1t-62.5 3t-67.5 3.5t-62 3.5q1 16 2.5 32t3.5 30zM36 -14q35 1 69.5 3.5t68.5 7.5q1 42 4 81.5t8 76.5q41 -4 94 -7.5t101 -3.5q38 0 61.5 13t40.5 33
q18 21 26.5 54.5t8.5 99.5q0 64 -9 100t-24 61q-40 64 -127 64q-27 0 -65.5 -2t-82.5 -5t-89 -7t-85 -9v-560zM6 573q45 5 95 10t98 8.5t89.5 6t69.5 2.5q51 0 90.5 -22t73.5 -66q17 -22 28.5 -41.5t19 -42.5t11 -52t3.5 -70q0 -36 -2.5 -62.5t-7.5 -47t-13 -35.5t-19 -27
q-20 -23 -49 -39.5t-74 -16.5q-42 0 -87 2.5t-83 5.5q-3 -32 -5 -69t-4 -82q-48 -7 -96.5 -10.5t-97.5 -5.5l-40 36v618z" />
    <glyph glyph-name="Q" unicode="Q" horiz-adv-x="651" 
d="M257 123q-22 0 -53.5 1t-53.5 3q-5 29 -7.5 71.5t-2.5 85.5q0 14 0.5 26t1.5 24q85 6 173 6q33 0 66 -1l66 -2q5 -40 7.5 -86.5t2.5 -93.5q0 -20 -14.5 -31.5t-49.5 -14.5q-17 35 -33.5 69.5t-36.5 68.5l-78 -106zM436 15q111 8 113 137q1 54 1 107.5v109.5
q0 92 -36.5 139.5t-107.5 47.5h-96.5t-67.5 -0.5t-49 -1t-40 -1.5q-137 -6 -137 -171q0 -17 0.5 -43t2 -57t3 -63.5t3.5 -60.5q6 -94 50 -132q10 -9 22.5 -15t33.5 -10t53.5 -6t83.5 -2h44q20 -33 40 -62l40 -58q22 23 42.5 48t38.5 54zM47 12q-16 18 -26.5 40t-17.5 51
q-6 25 -9 64t-5 80t-2.5 77.5t-0.5 57.5q0 43 11 79t32 63t52 42.5t71 17.5q19 1 40 1.5t50.5 0.5h69h94.5q27 0 47.5 -4.5t38.5 -14.5t34.5 -25.5t36.5 -37.5q25 -28 39 -69.5t14 -98.5q0 -55 -0.5 -110.5t-0.5 -111.5q0 -61 -22.5 -99.5t-64.5 -54.5l18 -20
q-26 -41 -56.5 -77.5t-62.5 -71.5q-32 29 -59.5 62.5t-50.5 74.5h-44t-67 2q-39 1 -77.5 18t-81.5 64zM206 246v-46t2 -46h7l88 120q-23 0 -45.5 -1t-51.5 -3v-24zM425 151v23t-0.5 35t-1 36.5t-1.5 27.5q-17 0 -35 0.5t-35 0.5z" />
    <glyph glyph-name="R" unicode="R" 
d="M107 274q-4 11 -4.5 23t-1.5 27q40 2 91 4t99 3.5t88 2t60 0.5t31 -8t11 -27q0 -20 -11.5 -33t-48.5 -13q-3 0 -17.5 0.5t-49 2.5t-94 6t-153.5 12zM53 -8q30 1 59.5 2.5t57.5 6.5q-1 17 -1 34.5v34.5q0 50 3 97q17 2 32 3t29 3q24 -48 50 -92.5t55 -88.5q42 0 92 1t92 3
q-39 41 -75.5 81t-70.5 79q57 1 95.5 15t61.5 40.5t33 65.5t10 91q0 97 -44.5 143.5t-137.5 46.5q-47 0 -97.5 -0.5t-99.5 -1t-95 -1t-85 -0.5zM-16 585q94 0 200.5 1.5t209.5 1.5q35 0 61.5 -5t48.5 -15.5t42 -28t42 -41.5q26 -29 40 -70t14 -98q0 -103 -37.5 -161.5
t-132.5 -72.5q31 -35 67.5 -73.5t85.5 -89.5q-21 -1 -57.5 -2.5t-75.5 -2.5t-75 -1.5t-56 -0.5l-40 35q-23 34 -43.5 69t-40.5 71q-1 -18 -1.5 -36t-0.5 -37q0 -22 0.5 -44t1.5 -45q-42 -7 -85.5 -9.5t-87.5 -4.5l-40 36z" />
    <glyph glyph-name="S" unicode="S" horiz-adv-x="613" 
d="M528 594l35 -41q0 -36 -0.5 -77.5t-2 -83.5t-3 -80t-2.5 -66l-49 6q41 -38 54 -70.5t13 -67.5q0 -30 -5 -59t-19.5 -53t-41 -42t-70.5 -27q-21 -4 -43 -7t-50 -5t-66 -3t-92 -1h-29h-36.5t-38.5 0.5t-35 0.5l-40 36q2 50 5.5 101.5t15.5 111.5q15 -2 34 -4t40 -4
q-48 32 -77.5 79.5t-29.5 110.5q0 107 50 168t144 65zM190 552q-79 -3 -121.5 -56.5t-42.5 -146.5q0 -79 41.5 -116.5t126.5 -39.5q41 -2 85.5 -2.5t76.5 -1.5q40 -1 40 -36q0 -43 -29 -43q-14 0 -53.5 2.5t-87.5 6t-96 7.5t-78 7q-7 -35 -9 -73t-4 -77h110q53 0 90.5 1
t65 2.5t48.5 4.5t41 7q36 7 58.5 22.5t34.5 36t16 45t4 50.5q0 64 -38.5 93.5t-109.5 29.5q-22 0 -45.5 -0.5t-46 -1.5t-43.5 -1.5t-37 -0.5q-26 0 -26 33q0 20 10 31t30 11q13 0 47.5 -2.5t77 -6.5t86.5 -9.5t78 -10.5q3 56 5 114.5t2 130.5z" />
    <glyph glyph-name="T" unicode="T" horiz-adv-x="581" 
d="M192 -16q26 2 52 5.5t52 8.5q0 93 2 180t9 168q38 7 80 7q19 0 38 -1t38 -3q10 49 14.5 104.5t7.5 116.5q-118 0 -235 -3t-234 -14q2 -57 8 -108t15 -99q32 5 68.5 7.5t71.5 4.5q1 -94 4 -187t9 -187zM14 311q-12 61 -19 128t-10 142q133 12 265.5 15.5t266.5 3.5l36 -40
q-4 -73 -10 -141.5t-19 -134.5q-20 1 -42.5 2t-46.5 1q-33 0 -64 -3q-6 -77 -7.5 -164t-1.5 -182q-40 -8 -72 -13t-58 -7l-71 64q-2 42 -4 80t-3.5 75t-2.5 74t-2 77q-21 -2 -44.5 -5t-49.5 -8z" />
    <glyph glyph-name="U" unicode="U" horiz-adv-x="649" 
d="M420 138q-36 -3 -72 -3q-31 0 -62.5 2t-63.5 5q-8 95 -14 198t-9 218q-48 0 -94 -1.5t-93 -6.5q8 -96 19.5 -201.5t23.5 -203.5q10 -77 41.5 -119.5t99.5 -42.5q29 0 60.5 0.5t61 1.5t54 2t39.5 2q32 2 52 13.5t32 33t18.5 54t11.5 77.5q10 87 17.5 177.5t13.5 183.5
q-55 0 -110 -9q-2 -101 -9 -195t-17 -186zM281 168q17 -1 34 -1.5t34 -0.5h21.5t21.5 1q9 89 15.5 182.5t8.5 196.5q42 7 84.5 9.5t88.5 2.5l36 -40q-3 -46 -7 -97t-8.5 -102t-9 -100.5t-9.5 -92.5q-6 -48 -14 -84.5t-23.5 -62t-40 -39.5t-62.5 -17q-15 -1 -40 -2t-54.5 -2
t-61.5 -1.5t-62 -0.5q-24 0 -41.5 3.5t-33 11t-30 18.5t-30.5 25q-31 26 -48 66.5t-25 99.5q-6 49 -12.5 105.5t-12.5 114t-11.5 113.5t-8.5 104q59 5 120.5 7.5t127.5 2.5l36 -40q3 -104 6.5 -198t10.5 -182z" />
    <glyph glyph-name="V" unicode="V" horiz-adv-x="644" 
d="M155 -17q-48 134 -93 273t-84 289q46 13 91 21t90 10l37 -40q11 -36 20.5 -67t19 -60t19 -57.5t21.5 -59.5q22 65 41.5 136t39.5 148q39 6 79.5 8.5t89.5 2.5q17 0 35 -0.5t38 -0.5l35 -40q-26 -78 -56 -163t-61.5 -169.5t-63.5 -165.5t-61 -151q-98 9 -177 33zM184 -6
q79 -23 153 -30q59 142 114 288t106 304q-35 0 -61 -0.5t-46 -1t-36.5 -2t-31.5 -3.5q-25 -98 -53 -190t-61 -180q-38 93 -69.5 183.5t-60.5 181.5q-32 -2 -62 -7t-60 -13q36 -136 78 -267.5t90 -262.5z" />
    <glyph glyph-name="W" unicode="W" horiz-adv-x="933" 
d="M597 566l36 -40q13 -50 21 -81t15 -61q8 39 15.5 78.5t14.5 77.5q41 9 87.5 13t98.5 6l35 -41q-41 -178 -86.5 -330t-94.5 -290q-47 4 -90 12t-85 20l-40 35l-34 146q-21 -45 -41 -93t-40 -99q-14 0 -32.5 0.5t-38.5 1.5t-40.5 3.5t-39.5 5.5l-39 36q-32 67 -65 144.5
t-66 158t-64.5 160t-59.5 150.5l272 -10l35 -41q16 -87 31 -155q15 94 27 204zM356 546q-11 -97 -25.5 -186t-31.5 -176q-27 85 -49.5 172t-39.5 183l-201 10q57 -143 112.5 -281.5t118.5 -275.5q26 -5 57.5 -6t54.5 -1q30 75 61 144t63 129q22 -63 39.5 -131t34.5 -137
q66 -19 131 -24q48 131 89.5 269.5t76.5 292.5q-31 -1 -61.5 -4t-60.5 -10q-14 -84 -33.5 -169t-45.5 -175q-15 95 -32.5 186.5t-40.5 180.5z" />
    <glyph glyph-name="X" unicode="X" horiz-adv-x="643" 
d="M319 61q-17 -29 -36 -61.5t-34 -61.5q-50 -11 -114.5 -18t-130.5 -13l-37 42q59 88 107.5 157t96.5 127q-51 72 -102 157t-105 182q50 5 95 7.5t82 2.5h11.5t15.5 -0.5t15.5 -1t11.5 -0.5l36 -40q13 -28 25.5 -53.5t23.5 -48.5q19 31 35 62.5t31 68.5q17 2 43 3t43 1
q36 0 83 -3t101 -8l31 -41q-54 -78 -106.5 -149.5t-106.5 -129.5q21 -35 44 -73.5t46.5 -78t46.5 -77.5t43 -71q-53 -14 -102 -21.5t-99 -9.5l-39 36zM393 -22q38 2 72.5 6.5t67.5 13.5l-172 286q57 61 106 124t94 128q-32 3 -64 5t-65 2q-32 0 -65 -3q-40 -92 -96 -172
q-26 43 -50 89t-47 94q-8 1 -16.5 1h-16.5q-32 0 -63.5 -2t-63.5 -5q46 -83 94 -161t101 -151q-45 -54 -91.5 -119.5t-94.5 -135.5q43 4 85 9t85 14q26 48 52.5 92.5t52.5 86.5z" />
    <glyph glyph-name="Y" unicode="Y" horiz-adv-x="567" 
d="M161 -23q35 2 70 4.5t68 8.5q-4 39 -5 79t-1 82q52 98 99 198.5t90 206.5q-37 5 -73.5 8t-74.5 3q-26 -67 -59 -129t-71 -120q-17 61 -32.5 123t-27.5 131q-33 5 -66 7t-65 4q34 -109 73 -213t83 -206q-5 -45 -6.5 -92t-1.5 -95zM131 -39q0 22 0.5 48l1 52t2 51.5
t3.5 46.5q-42 99 -83.5 212t-83.5 245q51 -2 101 -6.5t98 -10.5l35 -40q6 -37 13 -70t15 -65q22 40 42.5 84t38.5 89q48 0 101.5 -4t109.5 -12l34 -39q-51 -125 -100.5 -233t-99.5 -204q0 -40 2 -83t7 -92q-55 -11 -94 -14t-74 -5z" />
    <glyph glyph-name="Z" unicode="Z" horiz-adv-x="598" 
d="M42 -29q114 4 227 10t222 17q0 45 -1 87t-4 82q-77 -14 -156.5 -23.5t-164.5 -14.5q82 66 168.5 124t175.5 115q-6 48 -16 94t-25 92q-38 2 -75 3t-75 1q-71 0 -140.5 -2.5t-140.5 -5.5q-5 -52 -7.5 -107.5t-2.5 -114.5q75 6 148 8.5t146 2.5q-73 -46 -143.5 -103
t-141.5 -119q0 -42 2 -77t4 -69zM12 -32q-3 34 -5 72t-2 91l82 70t82 67q-34 -2 -67 -4t-65 -4l-40 36q0 77 3.5 147.5t8.5 134.5q35 2 74.5 3.5t80 3t80 2.5t74.5 1q38 0 86 -1t86 -3l36 -40q20 -60 32 -116t19 -112q-34 -22 -61.5 -39t-52.5 -32.5t-48.5 -31t-49.5 -33.5
q38 5 76 10.5t73 11.5l36 -41q5 -56 6 -111.5t1 -115.5q-54 -6 -114 -10.5t-121.5 -8t-123 -6t-117.5 -4.5z" />
    <glyph glyph-name="bracketleft" unicode="[" horiz-adv-x="314" 
d="M219 -111q2 14 3 31t1 37q0 5 -0.5 10.5t-0.5 12.5q-37 0 -70 15q3 150 9.5 295.5t18.5 288.5h18t19 -1q5 24 7.5 51t3.5 59q-38 -2 -76 -9t-77 -17q1 -193 7 -386t14 -392q8 -1 15.5 -1h15.5q45 0 92 6zM243 511q-10 -127 -15.5 -247.5t-9.5 -252.5l34 -2l36 -40
q1 -11 1 -21v-20q0 -26 -2 -51.5t-4 -51.5q-41 -5 -68 -6.5t-50 -1.5q-4 0 -12 0.5t-17 1t-17 1t-12 0.5l-40 35q-5 99 -9 205t-7 213t-4.5 211.5t-1.5 200.5q49 14 101.5 23t112.5 12l36 -40q-2 -48 -6 -89t-12 -79h-17t-17 -1z" />
    <glyph glyph-name="backslash" unicode="\" horiz-adv-x="322" 
d="M247 5q-32 137 -60.5 276t-50.5 284q-31 10 -62.5 13t-62.5 4q35 -153 78.5 -300.5t92.5 -294.5zM162 -51q-54 160 -101.5 323.5t-88.5 340.5q49 -1 97.5 -6t94.5 -20l36 -39q24 -159 54 -307.5t64 -292.5l-116 -34z" />
    <glyph glyph-name="bracketright" unicode="]" horiz-adv-x="318" 
d="M135 -108q20 206 32.5 414.5t12.5 431.5l-158 -4l11 -109l42 -8q6 -74 8.5 -145.5t2.5 -142.5q0 -91 -3.5 -178t-7.5 -174l-43 3l4 -101zM4 600l-15 163l222 6l35 -41q0 -239 -13 -461.5t-34 -437.5l-153 -21l-40 36l-5 167l45 -1q4 78 6.5 157.5t2.5 161.5v60.5t-1 56.5
l-2 56t-3 60z" />
    <glyph glyph-name="asciicircum" unicode="^" horiz-adv-x="490" 
d="M159 96q-47 16 -90.5 42t-75.5 64q35 110 74.5 211.5t85.5 195.5l87 -13l36 -40q38 -92 83.5 -184t96.5 -187q-21 -29 -53 -52.5t-61 -40.5l-39 35q-24 51 -44.5 92.5t-38.5 85.5q-15 -48 -30.5 -101.5t-30.5 -107.5zM171 576q-82 -167 -144 -368q11 -13 33.5 -22
t41.5 -15q21 77 44.5 154.5t46.5 140.5q25 -74 57 -147t67 -148q17 10 37 23.5t31 29.5q-47 87 -88.5 172t-78.5 172z" />
    <glyph glyph-name="underscore" unicode="_" horiz-adv-x="434" 
d="M356 -48q-86 5 -174.5 5.5t-179.5 0.5q1 -24 2 -44t3 -38q55 2 109 3t109 1h63t63 -2zM423 -59l-8 -131q-15 1 -35 2t-40.5 1.5t-40.5 0.5h-36q-27 0 -58.5 -0.5t-63.5 -1.5t-63.5 -1.5t-58.5 -1.5l-40 36q-1 9 -2 28t-2.5 40.5t-2.5 42.5t-1 33q45 0 99.5 -0.5t111 -1.5
t110 -2.5t95.5 -3.5z" />
    <glyph glyph-name="grave" unicode="`" horiz-adv-x="363" 
d="M58 760q16 -7 36.5 -18.5t43 -25t46 -29t44.5 -31.5q14 11 26 24t23 30q-42 37 -87 73t-83 55q-14 -14 -27 -33.5t-22 -44.5zM22 738q17 51 36.5 82.5t42.5 54.5q51 -25 112.5 -75t136.5 -123q-20 -34 -42.5 -53t-42.5 -37q-50 37 -109 74.5t-134 76.5z" />
    <glyph glyph-name="a" unicode="a" horiz-adv-x="634" 
d="M379 569q42 -4 77.5 -19t70.5 -50q38 -38 55 -80.5t17 -100.5q0 -35 -2.5 -71.5t-5.5 -72.5t-5.5 -71t-2.5 -66q0 -28 4.5 -53t21.5 -64q-27 -6 -51 -6q-35 0 -60.5 10t-39.5 24q-18 -17 -44.5 -23t-76.5 -6q-49 0 -86.5 4t-67.5 12.5t-55 22t-49 32.5q-28 22 -45.5 43
t-27.5 41t-13.5 39.5t-3.5 37.5q0 102 62 149q-1 5 -1 17.5v41.5q0 49 5.5 103.5t15.5 112.5q23 1 46 1.5t46 0.5q55 0 110 -2.5t106 -6.5zM531 -19q-14 33 -14 95q0 66 8 139t8 142q0 89 -38.5 133t-116.5 49q-41 2 -103.5 5t-126.5 3q-14 0 -26 -0.5t-25 -0.5
q-17 -94 -17 -186q0 -6 0.5 -11.5t0.5 -11.5q30 2 63.5 2.5t66.5 0.5q75 0 122.5 -2.5t75 -10t38 -22.5t10.5 -39q0 -8 -1.5 -16.5t-3.5 -16.5q-8 22 -26 34.5t-42 17.5q-52 10 -108 16t-98 6q-80 0 -119 -41t-39 -114q0 -69 48 -108q25 -21 62.5 -32.5t73.5 -17t63 -7
t32 -1.5q56 0 81.5 10.5t40.5 37.5q13 -27 39 -40t71 -13zM392 121q-23 0 -57.5 2.5t-69.5 6t-66.5 7.5t-48.5 7q-29 4 -29 30q0 50 26 50q16 0 49 -3t70 -6.5t73 -8t59 -7.5q14 -2 18.5 -14t4.5 -30q0 -20 -7.5 -27t-21.5 -7z" />
    <glyph glyph-name="b" unicode="b" horiz-adv-x="653" 
d="M393 206q12 -1 16.5 -10t4.5 -21q0 -15 -7.5 -24t-20.5 -9q-4 0 -21 1t-40.5 2t-52 2.5t-56 3t-52 3t-40.5 2.5q-2 13 -2.5 31t-0.5 38q71 -4 136.5 -9t135.5 -10zM181 371q56 -1 115.5 -4.5t105.5 -7.5q21 -2 28 -13.5t7 -25.5q0 -38 -48 -38q-54 0 -108 6.5t-107 11.5
q2 21 3.5 40.5t3.5 30.5zM15 30q88 -14 177 -23t180 -9q39 0 67.5 14.5t48 38.5t29 55t9.5 63q0 41 -14.5 64t-41.5 37q32 17 50 55.5t18 97.5t-28 90.5t-91 36.5t-157 10.5t-219 15.5q-14 -137 -20 -273t-8 -273zM-15 30q2 138 8.5 281t22.5 298q40 -3 82 -6.5t81 -6.5
t74.5 -5.5t62.5 -3.5l105 -6q38 -4 71.5 -20t58 -41.5t39 -60t14.5 -74.5q0 -49 -13.5 -87.5t-35.5 -64.5q18 -18 27.5 -42.5t9.5 -59.5q0 -38 -11.5 -73.5t-34 -63.5t-57 -44.5t-79.5 -16.5q-91 0 -181 8.5t-180 23.5z" />
    <glyph glyph-name="c" unicode="c" horiz-adv-x="653" 
d="M430 208q51 -42 82 -68.5t48.5 -45t24 -33.5t9.5 -34q-14 -34 -41 -53t-64.5 -28.5t-83.5 -11.5t-97 -2q-53 0 -87 0.5t-58.5 6t-44.5 17t-45 33.5q-20 18 -35 36t-24.5 39.5t-14.5 49.5t-5 65q0 24 1 53.5t2.5 61.5t4 65t4.5 64q7 91 56 138.5t144 47.5q28 0 63.5 -1.5
t70 -3.5t64 -5t46.5 -6q25 -5 44.5 -11.5t36 -17t32.5 -25t34 -34.5q31 -34 39 -87q-52 -100 -164 -202l-40 33l-8 63q-63 10 -117.5 17t-120.5 13q-2 -30 -2.5 -59t-0.5 -59v-44q54 -5 105 -9.5t104 -6.5q7 5 17 15t21 29zM531 75q-19 20 -42.5 44.5t-52.5 46.5
q-6 -8 -15 -17.5t-18 -15.5q-66 2 -138.5 9t-146.5 15q-1 26 -1 52.5v52.5q0 38 1 75t6 74q77 -8 154 -17.5t156 -23.5q18 -21 22 -58q67 61 113 148q-6 41 -36.5 67t-87.5 36q-16 3 -44.5 5.5t-62.5 5t-69 4t-63 1.5q-81 0 -122.5 -40.5t-47.5 -117.5q-5 -62 -8.5 -128
t-3.5 -114q0 -57 14.5 -96t46.5 -59q12 -8 24.5 -13t34.5 -8t56.5 -4t88.5 -1q43 0 82.5 2t71 9.5t54.5 23t34 42.5z" />
    <glyph glyph-name="d" unicode="d" horiz-adv-x="702" 
d="M25 600q35 2 81.5 4.5t96 4.5t96.5 3t83 1q43 0 76 -3t59 -11t46.5 -21.5t38.5 -35.5q17 -20 29 -36t20 -34t11.5 -40t3.5 -55q-2 -60 -10 -125t-19 -125l-3 -16q-17 -97 -58.5 -140t-115.5 -43q-21 0 -54.5 1.5t-72 4t-80.5 6.5t-81.5 8t-73 8t-56.5 8l-40 36zM33 25
q29 -5 81.5 -10.5t110 -10t111 -7.5t86.5 -3q62 0 97 37.5t50 123.5q11 63 21 130t10 130q0 58 -17.5 91.5t-47.5 50.5t-69.5 21.5t-83.5 4.5q-36 0 -78.5 -1t-86 -2.5t-85.5 -3.5t-77 -4zM443 364q0 -88 -8 -153.5t-19 -116.5q-81 1 -155.5 5t-146.5 15q4 57 9.5 115
t13.5 116q63 10 128 15t128 5h25t25 -1zM200 282q-5 -42 -9 -75t-8 -71q101 -11 208 -12q7 40 13 84t8 91q-51 -1 -104.5 -5t-107.5 -12z" />
    <glyph glyph-name="e" unicode="e" horiz-adv-x="644" 
d="M136 302q0 4 -0.5 7t-0.5 6q0 29 12.5 46t38.5 17q16 0 47.5 -3t65 -7t63 -8.5t41.5 -6.5t18 -10.5t6 -27.5q0 -18 -9.5 -25t-25.5 -7q-18 0 -49.5 2t-68 5t-73.5 6.5t-65 5.5zM453 -7q9 33 14.5 71t9.5 73q-29 0 -64.5 1t-70.5 2.5t-67.5 3.5t-55.5 4q-22 2 -30.5 17
t-8.5 38v8.5t1 8.5q18 -3 43 -6.5t52.5 -7.5t54.5 -6.5t50 -2.5q47 0 78.5 16.5t50 44.5t26.5 63.5t8 74.5q0 83 -37.5 122.5t-116.5 46.5q-40 3 -74 5t-64 2q-69 0 -113 -15.5t-69 -49.5t-34 -88t-9 -130q0 -45 5.5 -86.5t20 -75.5t39.5 -58t65 -33q70 -17 147.5 -26
t148.5 -17zM77 41q-46 42 -63.5 106.5t-17.5 141.5q0 85 10.5 144.5t39 97t78.5 55t128 17.5q29 0 66 -2t74 -6q32 -4 55 -10.5t42 -18t35.5 -27.5t36.5 -38q23 -26 36 -58t13 -85q0 -64 -20 -119.5t-71 -84.5l27 -27q-5 -48 -12.5 -101t-21.5 -101l-40 4q-69 7 -141.5 15.5
t-141.5 25.5q-17 4 -29.5 9.5t-25 13.5t-26 19.5t-31.5 28.5z" />
    <glyph glyph-name="f" unicode="f" horiz-adv-x="562" 
d="M148 193q64 -8 126 -13t129 -7q19 32 29 70q-43 2 -78.5 5t-69 6t-68.5 7.5t-76 9.5q0 7 1 17t2 20.5t2.5 19.5t2.5 14q60 4 109 6.5t101 2.5q20 0 40 -0.5t43 -1.5q14 57 21.5 114t12.5 122q-103 -4 -203 -10.5t-200 -20.5q-17 -121 -31.5 -261t-24.5 -279q29 -5 57 -7
l56 -4q3 51 7 95.5t12 94.5zM396 285h-23h-16.5t-15 -0.5t-17.5 -1.5q38 -5 70.5 -7.5t76.5 -4.5l35 -41q-22 -79 -49 -124q-69 2 -129 6.5t-118 11.5q-6 -43 -9 -89.5t-8 -98.5q-45 2 -87 5.5t-82 9.5l-40 37q5 69 11.5 148t14.5 157.5t17 153t18 134.5q114 15 228.5 23
t233.5 13l36 -40q-6 -81 -15.5 -151.5t-26.5 -141.5q-44 0 -66 0.5t-39 0.5z" />
    <glyph glyph-name="g" unicode="g" horiz-adv-x="656" 
d="M571 340l39 -40q-14 -93 -21.5 -186t-11.5 -180q-35 -6 -67 -8t-60 -2l-40 37q-32 -21 -85 -21q-50 0 -85.5 2.5t-63.5 10t-51 21t-47 34.5q-18 16 -31 30t-22 32.5t-13 43.5t-4 63v114t1 82t2.5 56.5t4 38.5t6 27t8.5 22q21 47 67 68t118 21h49.5h57t54 -0.5t39.5 -1.5
q39 -2 74 -19t63 -45t47.5 -63.5t28.5 -75.5zM415 -10q55 0 97 6q3 78 9.5 158t17.5 153q-67 -6 -125.5 -9t-126.5 -4q-5 -22 -7 -47.5t-3 -52.5q39 2 69.5 3.5t68.5 7.5q-5 -70 -57 -70q-27 0 -60 1.5t-65.5 3.5t-60 4t-43.5 4q-3 43 -3 92q0 29 0.5 61t1.5 69
q72 0 142.5 -0.5t138.5 -2.5q5 -8 9 -22t7 -26q35 25 68.5 57t65.5 70q-11 54 -44.5 88t-100.5 38q-17 1 -42.5 2t-53 1.5t-55 0.5h-48.5q-64 0 -102 -16t-55 -55q-7 -15 -11 -31.5t-6 -49.5t-2.5 -91t-0.5 -156q0 -55 17 -88.5t49.5 -52t78.5 -24.5t104 -6q47 0 71 18.5
t27 59.5q8 -20 16 -45.5t14 -48.5zM193 173q12 -2 25.5 -2.5t27.5 -1.5q2 71 12 135h-65v-131z" />
    <glyph glyph-name="h" unicode="h" horiz-adv-x="619" 
d="M306 -19q4 45 7 73.5t4.5 47.5t2.5 31.5t2 24.5h-86q-8 -55 -12.5 -111t-9.5 -115q-35 0 -72.5 2.5t-75.5 10.5l-40 36q-2 67 -5.5 144.5t-8 158.5t-10.5 162t-12 156q42 5 75.5 7t64.5 2q10 0 25 -0.5t31.5 -1t32 -1.5t27.5 -2l35 -40q1 -23 2 -47.5t2 -49.5t2 -48
t2 -41l74 -6q7 50 11 112.5t5 118.5q44 0 88 -4t92 -17l36 -39q-6 -71 -14 -148t-17 -153t-19 -149t-20 -136q-49 -8 -90.5 -11t-88.5 -3zM340 11q32 0 61 2t61 7q20 128 36.5 263t28.5 279q-26 7 -59 9t-59 4q-1 -27 -2.5 -57.5t-4 -61t-5.5 -60t-7 -53.5q-42 2 -82.5 5
t-81.5 8q-2 49 -5 102.5t-5 119.5q-47 3 -86 3q-52 0 -107 -6q12 -151 19.5 -292.5t12.5 -276.5q23 -5 47.5 -6.5t47.5 -1.5q6 54 11 112.5t13 112.5q23 1 48.5 1h51.5h40.5t40.5 -1q-2 -56 -6 -108t-9 -104z" />
    <glyph glyph-name="i" unicode="i" horiz-adv-x="260" 
d="M-13 -12q4 78 6 159.5t2 155.5q0 69 -1.5 141.5t-1.5 163.5q52 0 103.5 -3.5t109.5 -20.5l35 -39q-8 -70 -17.5 -151t-20 -163t-21 -160t-19.5 -142q-34 0 -63 2t-49 7zM18 3q38 -8 82 -8q9 64 19 134.5t19 144t17.5 147t16.5 142.5q-35 11 -72.5 13t-76.5 2
q0 -70 1 -138t1 -137q0 -74 -1.5 -148t-5.5 -152z" />
    <glyph glyph-name="j" unicode="j" horiz-adv-x="518" 
d="M-22 -10q-2 18 -2 36v36q0 31 1.5 62.5t5.5 65.5q66 -8 131.5 -14t131.5 -8q-1 103 -7.5 206.5t-14.5 209.5q61 10 123.5 12t114.5 2l35 -40q-10 -221 -27 -351t-33 -172q-19 -49 -57.5 -73t-89.5 -26q-26 -1 -45.5 -1.5l-39 -1t-42.5 -0.5h-55h-30.5t-32.5 1zM8 0
q17 -1 32 -1.5t30 -0.5q48 0 94 1.5t88 2.5t73 20t47 61q6 17 13 51.5t13.5 78.5t12.5 94.5t10.5 98.5t7 90.5t2.5 71.5q-41 0 -88.5 -1.5t-85.5 -7.5q4 -56 7.5 -108.5t6 -103.5t4.5 -103t2 -107q-66 2 -132.5 6.5t-134.5 12.5q-2 -20 -3 -41t-1 -42q0 -18 0.5 -36.5
t1.5 -36.5z" />
    <glyph glyph-name="k" unicode="k" horiz-adv-x="675" 
d="M288 462q32 41 62.5 84.5t59.5 89.5q51 -5 110.5 -12t145.5 -22l29 -36q-30 -33 -64.5 -73t-70.5 -80.5t-72 -79t-68 -70.5q22 -36 44.5 -70t47 -68.5t51.5 -70.5t58 -75q-59 -22 -120 -34t-140 -14q-21 37 -36.5 64.5t-26.5 49.5l-20 40t-16 35q-28 -21 -52 -43l12 -157
q-38 1 -72 4t-69 9l-40 36q-8 70 -16.5 151t-16 164t-14 164.5t-10.5 151.5q53 11 101 16.5t92 5.5q29 0 49 -0.5t35 -2.5l35 -41zM359 -5q48 4 93 12.5t85 22.5q-54 68 -99 133t-92 142q65 64 132.5 137t127.5 140q-45 8 -89.5 13t-90.5 9q-44 -69 -98.5 -140t-106.5 -131
q0 51 0.5 89t1 68t2 53.5t3.5 46.5q-13 1 -25.5 1h-25.5q-41 0 -81.5 -4t-79.5 -12q8 -141 22.5 -290.5t30.5 -289.5q21 -5 41.5 -6.5t43.5 -2.5q-1 13 -2.5 30t-3 36t-3 38.5t-1.5 37.5q28 25 56 46t57 38q24 -60 47.5 -111.5t54.5 -105.5z" />
    <glyph glyph-name="l" unicode="l" horiz-adv-x="534" 
d="M-8 -32q0 148 -2.5 311.5t-8.5 318.5q63 9 136.5 13.5t140.5 4.5l35 -40q-12 -100 -26 -206t-31 -209q51 2 108 7.5t117 15.5l36 -40q7 -39 11 -73t4 -72v-60q-52 -3 -109.5 -6t-116 -5t-116 -3t-109.5 -1zM23 -10q105 0 212.5 3.5t210.5 9.5v34q0 37 -2.5 61.5
t-7.5 50.5q-69 -11 -143 -15t-135 -4q19 112 35.5 228.5t30.5 227.5q-50 0 -105.5 -3.5t-106.5 -10.5q6 -154 8 -294.5t3 -287.5z" />
    <glyph glyph-name="m" unicode="m" horiz-adv-x="760" 
d="M7 -33q0 72 -1.5 154.5t-3.5 166.5t-5.5 165t-6.5 150q52 -2 87.5 -13t55.5 -28q14 18 31 27.5t40 14t54 5t73 0.5q45 0 93 -0.5t88 -1.5q26 0 46.5 -5t38 -14t32.5 -22.5t31 -31.5q31 -35 46 -70.5t15 -94.5q0 -111 -3.5 -222t-13.5 -226q-62 4 -113 8.5t-93 9.5l-40 35
q1 30 3 65t3.5 71t2.5 71t1 66v22v35t-1 35l-35 2q-1 -90 -7 -191t-16 -198h-31q-24 0 -52 2t-66 6l-40 35q3 54 5 120.5t2 122.5v40t-1 31q-14 0 -29 -3q-1 -87 -5 -177t-12 -184q-15 -3 -32.5 -5.5t-35.5 -4t-35 -2.5t-30 -2zM641 -11q8 94 11 200.5t3 217.5q0 82 -37 125
t-106 45q-41 1 -88.5 1h-92.5h-90q-86 -4 -103 -74q-28 63 -116 68q7 -138 11 -284t4 -290q17 0 40 2t39 5q8 91 11.5 182t3.5 181q34 5 62.5 7t61.5 2q1 -40 1.5 -71t0.5 -68q0 -56 -1.5 -109t-3.5 -106q20 -2 45 -3t48 -2q10 94 15.5 196t5.5 192q38 0 67.5 -1.5
t60.5 -6.5q2 -34 3 -76t1 -75q0 -62 -2.5 -123t-5.5 -122q42 -5 75.5 -8t75.5 -5z" />
    <glyph glyph-name="n" unicode="n" horiz-adv-x="628" 
d="M321 -8q6 48 10.5 87.5t8.5 75.5t6.5 70t5.5 70l-134 3q-12 -73 -21 -163t-17 -190q-26 -5 -65 -8t-91 -3l-40 36q1 70 2.5 155t3 173t2 173t0.5 155q57 -12 94 -27t54 -37q22 21 45 29.5t49 8.5q35 0 70.5 -1t77.5 -3q57 -3 94 -24t61 -50q16 -19 26.5 -35t17 -34
t9.5 -39t3 -49q0 -39 -2.5 -93.5t-7 -114.5t-10.5 -121.5t-14 -115.5q-23 1 -48 3.5t-48 6t-43.5 8t-35.5 10.5zM356 12q28 -11 67.5 -17t73.5 -8q7 48 12.5 104t9.5 112.5t6 108.5t2 91q0 78 -35.5 119t-110.5 44q-36 2 -74.5 3t-72.5 1q-29 0 -53.5 -15t-45.5 -47
q-15 61 -113 81q0 -70 -0.5 -144.5t-1.5 -150t-2.5 -150t-2.5 -144.5q31 0 56.5 2.5t43.5 5.5q8 96 17.5 185t24.5 171q63 -1 119 -2.5t110 -5.5q-6 -91 -13.5 -174.5t-16.5 -169.5z" />
    <glyph glyph-name="o" unicode="o" horiz-adv-x="675" 
d="M430 369q8 -67 10.5 -130.5t4.5 -126.5q-36 0 -75 1t-77 2.5t-73 3t-62 3.5q1 58 3.5 115.5t9.5 114.5q68 10 130 13t129 4zM406 -5q59 0 94.5 41.5t44.5 125.5q9 91 16 154.5t7 86.5q0 70 -36 110t-107 48q-62 7 -124.5 10.5t-123.5 3.5q-54 0 -84.5 -26.5t-45.5 -67
t-19 -88.5t-4 -90t0.5 -72.5t2.5 -53.5t7 -41t13 -36q20 -44 54 -63t82 -26q19 -3 45.5 -6t56.5 -5t61.5 -3.5t59.5 -1.5zM72 19q-48 42 -62.5 100t-14.5 131q0 32 0.5 69t2.5 74q2 38 13 76t32.5 68.5t54.5 49.5t79 19q63 0 126 -4t125 -11q56 -6 91.5 -28t58.5 -52
q16 -20 26.5 -36t17 -32t9.5 -34.5t3 -43.5q0 -23 -6 -84t-17 -160q-11 -94 -51 -142.5t-117 -48.5q-29 0 -60.5 1t-61.5 3.5t-57.5 5t-46.5 5.5q-18 3 -35 7.5t-34.5 13t-36 21.5t-39.5 32zM415 143q-2 38 -3.5 77.5t-5.5 81.5q-43 -2 -85 -5t-87 -8q-4 -35 -5.5 -70.5
t-3.5 -70.5q44 -2 91 -3.5t99 -1.5z" />
    <glyph glyph-name="p" unicode="p" horiz-adv-x="614" 
d="M27 607q33 1 71 2.5t78 2.5t79.5 1.5t75.5 0.5q34 0 61.5 -3t49.5 -11t40.5 -21.5t35.5 -34.5q18 -22 31 -40t22 -39.5t13 -49t4 -67.5q0 -25 -2 -54.5t-7.5 -59t-17 -57t-30 -49t-46 -34.5t-65.5 -13t-88 7t-101 15q-5 -33 -11 -72t-10 -86q-23 -2 -32 -2.5t-15 -0.5
q-32 0 -68 4t-69 10l-40 36zM17 18q25 -4 53 -7t55 -3h21q4 42 10.5 85t14.5 80q27 -5 55 -9.5t56 -8t53.5 -6t46.5 -2.5q48 0 75.5 25t42 61.5t18.5 78t4 74.5q0 66 -16 105t-42 59.5t-61 27t-72 6.5q-73 0 -140.5 -2t-135.5 -4zM134 359q17 0 51.5 -1.5t73 -3.5t74.5 -4
t56 -3q22 -1 30 -13t8 -35q0 -21 -12 -33t-28 -12q-17 0 -50.5 3.5t-72.5 8.5t-77 10.5t-63 10.5q2 17 4.5 37.5t5.5 34.5z" />
    <glyph glyph-name="q" unicode="q" horiz-adv-x="651" 
d="M300 -55q-40 0 -76.5 3t-70 13.5t-63.5 30t-57 53.5q-14 18 -23 37.5t-13.5 47.5t-6 66t-1.5 93v70.5t2 52.5q7 87 51.5 140t122.5 53q29 0 63.5 -1t94.5 -4l98 -5q41 -5 73 -21t60 -48q18 -21 31 -40.5t21.5 -39.5t12 -42t3.5 -49q0 -83 -1 -134.5t-4 -84.5t-8.5 -52.5
t-14.5 -38.5q-14 -30 -32 -49.5t-47 -28.5l25 -31q-26 -38 -58.5 -71.5t-72.5 -65.5l-39 34q-18 27 -36 55.5t-34 56.5zM425 23q40 2 64.5 20.5t41.5 52.5q8 16 13 34t7.5 49.5t3.5 82t1 131.5q0 83 -35.5 126t-101.5 46q-58 3 -97.5 4.5t-68 3t-49 2t-39.5 0.5
q-67 0 -103.5 -42t-40.5 -123q-1 -19 -1 -51.5v-69.5q0 -51 1 -87t5 -61.5t11.5 -43.5t19.5 -33q29 -35 87.5 -44t154.5 -9q18 -35 38.5 -69t40.5 -64q48 37 88 95zM256 124q-22 0 -53.5 3t-53.5 5q-2 18 -3 43t-1 52q0 29 1.5 61t3.5 57q12 0 24.5 0.5t24.5 0.5
q66 0 134.5 -4.5t122.5 -13.5q2 -21 2.5 -44.5t0.5 -46.5q0 -22 -0.5 -44t-1.5 -44q-1 -20 -16 -30.5t-50 -12.5q-14 35 -30 70t-33 70q-51 -32 -100 -86zM211 184q26 28 54 50.5t56 42.5q-19 1 -37 2t-38 1q-8 0 -16 -0.5t-16 -0.5q-2 -22 -2.5 -46t-0.5 -49zM425 147
q2 21 3 46.5t1 76.5q-20 2 -39.5 3.5t-40.5 3.5l29 -28z" />
    <glyph glyph-name="r" unicode="r" horiz-adv-x="686" 
d="M10 -12q-2 45 -3.5 95t-3 101.5t-2.5 103t-1 99.5q0 24 0.5 54t1 60.5t1 60.5t0.5 56q97 -5 163 -7.5t112 -5t76.5 -4t57.5 -2.5q62 -4 101 -24t67 -53q18 -22 31 -39.5t21 -36t11.5 -41t3.5 -53.5q0 -51 -7.5 -93.5t-27.5 -74.5t-54.5 -52t-89.5 -27l132 -158
q-58 -16 -115 -27.5t-102 -11.5l-64 42q-10 15 -20.5 36l-22 44t-22.5 47t-21 47q-4 -38 -6 -73t-2 -78q-38 -12 -85.5 -16.5t-89.5 -4.5zM345 -26q42 0 85.5 7.5t81.5 18.5q-74 85 -138 168q64 0 104.5 15.5t63.5 44.5t31 70t8 92q0 172 -171 179l-377 17q-3 -101 -3 -199
q0 -191 9 -369q30 0 63 2.5t57 10.5q2 44 4 81t7 78l66 3q10 -24 23.5 -53t28 -58.5t29 -57.5t28.5 -50zM120 349q40 0 85 -0.5t86.5 -1.5t75.5 -2t54 -2q22 -2 31.5 -9t9.5 -26q0 -24 -12 -34t-40 -10q-15 0 -34.5 1.5t-52 5t-80.5 9t-119 13.5q-2 11 -3 26t-1 30z" />
    <glyph glyph-name="s" unicode="s" horiz-adv-x="618" 
d="M549 600l35 -40q-2 -57 -6 -130.5t-11 -175.5l-59 10q19 -17 31.5 -32t20 -31.5t10.5 -35.5t3 -43q0 -53 -14.5 -89t-46.5 -58t-82.5 -32t-123.5 -10q-18 0 -45 1t-60.5 2.5t-71.5 3.5t-78 4l-40 36q5 53 10.5 106t16.5 107q14 -2 31 -5t36 -5q-30 20 -49.5 40t-31 41.5
t-16 45.5t-4.5 53q0 115 52.5 176t148.5 61h344zM205 570q-81 0 -126 -53.5t-45 -153.5q0 -74 40.5 -110.5t121.5 -41.5l150 -9q40 -4 40 -38q0 -23 -9 -32t-23 -9t-50 4t-79.5 9t-88 11t-74.5 11q-8 -35 -11.5 -73.5t-7.5 -76.5q81 -5 135.5 -7.5t89.5 -2.5q65 0 110.5 8.5
t74 27.5t41.5 50t13 76q0 63 -35.5 98t-107.5 35h-43t-49.5 -0.5t-49 -0.5h-40.5q-25 0 -25 30q0 46 41 46q13 0 49.5 -4.5t82 -11.5t92.5 -14.5t81 -13.5q4 57 8.5 115.5t6.5 130.5h-313z" />
    <glyph glyph-name="t" unicode="t" horiz-adv-x="579" 
d="M142 -17q-1 57 -1.5 99t-0.5 68v38.5v34t0.5 33.5t0.5 37q-23 -2 -46.5 -3.5t-46.5 -4.5l-40 36q-10 62 -14.5 138t-4.5 147q25 1 54 2.5t59.5 2.5t60 1.5t54.5 0.5q34 0 73 -0.5t78.5 -2t78.5 -3t73 -2.5l36 -40q-3 -73 -10 -136.5t-21 -126.5q-35 3 -68 5t-58 2h-12h-7
t-6.5 -0.5t-9.5 -0.5q-4 -40 -7.5 -86.5t-6 -95.5t-5 -97t-3.5 -91q-42 0 -86 2.5t-74 7.5zM172 11q21 -3 50 -5t55 -2q3 93 9 190t15 178q13 2 28 2h32q26 0 53.5 -1t50.5 -3q11 49 16.5 99t7.5 107q-137 6 -272 6q-51 0 -99.5 -1t-98.5 -3q0 -57 3.5 -116.5t11.5 -107.5
q32 4 68.5 5.5t71.5 1.5q-2 -57 -2.5 -108t-0.5 -103v-68t1 -71z" />
    <glyph glyph-name="u" unicode="u" horiz-adv-x="656" 
d="M274 174q36 0 61.5 1.5t47.5 3.5q12 90 21 198t14 214q42 6 87 7.5t90 1.5l36 -40q-4 -49 -9 -104t-10.5 -111.5t-11.5 -110.5t-12 -101q-11 -74 -24 -115t-43.5 -60.5t-85.5 -23.5t-148 -4q-44 0 -88.5 8.5t-81 34t-62.5 71t-33 120.5q-5 49 -10 103.5t-9.5 109.5
t-8 108.5t-6.5 101.5q16 1 36.5 2t41.5 2t41.5 1.5t35.5 0.5h19t25 -0.5t25 -1t20 -0.5l36 -40q0 -104 1 -196.5t5 -180.5zM410 152q-25 -4 -55 -6t-62 -2q-21 0 -41 1t-40 3q-5 96 -7.5 197.5t-2.5 216.5h-65t-48 -0.5t-37 -1t-32 -1.5q5 -97 13 -195t19 -197
q4 -42 12 -73.5t28 -53.5t57 -33t100 -11q85 0 135 4t77.5 21.5t39.5 53.5t21 100q6 43 11.5 93t11 101.5t10 102.5t8.5 98q-29 0 -58.5 -1t-57.5 -5q-2 -50 -5.5 -103.5t-8.5 -107t-10.5 -104.5t-12.5 -97z" />
    <glyph glyph-name="v" unicode="v" horiz-adv-x="644" 
d="M144 -8q-17 67 -38 143.5t-44 154.5t-46 154t-45 142q21 5 41 7.5t41 2.5q53 0 115 -12l37 -40q21 -57 39.5 -110t35.5 -106q22 63 43 130.5t41 138.5q31 3 63 3q44 0 88 -4.5t89 -10.5l35 -39q-63 -176 -127.5 -331t-130.5 -303q-44 2 -86 9.5t-87 12.5zM174 0
q38 -6 76.5 -12.5t73.5 -8.5q64 140 123 282.5t115 298.5q-30 5 -70.5 7t-104.5 2q-27 -97 -58 -191.5t-66 -181.5q-26 93 -54 181.5t-63 180.5q-21 4 -47.5 7t-50.5 3q-22 0 -40 -3q22 -66 44 -137.5t43 -144t41 -144.5t38 -139z" />
    <glyph glyph-name="w" unicode="w" horiz-adv-x="938" 
d="M587 591l36 -40q12 -51 20.5 -83.5t14.5 -65.5q9 37 17 74l16 74q41 9 91 13t100 4l34 -40q-21 -88 -43.5 -168.5t-46.5 -155.5t-49.5 -146t-51.5 -140q-45 5 -88 13t-87 22l-41 37q-6 38 -13 72t-15 63q-23 -47 -45 -96t-42 -100q-28 0 -70.5 2.5t-80.5 9.5l-39 36
q-29 77 -56 151.5t-55.5 148t-60 147t-68.5 149.5q69 17 130 27.5t124 14.5l37 -40q14 -50 24.5 -83t18.5 -64l21 150zM346 548q-12 -96 -27 -181.5t-35 -173.5q-7 45 -16.5 94t-21.5 99.5t-24.5 100.5t-25.5 95q-49 -3 -94.5 -10.5t-94.5 -20.5q63 -131 114.5 -266.5
t105.5 -282.5q26 -5 57.5 -6.5t53.5 -1.5q32 74 64.5 147t64.5 133q21 -65 38 -129.5t31 -133.5q34 -11 67 -17t65 -9q50 130 94 264.5t81 287.5q-31 0 -63.5 -2.5t-63.5 -9.5q-16 -84 -37 -165t-48 -171q-14 96 -30.5 188.5t-37.5 181.5z" />
    <glyph glyph-name="x" unicode="x" horiz-adv-x="650" 
d="M243 561q10 -28 20 -52t20 -47q17 31 36 60.5t41 58.5q40 5 76 8t74 3q30 0 62 -2t69 -6l31 -41q-36 -36 -66 -70t-59 -68.5t-59.5 -72.5t-66.5 -83q44 -70 83.5 -144.5t78.5 -159.5q-45 -9 -94.5 -18.5t-90.5 -9.5l-66 46q-6 26 -16.5 56.5t-21.5 55.5
q-23 -38 -49.5 -77.5t-52.5 -74.5q-23 6 -53.5 14.5t-62 20.5t-60.5 29t-50 39q63 71 109.5 133t82.5 116q-50 73 -99.5 150.5t-95.5 175.5q29 2 61 2.5t63 0.5q40 0 72 -0.5t47 -2.5zM360 -17q38 0 75.5 6.5t69.5 13.5q-66 145 -157 286q26 32 55 68l58 72t58 70t56 61
q-16 2 -32 3t-33 1q-33 0 -67 -3t-66 -8q-26 -37 -51.5 -79.5t-51.5 -89.5q-25 45 -47 91.5t-41 96.5q-19 1 -38 1.5t-38 0.5q-24 0 -48.5 -0.5t-50.5 -1.5q42 -84 88 -153.5t95 -144.5q-36 -58 -79.5 -117.5t-100.5 -122.5q31 -17 60.5 -25t67.5 -17q16 22 34 48.5
t35.5 53.5t33 53t26.5 47q26 -46 49 -101t40 -110z" />
    <glyph glyph-name="y" unicode="y" horiz-adv-x="566" 
d="M99 -15q4 19 7.5 43.5t6.5 50t5 51t3 48.5q-38 102 -74 220t-68 246q48 -5 106.5 -11t106.5 -15l34 -41q5 -40 10 -72t10 -61q24 38 46 78.5t42 86.5q52 -2 96.5 -9t100.5 -18l33 -42q-54 -118 -109 -220.5t-112 -198.5q3 -30 3 -61q0 -32 -2.5 -63.5t-6.5 -65.5
q-32 -3 -62 -3q-26 0 -53 1.5t-54 5.5zM133 1q23 -3 50.5 -5t56.5 -2q9 0 18 0.5t18 0.5q2 23 3 48t1 51q0 17 -0.5 35.5t-2.5 34.5q57 97 109 195t100 201q-36 7 -65.5 11.5t-67.5 6.5q-30 -66 -65.5 -126t-76.5 -115q-14 61 -26.5 123.5t-20.5 131.5q-33 6 -73 10.5
t-72 7.5q28 -111 60.5 -216.5t71.5 -209.5q-2 -49 -5.5 -93.5t-12.5 -89.5z" />
    <glyph glyph-name="z" unicode="z" horiz-adv-x="606" 
d="M494 3q5 44 8.5 86t3.5 83q-78 0 -170 -5t-177 -17q85 61 174.5 116.5t180.5 107.5q-4 48 -11 93t-21 92h-83q-86 0 -169 4t-166 13q-7 -52 -11.5 -107t-8.5 -113q46 -3 88 -5t85 -2q26 0 52 0.5t55 2.5q-76 -42 -148.5 -93t-146.5 -109q-3 -26 -3 -53q0 -23 2 -48t4 -51
q71 4 144.5 5.5t146.5 1.5h87.5t83.5 -2zM581 321q-35 -20 -62.5 -35.5t-51.5 -29t-47 -27t-49 -30.5q43 2 85 2.5t80 0.5l36 -40q0 -58 -3.5 -110.5t-10.5 -115.5q-61 2 -106.5 2.5t-90.5 0.5q-36 0 -77 -0.5t-82 -1.5t-81.5 -2.5t-75.5 -3.5l-40 36q-4 32 -6 64.5t-2 65.5
q0 17 0.5 34t1.5 34q42 33 81.5 63t78.5 57l-107 6l-40 36q2 29 5 67t6.5 77t7.5 75.5t7 62.5q98 -11 187 -15.5t174 -4.5h24t28.5 0.5t28.5 1t25 0.5l36 -41q17 -60 26 -115.5t14 -113.5z" />
    <glyph glyph-name="braceleft" unicode="{" horiz-adv-x="293" 
d="M-4 322q21 2 39.5 3.5t27.5 5.5q-16 38 -30 80.5t-14 102.5q0 85 42.5 132.5t113.5 47.5q26 0 49 -6l36 -40q0 -39 -1.5 -68t-6.5 -63q-25 0 -45.5 -14t-20.5 -44q0 -13 7 -36.5t15.5 -49.5t15.5 -50t7 -39q0 -17 -6.5 -32t-16.5 -26q26 -26 26 -61q0 -17 -5 -40
t-11.5 -48t-12 -50t-6.5 -44h23l36 -40q0 -9 -0.5 -26t-1 -35t-1 -34.5t-0.5 -25.5q-27 -5 -40 -5.5t-22 -0.5q-32 0 -56 15.5t-47 38.5q-34 34 -45.5 72t-11.5 75q0 35 8.5 71t22.5 75q-7 0 -13.5 0.5t-14.5 0.5l-40 35v123zM27 230q26 0 45.5 -5.5t39.5 -19.5
q-20 -54 -34.5 -100t-14.5 -88q0 -20 5 -44t16 -44t28.5 -33.5t42.5 -13.5h18.5t16.5 1q1 17 1.5 34t0.5 36q-2 0 -4.5 -0.5t-4.5 -0.5q-50 0 -50 60q0 22 5.5 49t12 53t12 49.5t5.5 39.5q0 26 -18 43.5t-37 19.5q22 3 37 17.5t15 38.5q0 13 -7 36.5t-15.5 49.5t-15.5 50
t-7 39q0 45 22 65.5t48 20.5q2 19 3 36t1 43q-4 1 -9 1h-10q-57 0 -91.5 -39t-34.5 -110q0 -33 5.5 -60.5t13 -51t16.5 -44.5t17 -40q-17 -13 -35.5 -18.5t-38.5 -6.5v-63z" />
    <glyph glyph-name="bar" unicode="|" horiz-adv-x="287" 
d="M66 -115q20 2 41 3.5t38 6.5v687l-79 12v-709zM36 629l139 -20l36 -40v-733q-33 -10 -66.5 -12.5t-68.5 -4.5l-40 35v775z" />
    <glyph glyph-name="braceright" unicode="}" horiz-adv-x="293" 
d="M194 315q-25 0 -45 5.5t-40 19.5q20 54 34.5 100t14.5 88q0 20 -5 43.5t-16 44t-28.5 34t-41.5 13.5h-19t-17 -1q-1 -18 -1 -35v-36q2 0 4 0.5t4 0.5q27 0 39 -14.5t12 -44.5q0 -23 -5.5 -50t-12.5 -53t-12.5 -49.5t-5.5 -39.5q0 -25 18 -43t37 -20q-21 -2 -36.5 -16.5
t-15.5 -39.5q0 -13 7 -36t15.5 -49t15.5 -50t7 -39q0 -45 -21.5 -66t-47.5 -21q-4 -18 -4.5 -35.5t-0.5 -42.5q5 0 9 -0.5t9 -0.5q58 0 92.5 39t34.5 110q0 33 -5.5 60.5t-13 51t-17 43.5t-16.5 40q17 13 35.5 18.5t38.5 7.5v63zM260 305v-118q-23 -1 -40.5 -3.5t-26.5 -7.5
v-4l2 -1q15 -35 29 -76.5t14 -101.5q0 -84 -42 -130.5t-113 -46.5q-7 0 -20 1t-27 3l-40 36q0 19 0.5 36t1.5 33t3.5 32t5.5 35q24 0 43.5 13.5t19.5 42.5q0 12 -6 36t-15 48q-11 30 -17 53.5t-6 36.5q0 34 21 58q-11 12 -17.5 27.5t-6.5 33.5t5 41t11.5 47.5t12 49.5
t6.5 46h-19l-40 36q0 7 -0.5 16.5t-0.5 20.5q0 20 0.5 43t2.5 46q31 5 44 6t22 1q29 0 53.5 -15.5t56.5 -53.5q23 -27 35 -65t12 -70q0 -35 -8.5 -70.5t-21.5 -73.5l30 -1z" />
    <glyph glyph-name="asciitilde" unicode="~" horiz-adv-x="490" 
d="M321 324q10 -13 10 -28q0 -10 -7 -16.5t-22 -6.5q-20 0 -48 7.5t-57.5 16.5t-55.5 16.5t-42 7.5q-42 0 -62 -21.5t-20 -69.5q32 -20 70 -26q-1 6 -1.5 11.5t-0.5 10.5q0 24 22 24q14 0 40.5 -6.5t57.5 -14.5t64 -14.5t60 -6.5q12 0 24 4t22.5 12t17 20.5t6.5 29.5
q0 7 -2 14.5t-4 15.5q-14 7 -32 11.5t-40 8.5zM299 303q0 16 -4.5 28.5t-12.5 26.5q28 -3 48 -6.5t36 -7.5t28.5 -8.5t24.5 -10.5q19 -14 32.5 -37.5t13.5 -51.5q0 -24 -9.5 -42t-23.5 -29.5t-31.5 -17t-33.5 -5.5q-27 0 -58 6t-61 13.5l-56 14t-41 7.5q0 -8 1.5 -20.5
t6.5 -30.5q-50 8 -95 26.5t-78 54.5q0 72 28 105t85 33q18 0 44 -7t54.5 -16t55.5 -16.5t46 -8.5z" />
    <glyph glyph-name="nonbreakingspace" unicode="&#xa0;" horiz-adv-x="205" 
 />
    <glyph glyph-name="exclamdown" unicode="&#xa1;" horiz-adv-x="274" 
d="M230 503v-145l-40 2q16 -106 31 -225t26 -250q-77 -9 -151 -9q-17 0 -33 0.5t-33 1.5l-40 36q4 54 8.5 113t8.5 119t7.5 118.5t6.5 109.5l-33 29q2 44 7 82t11 72q16 0 41 -1.5t52.5 -3.5t53 -4t43.5 -4zM180 -52q-10 113 -23.5 218.5t-30.5 212.5q-20 0 -38 -1t-36 -4
q-6 -105 -12.5 -211t-16.5 -221q12 0 24 -0.5t23 -0.5q28 0 55 2t55 5zM165 516q-36 5 -69 7t-65 3q-4 -22 -7 -45.5t-4 -49.5q37 -2 73 -4.5t71 -2.5z" />
    <glyph glyph-name="cent" unicode="&#xa2;" horiz-adv-x="495" 
d="M178 174l-79 3q-5 42 -7.5 86.5t-2.5 92.5q21 -1 43.5 -1.5t45.5 -2.5v-178zM174 0q18 2 35.5 3.5t32.5 4.5v73q36 3 63 6.5t47 10t32.5 17t18.5 28.5q-15 14 -34 27t-41 27q-5 -6 -9.5 -11t-9.5 -11q-17 -1 -33.5 -1h-33.5v175l38 -2t39 -3q7 -8 11.5 -17t9.5 -20
q20 26 37.5 53.5t34.5 59.5q-8 36 -40 51.5t-92 15.5h-38v77l-68 10v-89q-30 0 -58 -5t-49.5 -18.5t-34.5 -37t-13 -61.5q0 -65 1.5 -118.5t12.5 -91.5t35.5 -58.5t71.5 -20.5q7 0 15.5 0.5t18.5 1.5v-76zM144 11q-49 16 -79 38t-47 59t-23 91.5t-6 134.5q0 96 37.5 136.5
t117.5 44.5v94l128 -18l36 -40v-35q43 -3 72 -14.5t49 -35.5q26 -32 36.5 -50t13.5 -38q-19 -37 -45.5 -77t-63.5 -86l-39 33l-13 33h-10v-62l15 18q18 -11 39 -25t41.5 -30t39 -33.5t31.5 -34.5q-10 -28 -24.5 -45.5t-35 -27.5t-47 -15t-59.5 -9v-69q-30 -7 -48 -9t-33 -3
l-43 -2l-40 36v41z" />
    <glyph glyph-name="sterling" unicode="&#xa3;" horiz-adv-x="635" 
d="M399 289q0 -43 -2 -74t-4 -58l133 4l36 -40q14 -45 19 -95.5t6 -95.5l-529 -19l-40 36q-14 43 -21 88.5t-9 98.5q14 0 28 -1t29 -1l-38 39q-5 24 -8 47.5t-3 48.5t3 54l66 -8q-2 17 -3 33t-1 33q0 63 18.5 106t58 69t100.5 37t146 11q60 0 100 -18.5t64 -44t35.5 -52.5
t16.5 -43q-26 -58 -58.5 -113t-68.5 -108l-41 34l-22 50l-32 3zM520 -5q-1 33 -4 69.5t-12 65.5l-304 -10q2 12 2 24v25v21t-2 21q64 -3 129 -3q2 20 3.5 41.5t1.5 46.5q-36 -2 -70 -3t-68 -1q-2 15 -4 31t-2 32q0 7 0.5 13.5t1.5 13.5q109 -1 217 -12q9 -11 16.5 -24.5
t14.5 -27.5q23 34 46.5 74.5t45.5 91.5q-11 48 -47.5 68t-100.5 20q-78 0 -133 -9t-90.5 -31t-52 -59.5t-16.5 -93.5q0 -25 2 -47t8 -53l-75 8q-2 -6 -2 -12.5v-14.5q0 -15 2 -30t5 -29h79q8 -26 9.5 -48t1.5 -45l-36 -4t-35 -2q-8 0 -16 0.5t-16 1.5q1 -35 6 -66t14 -60z
" />
    <glyph glyph-name="currency" unicode="&#xa4;" horiz-adv-x="591" 
d="M230 158q-42 0 -55.5 22.5t-13.5 69.5q0 19 3 37t13.5 32t31.5 22t58 8q29 0 46.5 -25.5t17.5 -61.5q0 -31 -5 -51t-16.5 -32t-31 -16.5t-48.5 -4.5zM422 30l50 51l-79 80q19 44 19 148q0 27 -5 52l97 106l-66 64l-80 -90q-26 16 -65 16q-35 0 -59.5 -0.5t-41.5 -2
t-28.5 -4.5t-20.5 -7l-69 84l-63 -66l72 -85q-5 -13 -6 -27t-1 -29q0 -56 4.5 -93t15.5 -62l-82 -80l53 -51l86 79q24 -8 56.5 -9.5t77.5 -1.5q29 0 53 6zM368 39q-10 -2 -21 -2.5t-23 -0.5q-41 0 -70 1t-55 7q-22 -20 -48.5 -44.5t-46.5 -41.5l-133 126l89 89q-7 26 -11 64
t-4 83q0 13 0.5 25t3.5 24l-78 93l105 110l79 -92q20 4 52 5.5t86 1.5q33 0 57 -9l87 97l144 -144l-106 -116q2 -11 2.5 -21.5t0.5 -22.5q0 -48 -3.5 -80.5t-11.5 -57.5l87 -90l-90 -91zM227 189q43 0 58.5 14.5t15.5 58.5q0 5 -0.5 10.5t-1.5 10.5q-25 -1 -39 -7t-21.5 -16
t-9.5 -22.5t-2 -25.5v-23z" />
    <glyph glyph-name="yen" unicode="&#xa5;" horiz-adv-x="591" 
d="M218 556q7 -35 12 -68t13 -62q22 38 45 80.5t44 86.5q20 2 33.5 2.5t26.5 0.5q29 0 67.5 -4t83.5 -12l34 -40q-35 -64 -69 -124.5t-69 -115.5l36 -35q-3 -29 -7 -55.5t-9 -53.5l11 -11q-8 -36 -17.5 -66t-23.5 -53h-57q2 -24 7 -49t11 -51q-55 -8 -103.5 -10t-96.5 -2
l-40 35q-5 24 -8 41.5t-4 34.5h-36l-39 36q-8 29 -11 57t-3 58q-10 53 -10 122h68q-65 135 -132 316q35 0 64 -2t54 -4.5t47 -5.5t43 -6zM376 92q8 12 12.5 27.5t8.5 33.5q-15 -1 -30 -1h-30h-30.5t-31.5 1l-4 46h122q4 17 7 35.5t5 39.5l-83 -3q49 69 91.5 140.5
t81.5 144.5q-26 5 -51.5 7.5t-51.5 2.5h-20.5t-19.5 -2q-34 -69 -69 -129t-70 -114q-17 54 -30.5 115.5t-25.5 132.5q-35 5 -69.5 9t-68.5 5q31 -84 65 -162t71 -153h-86q0 -35 6 -66h115l-2 -46q-27 -3 -54 -3.5t-54 -0.5q0 -17 1 -31.5t5 -29.5h81q0 -32 1.5 -59.5
t6.5 -51.5q37 0 73 1.5t70 6.5q-5 24 -9 49t-4 55h71z" />
    <glyph glyph-name="brokenbar" unicode="&#xa6;" horiz-adv-x="287" 
d="M145 582l-79 12v-275l79 -7v270zM66 -115q20 2 41 3.5t38 6.5v269h-79v-279zM36 194h139l36 -40v-318q-22 -5 -39.5 -8.5t-33.5 -5.5t-31 -2.5t-31 -0.5l-40 35v340zM211 569v-326l-135 12l-40 36v338l139 -20z" />
    <glyph glyph-name="section" unicode="&#xa7;" horiz-adv-x="502" 
d="M13 -139q2 42 5 85t12 94q14 -2 31.5 -3.5t37.5 -3.5q-25 15 -44 30t-31.5 34t-19 43.5t-6.5 58.5q0 65 25 112q-22 36 -22 89q0 76 37 128t113 59q17 1 36.5 2.5t49 2.5t72 2t106.5 3l35 -41q1 -23 1.5 -45.5t0.5 -45.5q0 -37 -1.5 -70t-4.5 -59l-63 8q33 -27 54 -60
t21 -84q0 -36 -6.5 -65.5t-20.5 -49.5q11 -16 18 -38t7 -49q0 -68 -22.5 -109t-79.5 -52q-17 -3 -33.5 -5.5t-37.5 -4t-50 -2.5t-69 -1h-23t-29.5 0.5l-31 1t-27.5 0.5zM276 74q15 0 23 -9t8 -32q0 -24 -8 -34t-22 -10q-15 0 -43 2t-60.5 4.5t-64.5 5.5t-55 6
q-5 -28 -7 -57.5t-3 -58.5q23 -1 44 -1h39q39 0 67 0.5t49 2t37 4t31 5.5q44 8 61.5 42.5t17.5 91.5q0 60 -35 87q20 17 28.5 45t8.5 70q0 57 -29 81t-83 24q-32 0 -68 -2t-60 -2q-10 0 -15 8.5t-5 34.5q0 25 9 35.5t23 10.5q10 0 36 -2t58 -5t65 -7t59 -8q2 24 3 43t1 39
q0 16 -0.5 34.5t-1.5 43.5q-57 -3 -117.5 -4.5t-113.5 -4.5q-59 -4 -90.5 -43.5t-31.5 -113.5q0 -59 29 -88q-31 -40 -31 -113q0 -62 31 -91t95 -31q31 0 64 -0.5t57 -2.5zM299 140q-5 1 -10.5 1.5t-10.5 0.5q-32 0 -68 -2.5t-61 -2.5q-7 0 -12.5 2.5t-9 10t-5.5 22.5t-2 39
q0 32 7.5 48t18.5 21q29 -3 64 -2.5t68 -1.5q16 0 23.5 -12t7.5 -52q0 -29 -2.5 -46t-7.5 -26zM186 169q37 3 89 3q2 8 3 18t1 21h-54t-33 1q-2 -5 -4 -17.5t-2 -25.5z" />
    <glyph glyph-name="dieresis" unicode="&#xa8;" horiz-adv-x="500" 
d="M240 719q35 -4 68.5 -6.5t65.5 -4.5q3 23 6.5 46.5t4.5 48.5q-37 4 -73 6.5t-71 2.5zM44 709q70 0 135 6q3 22 5 46.5t2 50.5q-38 -2 -73.5 -3t-71.5 -6zM14 679l-4 152q18 2 45.5 4t57 3.5t57.5 2.5t46 2q57 -2 106 -4.5t95 -7.5l36 -40q-2 -37 -5.5 -75.5t-7.5 -73.5
q-16 0 -41.5 2t-53.5 4.5t-55 5.5t-47 7l-1 -10q-47 -4 -93 -6t-94 -2z" />
    <glyph glyph-name="copyright" unicode="&#xa9;" horiz-adv-x="655" 
d="M473 440q0 -107 -3.5 -201t-7.5 -182q-88 3 -179.5 8t-174.5 14q-4 93 -5 187.5t-1 190.5q94 0 185.5 -4.5t185.5 -12.5zM340 191h-62h-31.5t-31.5 1q-4 26 -5.5 54t-1.5 58q34 -2 68.5 -3t69.5 -5q5 -4 7.5 -10t5.5 -12q11 17 21.5 34t21.5 37q-6 22 -24.5 32t-55.5 10
h-24t-25 -0.5t-21.5 -1t-13.5 -0.5q-23 -1 -37 -9t-21 -22t-9 -33t-2 -41q0 -34 1.5 -62t8.5 -48t21 -31t40 -11q7 0 20 1t27.5 2t29.5 2.5t26 3.5q45 6 52 34q-8 9 -19 17t-24 17zM81 -33q-25 19 -36.5 34t-21.5 35q-7 13 -12 31.5t-8.5 51t-5.5 84.5t-2 133
q0 64 7.5 110.5t28 76.5t55.5 44.5t90 14.5q30 0 63.5 -0.5t66 -2t61.5 -3t49 -2.5q43 -4 78.5 -23.5t73.5 -61.5q20 -23 31.5 -54.5t11.5 -76.5q0 -29 -1.5 -70t-4 -83.5t-6 -82.5t-6.5 -67q-4 -28 -9 -47.5t-12.5 -33t-18 -21.5t-24.5 -13q-12 -5 -26 -8t-34.5 -5t-50 -3
t-72.5 -1q-69 0 -112 1.5t-70 6t-45 13t-38 23.5zM527 97q4 27 7 66.5t5.5 81.5t4 82t1.5 69q0 139 -131 148q-21 1 -49.5 2.5t-60.5 3t-65 2t-63 0.5q-45 0 -74.5 -13t-46 -39.5t-23 -67t-6.5 -96.5q0 -80 2 -130t5 -80.5t7.5 -47t9.5 -28.5q9 -21 20 -33.5t26 -18.5t36 -8
t50 -2q85 0 145 0.5t83 3.5q30 4 50.5 8t33.5 14t20.5 29t12.5 54z" />
    <glyph glyph-name="ordfeminine" unicode="&#xaa;" horiz-adv-x="404" 
d="M38 191q-20 17 -34.5 42.5t-14.5 60.5q0 21 5.5 38t14.5 31q-2 20 -3 39t-1 39q0 28 1.5 55.5t5.5 56.5q27 2 55 4t54.5 3t48 1.5t34.5 0.5q33 0 62.5 -14t51 -38t34 -56.5t12.5 -69.5q0 -38 -0.5 -69t-0.5 -69q0 -21 3.5 -41t19.5 -39q-13 -12 -25.5 -18t-30.5 -6
q-15 0 -25 2t-20 7q-12 -9 -30 -13.5t-46 -4.5q-15 0 -36 2.5t-44.5 9.5t-47 18t-43.5 28zM312 210q-15 21 -15 74q0 57 0.5 90.5t0.5 47.5q0 57 -23 83.5t-71 26.5q-13 0 -33 -0.5t-42.5 -1t-46 -2t-43.5 -3.5q-2 -17 -3 -32.5t-1 -32.5q0 -14 0.5 -28.5t1.5 -28.5
q20 3 43.5 4.5t46.5 3t43.5 2t34.5 0.5q23 0 33.5 -17.5t10.5 -36.5q-7 6 -19 10t-26.5 7t-30.5 4t-30 1q-124 0 -124 -87q0 -33 16.5 -51.5t40.5 -28.5t50 -12.5t45 -2.5q33 0 48 6t24 21q15 -18 49 -18h7t13 2zM240 286q-29 0 -63 1.5t-53 3.5q-12 0 -12 12q0 21 8 21
q9 0 24 -0.5t32 -1.5l34 -2t30 -2q9 0 9 -18q0 -14 -9 -14z" />
    <glyph glyph-name="guillemotleft" unicode="&#xab;" horiz-adv-x="449" 
d="M-31 262q65 70 107 120t63 76q19 -20 32.5 -34t23 -25t16.5 -19.5t13 -17.5q18 19 39 38t46 39q30 -30 60.5 -61t57.5 -69q-24 -25 -40.5 -43.5t-30.5 -38.5q19 -23 35.5 -45t33.5 -48q-19 -29 -40.5 -55t-44.5 -50l-88 93q-26 -38 -70 -82q-39 42 -69.5 74t-55.5 58.5
t-46.5 48zM171 259q52 -56 82.5 -90t50.5 -59q13 14 25.5 29t23.5 33q-14 24 -32 46.5t-37 46.5q20 27 34.5 45t34.5 39q-8 14 -20.5 25t-25.5 24q-43 -35 -77.5 -71.5t-58.5 -67.5zM7 262q27 -26 64 -63t75 -80q13 13 24 26.5t19 26.5q-16 23 -30.5 41.5t-38.5 43.5
q18 24 36 46.5t33 45.5q-11 19 -24 34t-25 29q-11 -13 -23 -27.5t-28 -32.5t-36 -40t-46 -50z" />
    <glyph glyph-name="logicalnot" unicode="&#xac;" horiz-adv-x="487" 
d="M387 96v28.5t-0.5 48t-1.5 71.5t-3 99q-24 0 -71 -2t-100 -5t-103 -6.5t-79 -5.5l7 -98q48 2 87 4t71 4t59 4t50 3q1 -54 3 -86.5t2 -58.5h79zM8 195l-12 157q19 1 53.5 3.5t75 4.5t85 4.5t84 4.5t71 3t47.5 1l35 -40q2 -57 3 -108t2 -91t1 -67v-37h-135l-41 35
q0 24 -0.5 55t-2.5 51q-45 -2 -106.5 -6t-119.5 -6z" />
    <glyph glyph-name="registered" unicode="&#xae;" horiz-adv-x="655" 
d="M81 -33q-25 19 -36.5 34t-21.5 35q-7 13 -12 31.5t-8.5 51t-5.5 84.5t-2 133q0 64 7.5 110.5t28 76.5t55.5 44.5t90 14.5q30 0 63.5 -0.5t66 -2t61.5 -3t49 -2.5q44 -4 79 -23.5t73 -61.5q20 -23 31.5 -54.5t11.5 -76.5q0 -29 -1.5 -70t-4 -83.5t-6 -82.5t-6.5 -67
q-4 -28 -9 -47.5t-12.5 -33t-18 -21.5t-24.5 -13q-12 -5 -26 -8t-34.5 -5t-50 -3t-72.5 -1q-69 0 -112 1.5t-70 6t-45 13t-38 23.5zM527 97q4 27 7 66.5t5.5 81.5t4 82t1.5 69q0 139 -131 148q-21 1 -49.5 2.5t-60.5 3t-65 2t-63 0.5q-45 0 -74.5 -13t-46 -39.5t-23 -67
t-6.5 -96.5q0 -80 2 -130t5 -80.5t7.5 -47t9.5 -28.5q9 -21 20 -33.5t26 -18.5t36 -8t50 -2q85 0 145 0.5t83 3.5q30 4 50.5 8t33.5 14t20.5 29t12.5 54zM473 440q0 -107 -3.5 -201t-7.5 -182q-88 3 -179.5 8t-174.5 14q-4 93 -5 187.5t-1 190.5q94 0 185.5 -4.5
t185.5 -12.5zM181 135q14 1 27 1.5t25 2.5q-2 8 -2 15.5v15.5q0 11 1 21.5t1 20.5q8 2 14.5 2.5t12.5 1.5q11 -22 22.5 -41.5t24.5 -39.5q18 0 40.5 0.5t40.5 1.5q-35 37 -65 71q51 2 69.5 24.5t18.5 68.5q0 84 -80 84q-42 0 -87 -0.5t-80 -0.5zM205 260q-3 9 -3 22
q18 1 40 1.5t43.5 1t39 1t26.5 0.5q18 0 18 -15q0 -8 -4.5 -13.5t-18.5 -5.5h-18z" />
    <glyph glyph-name="macron" unicode="&#xaf;" horiz-adv-x="443" 
d="M321 759q-62 -2 -137 -2.5t-147 -0.5q-2 -20 -2 -40.5v-41.5q20 -1 42 -1.5t45 -0.5q88 0 193 6q3 20 4 40.5t2 40.5zM387 721q-1 -23 -2.5 -47.5t-6.5 -59.5q-53 -4 -113.5 -6t-104.5 -2q-12 0 -27.5 0.5t-32 0.5t-31 0.5t-24.5 0.5l-40 36q0 35 0.5 69.5t3.5 73.5h77.5
t83.5 0.5t81 1t70 1.5z" />
    <glyph glyph-name="degree" unicode="&#xb0;" horiz-adv-x="375" 
d="M141 357q-33 0 -44 18t-11 55q0 15 2 28.5t10.5 24t25 17t45.5 6.5q23 0 37 -19t14 -48q0 -25 -4 -41t-13 -25t-24.5 -12.5t-37.5 -3.5zM185 313q25 0 43.5 5.5t30.5 22.5t18 49t6 85q0 63 -24.5 90t-68.5 27q-34 0 -55.5 -0.5t-35.5 -2.5t-22.5 -5t-17.5 -9
q-40 -25 -40 -91q0 -61 7 -95.5t26 -51t51 -20.5t82 -4zM223 247q-34 0 -59 1t-45 5t-38 13t-38 25q-14 10 -24 24.5t-16.5 36t-10 53.5t-3.5 79q0 39 13 69t40 48q10 7 21 11t27 6t39.5 3t60.5 1q24 0 40.5 -4.5t29.5 -13.5t24.5 -21t25.5 -27q19 -20 29 -46t10 -73
q0 -62 -7.5 -99.5t-23 -57.5t-39.5 -26.5t-56 -6.5zM152 387q21 2 29.5 13t8.5 39q-26 -4 -32 -18t-6 -34z" />
    <glyph glyph-name="plusminus" unicode="&#xb1;" horiz-adv-x="490" 
d="M0 0zM318 498q2 -29 2.5 -57.5t1.5 -56.5l101 5l36 -40q5 -35 6 -66t1 -62q-36 -4 -72.5 -7.5t-72.5 -5.5q0 -31 -2 -65t-6 -81q-36 -4 -65 -5t-62 -1l-40 36l-2 110q-27 0 -60.5 0.5t-52.5 1.5l-40 36q-1 10 -2 30t-2.5 43t-2.5 45t-1 35l28 -2l64 -4t64 -3
q-2 35 -4.5 70t-3.5 77q32 3 68.5 5t83.5 2zM249 125q2 37 4 73t2 74q74 5 145 12q0 19 -0.5 37.5t-3.5 35.5q-35 -2 -69.5 -2.5t-69.5 -1.5q0 38 -1 76.5t-3 78.5q-24 0 -46.5 -1.5t-45.5 -3.5q2 -38 4.5 -75t4.5 -74q-40 1 -78.5 2.5t-77.5 4.5q1 -27 2 -49.5t3 -42.5
q19 -1 38 -1h39h38.5t38.5 1l3 -147q35 0 73 3zM400 -65l-4 73h-382l5 -88zM-10 -111l-7 149h443l36 -40l5 -128l-437 -17z" />
    <glyph glyph-name="twosuperior" unicode="&#xb2;" horiz-adv-x="393" 
d="M0 214zM23 280q63 2 126.5 2.5t125.5 7.5q5 17 9 38t9 48q-57 -5 -109 -7.5t-104 -2.5q2 16 8.5 25.5t17.5 9.5q8 0 21 -0.5t28.5 -0.5t31.5 -0.5t29 -0.5q31 0 53 23t22 79q0 33 -11 52.5t-32.5 30t-54 13.5t-75.5 3q-17 0 -36.5 -0.5t-37.5 -1.5q0 -33 3 -65.5t8 -62.5
q51 5 95.5 7.5t80.5 2.5q12 0 12 -15q0 -17 -13 -17q-8 0 -21 0.5t-28 1t-31 1t-29 0.5q-58 0 -81 -35q-10 -14 -13.5 -45.5t-3.5 -90.5zM-7 279q0 64 4 106t30 63q-6 38 -9.5 82t-3.5 98q9 0 23.5 0.5t29.5 1t29 0.5h22q40 0 70 -2t52.5 -7.5t38.5 -15t30 -24.5
q15 -17 24.5 -29t14.5 -24t7 -27.5t2 -37.5q0 -44 -13 -75l20 -19q-6 -43 -13.5 -78t-16.5 -65q-79 -9 -144.5 -10.5t-128.5 -1.5l-68 42v23z" />
    <glyph glyph-name="threesuperior" unicode="&#xb3;" horiz-adv-x="375" 
d="M0 216zM-8 449q1 45 3 90.5t7 96.5q75 -2 149.5 -7.5t147.5 -13.5l35 -40q0 -43 -2 -72.5t-5 -50.5l-20 -14q15 -16 22.5 -34.5t7.5 -43.5q0 -34 -10 -60.5t-27 -42.5q-13 -12 -30 -19.5t-43.5 -12t-65.5 -6.5t-95 -3l-61 50q-1 9 -2.5 27t-2.5 38.5t-1.5 39.5t-0.5 30
h76l-3 15l-38 -3zM33 283q49 1 84 2.5t59.5 4.5t40 9t26.5 16q12 12 20 33.5t8 49.5q0 37 -19 53.5t-53 18.5q17 7 32 15.5t32 19.5q2 17 3.5 37t1.5 46q-60 7 -119.5 11t-118.5 6q-4 -29 -5 -60.5t-2 -61.5q31 4 72 4.5t78 0.5q-6 -3 -15 -6.5t-19.5 -8t-21 -8.5t-17.5 -8
v-13q0 -11 1 -21t4 -19q19 1 31.5 1.5t25.5 0.5q10 0 21.5 -0.5t22 -2t17.5 -4.5t7 -9q0 -8 -3 -10.5t-11 -3.5q-6 -1 -27 -2t-48.5 -2t-57.5 -1.5t-54 -0.5q0 -24 1 -46.5t3 -40.5z" />
    <glyph glyph-name="acute" unicode="&#xb4;" horiz-adv-x="369" 
d="M200 855q25 -28 42.5 -49t30 -38t22 -31.5t18.5 -28.5q-31 -16 -60 -31.5t-59 -32t-61.5 -34t-66.5 -36.5q-36 38 -56.5 67.5t-34.5 62.5q26 23 54 45.5t56.5 42.5t57 36.5t57.5 26.5zM45 636q50 35 96.5 65.5t93.5 55.5q-11 17 -23 32t-24 29q-39 -14 -86 -49t-91 -74
q8 -18 16.5 -32t17.5 -27z" />
    <glyph glyph-name="paragraph" unicode="&#xb6;" horiz-adv-x="593" 
d="M163 188q-19 0 -37.5 7t-35.5 18.5t-31 26t-24 30.5q-14 21 -21.5 49.5t-7.5 83.5q0 57 9.5 95t26.5 60.5t42 32t56 9.5q39 0 85.5 -2.5t97 -7t101 -10t97.5 -10.5l35 -40v-721l-288 20l-40 36v29t-0.5 47.5t-1 90.5t-1.5 158q-17 -1 -32.5 -1.5t-29.5 -0.5zM401 391
q2 -44 2 -94.5v-108.5q0 -68 -0.5 -143.5t-0.5 -160.5q46 -8 88 -8v667q-42 4 -87.5 9t-91.5 8.5t-90 6t-81 2.5q-24 0 -43.5 -7.5t-33 -26.5t-20.5 -51t-7 -81q0 -51 5 -75t17 -39q12 -16 27 -25.5t40 -9.5q31 0 65 2.5t60 5.5q1 -9 2 -37t2 -66t2 -80.5t1.5 -80.5t0.5 -67
v-39q22 -2 44.5 -4t45.5 -3v510zM307 351q-18 -1 -40.5 -2.5t-44 -2.5t-40.5 -2t-30 -1q-10 0 -17 8.5t-7 23.5q0 17 6.5 23.5t20.5 6.5q13 0 33.5 -1t42 -2t41 -2.5t30.5 -2.5z" />
    <glyph glyph-name="periodcentered" unicode="&#xb7;" horiz-adv-x="265" 
d="M0 165zM26 231q36 0 69 1.5t66 3.5q2 23 4.5 47t2.5 50q-38 -1 -74 -2.5t-71 -5.5zM-8 353q18 2 45.5 3.5t57 3t57.5 3t46 1.5l35 -40q0 -44 -2.5 -82t-6.5 -71q-17 -1 -41.5 -2t-51 -2t-52 -1.5t-43.5 -0.5l-40 36z" />
    <glyph glyph-name="cedilla" unicode="&#xb8;" horiz-adv-x="253" 
d="M-14 -220q0 33 1.5 67t5.5 67q45 4 94 6t103 2l35 -40q0 -39 -3 -65.5t-7 -46.5q-8 -12 -17 -22t-20 -20t-24.5 -21t-31.5 -24q-23 11 -43 27t-38 35h-14zM92 -254q16 17 31 35.5t29 38.5q2 15 4.5 33t2.5 39q-35 0 -69.5 -2t-69.5 -4q-2 -19 -2.5 -37.5t-0.5 -38.5
q15 1 30.5 1.5t30.5 2.5q-6 -11 -13 -19.5t-13 -18.5q9 -12 19 -18.5t21 -11.5z" />
    <glyph glyph-name="onesuperior" unicode="&#xb9;" horiz-adv-x="253" 
d="M0 219zM32 265q5 52 7 86.5t2 66.5q-20 33 -36 68.5t-27 66.5q20 25 38.5 45.5t35.5 37.5q33 0 67 -4.5t64 -10.5l35 -40q0 -38 -1 -84t-2.5 -93.5t-3.5 -92t-5 -79.5q-26 -7 -49.5 -9t-52.5 -4zM64 285q29 2 47.5 3t30.5 4q5 72 7 149.5t3 154.5q-19 4 -41.5 6.5
t-46.5 2.5q-14 -14 -26.5 -28t-25.5 -29q7 -20 16 -40t21 -39l22 16q0 -53 -2 -103t-5 -97z" />
    <glyph glyph-name="ordmasculine" unicode="&#xba;" horiz-adv-x="427" 
d="M226 287q-36 0 -78 0.5t-71 2.5q0 28 1.5 61t4.5 60q34 5 67.5 7t66.5 3q5 -34 6 -68t3 -66zM240 215q35 0 53.5 25.5t22.5 57.5q5 51 7.5 84t2.5 60q0 88 -85 93q-34 2 -66 2h-64q-23 0 -38.5 -9.5t-26 -24.5t-15 -34t-4.5 -38q0 -45 0.5 -72.5t2.5 -43.5
q3 -25 9.5 -41.5t15 -27.5t18.5 -16.5t20 -7.5q9 -2 27.5 -3.5t40.5 -2t43 -1t36 -0.5zM54 204q-16 13 -27 27t-18 38t-10 62t-3 100q0 25 6.5 49.5t20.5 44t36 31.5t52 12q32 0 65 -0.5t67 -2.5q28 -2 55 -15t48 -35t33.5 -50.5t12.5 -60.5q0 -29 -1.5 -62.5t-8.5 -84.5
q-3 -21 -10.5 -40.5t-20.5 -34.5t-31.5 -24t-41.5 -9q-15 0 -37 0.5t-44.5 1.5t-42 2.5t-29.5 3.5q-11 3 -25.5 12.5t-45.5 34.5z" />
    <glyph glyph-name="guillemotright" unicode="&#xbb;" horiz-adv-x="439" 
d="M221 412q-13 -14 -26 -29t-24 -34q19 -21 37 -43.5t32 -48.5q-24 -25 -38.5 -43.5t-30.5 -41.5q9 -13 20 -26.5t24 -26.5q38 43 74.5 80t63.5 63q-45 61 -75.5 94.5t-56.5 55.5zM56 119q21 25 51 59t82 90q-22 31 -57.5 68.5t-80.5 75.5q-28 -28 -44 -53q19 -21 34 -39.5
t35 -45.5l-36 -46t-33 -46q11 -19 23.5 -34t25.5 -29zM219 455q57 -51 107.5 -108t101.5 -126q-33 -31 -78.5 -77.5t-94.5 -103.5q-21 19 -35 32.5t-23.5 23.5t-15.5 16.5t-11 12.5l-75 -87q-30 31 -50.5 52t-34 36.5t-22.5 28.5t-18 27q10 15 29 40.5t39 51.5
q-14 18 -31.5 38l-38.5 44q15 23 36 47.5t45 49.5q51 -44 95 -89q15 23 31.5 42t43.5 49z" />
    <glyph glyph-name="onequarter" unicode="&#xbc;" horiz-adv-x="791" 
d="M0 0zM46 265q5 52 7 86.5t2 66.5q-20 33 -36 68.5t-27 66.5q20 25 38.5 45.5t35.5 37.5q33 0 67 -4.5t64 -10.5l35 -40q0 -38 -1 -84t-2.5 -93.5t-3.5 -92t-5 -79.5q-26 -7 -49.5 -9t-52.5 -4zM78 285q29 2 47.5 3t30.5 4q5 72 7 149.5t3 154.5q-19 4 -41.5 6.5
t-46.5 2.5q-14 -14 -26.5 -28t-25.5 -29q7 -20 16 -40t21 -39l22 16q0 -53 -2 -103t-5 -97zM104 -15q28 -12 61 -12q17 0 32 3q51 67 103 140.5t103.5 150t101 154t95.5 152.5q-40 8 -79 8q-23 0 -45 -3q-41 -71 -87 -146.5t-94 -151.5t-96.5 -150.5t-94.5 -144.5zM78 0
q46 70 96 146.5t99 155t96 156t88 148.5q14 2 28 3t28 1q33 0 66 -4.5t71 -11.5l33 -39q-49 -81 -102.5 -164.5t-109 -166t-111.5 -162t-111 -151.5q-15 -2 -25 -2.5t-18 -0.5q-17 0 -31.5 2t-28 7t-27 15t-28.5 26zM449 94q34 63 71 123t78 120l117 -13l36 -40
q1 -26 2 -71.5t1 -96.5l9 -9q-1 -17 -1 -50.5v-83.5l-10 -2q-1 -6 -3 -20.5t-4 -24.5q-32 -5 -63.5 -5.5t-70.5 -0.5l-34 34q-22 -2 -42.5 -2t-37.5 -1l-40 36zM485 18q32 1 63.5 2.5t58.5 3.5l-6 -38q25 0 45 0.5t37 2.5q3 21 3 34h10t11 2q0 19 -0.5 41t-2.5 39l-18 -3
q2 23 2 41.5v40.5q0 28 -0.5 57t-2.5 55l-72 9q-35 -51 -68 -105t-65 -113zM646 99q-17 -2 -32.5 -2.5t-35.5 -0.5q17 21 35 39.5t37 35.5q-1 -17 -1.5 -35t-2.5 -37z" />
    <glyph glyph-name="onehalf" unicode="&#xbd;" horiz-adv-x="903" 
d="M0 0zM46 265q5 52 7 86.5t2 66.5q-20 33 -36 68.5t-27 66.5q20 25 38.5 45.5t35.5 37.5q33 0 67 -4.5t64 -10.5l35 -40q0 -38 -1 -84t-2.5 -93.5t-3.5 -92t-5 -79.5q-26 -7 -49.5 -9t-52.5 -4zM78 285q29 2 47.5 3t30.5 4q5 72 7 149.5t3 154.5q-19 4 -41.5 6.5
t-46.5 2.5q-14 -14 -26.5 -28t-25.5 -29q7 -20 16 -40t21 -39l22 16q0 -53 -2 -103t-5 -97zM98 -15q28 -12 61 -12q17 0 32 3q51 67 103 140.5t103.5 150t101 154t95.5 152.5q-40 8 -79 8q-23 0 -45 -3q-41 -71 -87 -146.5t-94 -151.5t-96.5 -150.5t-94.5 -144.5zM72 0
q46 70 96 146.5t99 155t96 156t88 148.5q14 2 28 3t28 1q33 0 66 -4.5t71 -11.5l33 -39q-49 -81 -102.5 -164.5t-109 -166t-111.5 -162t-111 -151.5q-15 -2 -25 -2.5t-18 -0.5q-17 0 -31.5 2t-28 7t-27 15t-28.5 26zM547 -22q63 2 126.5 2.5t125.5 7.5q5 17 9 38t9 48
q-57 -5 -109 -7.5t-104 -2.5q2 16 8.5 25.5t17.5 9.5q8 0 21 -0.5t28.5 -0.5t31.5 -0.5t29 -0.5q31 0 53 23t22 79q0 33 -11 52.5t-32.5 30t-54 13.5t-75.5 3q-17 0 -36.5 -0.5t-37.5 -1.5q0 -33 3 -65.5t8 -62.5q51 5 95.5 7.5t80.5 2.5q12 0 12 -15q0 -17 -13 -17
q-8 0 -21 0.5t-28 1t-31 1t-29 0.5q-58 0 -81 -35q-10 -14 -13.5 -45.5t-3.5 -90.5zM517 -23q0 64 4 106t30 63q-6 38 -9.5 82t-3.5 98q9 0 23.5 0.5t29.5 1t29 0.5h22q40 0 70 -2t52.5 -7.5t38.5 -15t30 -24.5q15 -17 24.5 -29t14.5 -24t7 -27.5t2 -37.5q0 -44 -13 -75
l20 -19q-6 -43 -13.5 -78t-16.5 -65q-79 -9 -144.5 -10.5t-128.5 -1.5l-68 42v23z" />
    <glyph glyph-name="threequarters" unicode="&#xbe;" horiz-adv-x="838" 
d="M0 0zM-6 449q1 45 3 90.5t7 96.5q75 -2 149.5 -7.5t147.5 -13.5l35 -40q0 -43 -2 -72.5t-5 -50.5l-20 -14q15 -16 22.5 -34.5t7.5 -43.5q0 -34 -10 -60.5t-27 -42.5q-13 -12 -30 -19.5t-43.5 -12t-65.5 -6.5t-95 -3l-61 50q-1 9 -2.5 27t-2.5 38.5t-1.5 39.5t-0.5 30h76
l-3 15l-38 -3zM35 283q49 1 84 2.5t59.5 4.5t40 9t26.5 16q12 12 20 33.5t8 49.5q0 37 -19 53.5t-53 18.5q17 7 32 15.5t32 19.5q2 17 3.5 37t1.5 46q-60 7 -119.5 11t-118.5 6q-4 -29 -5 -60.5t-2 -61.5q31 4 72 4.5t78 0.5q-6 -3 -15 -6.5t-19.5 -8t-21 -8.5t-17.5 -8v-13
q0 -11 1 -21t4 -19q19 1 31.5 1.5t25.5 0.5q10 0 21.5 -0.5t22 -2t17.5 -4.5t7 -9q0 -8 -3 -10.5t-11 -3.5q-6 -1 -27 -2t-48.5 -2t-57.5 -1.5t-54 -0.5q0 -24 1 -46.5t3 -40.5zM169 -15q28 -12 61 -12q17 0 32 3q51 67 103 140.5t103.5 150t101 154t95.5 152.5q-40 8 -79 8
q-23 0 -45 -3q-41 -71 -87 -146.5t-94 -151.5t-96.5 -150.5t-94.5 -144.5zM143 0q46 70 96 146.5t99 155t96 156t88 148.5q14 2 28 3t28 1q33 0 66 -4.5t71 -11.5l33 -39q-49 -81 -102.5 -164.5t-109 -166t-111.5 -162t-111 -151.5q-15 -2 -25 -2.5t-18 -0.5q-17 0 -31.5 2
t-28 7t-27 15t-28.5 26zM498 94q34 63 71 123t78 120l117 -13l36 -40q1 -26 2 -71.5t1 -96.5l9 -9q-1 -17 -1 -50.5v-83.5l-10 -2q-1 -6 -3 -20.5t-4 -24.5q-32 -5 -63.5 -5.5t-70.5 -0.5l-34 34q-22 -2 -42.5 -2t-37.5 -1l-40 36zM534 18q32 1 63.5 2.5t58.5 3.5l-6 -38
q25 0 45 0.5t37 2.5q3 21 3 34h10t11 2q0 19 -0.5 41t-2.5 39l-18 -3q2 23 2 41.5v40.5q0 28 -0.5 57t-2.5 55l-72 9q-35 -51 -68 -105t-65 -113zM695 99q-17 -2 -32.5 -2.5t-35.5 -0.5q17 21 35 39.5t37 35.5q-1 -17 -1.5 -35t-2.5 -37z" />
    <glyph glyph-name="questiondown" unicode="&#xbf;" horiz-adv-x="515" 
d="M399 511v-140q3 -20 5 -34t2 -22q0 -35 -14.5 -65.5t-42.5 -50.5l101 2l35 -40q0 -25 -1 -59t-2.5 -69.5t-3.5 -69t-3 -58.5q-33 -3 -71 -5t-74.5 -4t-68 -3t-51.5 -1q-26 0 -45.5 3t-37 10t-35 18.5t-38.5 28.5q-31 26 -47 67.5t-16 113.5q0 30 2.5 52t6.5 38t10 27.5
t13 21.5q21 29 53 41t67 18q25 3 25 27v13.5t-2 17.5l-11 7l16 155q8 0 20 0.5t25.5 1t26 0.5h20.5h21.5t28 -0.5t28 -1t22.5 -0.5zM180 237q34 0 63.5 5t51 18t33.5 35.5t12 57.5q0 9 -1 18.5t-3 19.5q-35 3 -70 4t-70 1q2 -7 2 -15.5v-22.5q0 -49 -51 -56
q-30 -5 -56.5 -15t-42.5 -33q-6 -8 -10.5 -17.5t-8.5 -23.5t-6 -33.5t-2 -46.5q0 -50 10 -83.5t29 -53.5t47.5 -29t64.5 -9q21 0 50.5 1t62 2.5t65.5 3.5t60 4q4 50 5.5 100.5t2.5 101.5q-63 -2 -125.5 -4.5t-125.5 -2.5t-63 32q0 21 14.5 31t38.5 10h23zM333 522h-134
l-11 -96q37 0 73 0.5t72 2.5v93z" />
    <glyph glyph-name="Agrave" unicode="&#xc0;" horiz-adv-x="643" 
d="M0 0zM408 127q-26 0 -53.5 0.5t-53.5 2t-49 3t-39 2.5t-23.5 8t-7.5 25q0 47 23 47q16 0 44.5 -1t61 -2.5t64.5 -3.5t55 -4q26 -3 26 -41q0 -20 -7 -28t-21 -8h-20zM546 0q-11 20 -15.5 51.5t-4.5 80.5q0 52 1 105.5t1 107.5q0 103 -40.5 149t-125.5 46q-24 0 -60 -0.5
t-77 -2t-83 -4t-79 -5.5q-5 -31 -6.5 -62t-1.5 -63q0 -40 3 -85q34 5 76.5 8.5t84.5 6t80.5 4t65.5 1.5q47 0 68 -13.5t21 -50.5q0 -8 -0.5 -14.5t-1.5 -14.5q-10 22 -27.5 32.5t-41.5 13.5q-49 6 -98.5 7.5t-91.5 1.5q-85 0 -126 -39t-41 -110q0 -81 54 -118
q21 -15 51.5 -25t62 -15.5t60.5 -7.5t48 -2q31 0 52.5 3.5t36.5 10.5t25 18.5t18 26.5q23 -43 90 -43h11t11 1zM77 -12q-23 20 -38.5 38.5t-25 37.5t-14 40t-4.5 47q0 81 44 128l-9 3q-2 27 -3.5 54.5t-1.5 56.5q0 40 2.5 80.5t8.5 82.5q43 4 90.5 6.5t91.5 4.5t82 3t62 1
q29 0 52 -4t44 -13.5t41 -26.5t43 -42q26 -29 39 -72t13 -106q0 -52 -1 -104.5t-1 -108.5q0 -23 1 -41.5t4.5 -35.5t10 -34.5t16.5 -37.5q-12 -7 -29 -9.5t-33 -2.5q-55 0 -87 25q-19 -21 -50 -31t-85 -10q-31 0 -66 2t-70 9.5t-68 21.5t-59 38zM142 760q16 -7 36.5 -18.5
t43 -25t46 -29t44.5 -31.5q14 11 26 24t23 30q-42 37 -87 73t-83 55q-14 -14 -27 -33.5t-22 -44.5zM106 738q17 51 36.5 82.5t42.5 54.5q51 -25 112.5 -75t136.5 -123q-20 -34 -42.5 -53t-42.5 -37q-50 37 -109 74.5t-134 76.5z" />
    <glyph glyph-name="Aacute" unicode="&#xc1;" horiz-adv-x="643" 
d="M0 0zM408 127q-26 0 -53.5 0.5t-53.5 2t-49 3t-39 2.5t-23.5 8t-7.5 25q0 47 23 47q16 0 44.5 -1t61 -2.5t64.5 -3.5t55 -4q26 -3 26 -41q0 -20 -7 -28t-21 -8h-20zM546 0q-11 20 -15.5 51.5t-4.5 80.5q0 52 1 105.5t1 107.5q0 103 -40.5 149t-125.5 46q-24 0 -60 -0.5
t-77 -2t-83 -4t-79 -5.5q-5 -31 -6.5 -62t-1.5 -63q0 -40 3 -85q34 5 76.5 8.5t84.5 6t80.5 4t65.5 1.5q47 0 68 -13.5t21 -50.5q0 -8 -0.5 -14.5t-1.5 -14.5q-10 22 -27.5 32.5t-41.5 13.5q-49 6 -98.5 7.5t-91.5 1.5q-85 0 -126 -39t-41 -110q0 -81 54 -118
q21 -15 51.5 -25t62 -15.5t60.5 -7.5t48 -2q31 0 52.5 3.5t36.5 10.5t25 18.5t18 26.5q23 -43 90 -43h11t11 1zM77 -12q-23 20 -38.5 38.5t-25 37.5t-14 40t-4.5 47q0 81 44 128l-9 3q-2 27 -3.5 54.5t-1.5 56.5q0 40 2.5 80.5t8.5 82.5q43 4 90.5 6.5t91.5 4.5t82 3t62 1
q29 0 52 -4t44 -13.5t41 -26.5t43 -42q26 -29 39 -72t13 -106q0 -52 -1 -104.5t-1 -108.5q0 -23 1 -41.5t4.5 -35.5t10 -34.5t16.5 -37.5q-12 -7 -29 -9.5t-33 -2.5q-55 0 -87 25q-19 -21 -50 -31t-85 -10q-31 0 -66 2t-70 9.5t-68 21.5t-59 38zM400 855q25 -28 42.5 -49
t30 -38t22 -31.5t18.5 -28.5q-31 -16 -60 -31.5t-59 -32t-61.5 -34t-66.5 -36.5q-36 38 -56.5 67.5t-34.5 62.5q26 23 54 45.5t56.5 42.5t57 36.5t57.5 26.5zM245 636q50 35 96.5 65.5t93.5 55.5q-11 17 -23 32t-24 29q-39 -14 -86 -49t-91 -74q8 -18 16.5 -32t17.5 -27z
" />
    <glyph glyph-name="Acircumflex" unicode="&#xc2;" horiz-adv-x="643" 
d="M0 0zM408 118q-26 0 -53.5 0.5t-53.5 2t-49 3t-39 2.5t-23.5 8t-7.5 25q0 47 23 47q16 0 44.5 -1t61 -2.5t64.5 -3.5t55 -4q26 -3 26 -41q0 -20 -7 -28t-21 -8h-20zM546 -9q-11 20 -15.5 51.5t-4.5 80.5q0 52 1 105.5t1 107.5q0 103 -40.5 149t-125.5 46q-24 0 -60 -0.5
t-77 -2t-83 -4t-79 -5.5q-5 -31 -6.5 -62t-1.5 -63q0 -40 3 -85q34 5 76.5 8.5t84.5 6t80.5 4t65.5 1.5q47 0 68 -13.5t21 -50.5q0 -8 -0.5 -14.5t-1.5 -14.5q-10 22 -27.5 32.5t-41.5 13.5q-49 6 -98.5 7.5t-91.5 1.5q-85 0 -126 -39t-41 -110q0 -81 54 -118
q21 -15 51.5 -25t62 -15.5t60.5 -7.5t48 -2q31 0 52.5 3.5t36.5 10.5t25 18.5t18 26.5q23 -43 90 -43h11t11 1zM77 -21q-23 20 -38.5 38.5t-25 37.5t-14 40t-4.5 47q0 81 44 128l-9 3q-2 27 -3.5 54.5t-1.5 56.5q0 40 2.5 80.5t8.5 82.5q43 4 90.5 6.5t91.5 4.5t82 3t62 1
q29 0 52 -4t44 -13.5t41 -26.5t43 -42q26 -29 39 -72t13 -106q0 -52 -1 -104.5t-1 -108.5q0 -23 1 -41.5t4.5 -35.5t10 -34.5t16.5 -37.5q-12 -7 -29 -9.5t-33 -2.5q-55 0 -87 25q-19 -21 -50 -31t-85 -10q-31 0 -66 2t-70 9.5t-68 21.5t-59 38zM429 685q-13 10 -27 22.5
t-32 28.5t-40 36t-50 46q-26 -28 -63 -64.5t-80 -73.5q26 -27 53 -44q23 16 41 30.5t43 38.5q24 -18 46.5 -36t46.5 -33q19 11 33.5 23.5t28.5 25.5zM507 653q-15 -17 -28 -29.5t-25 -22t-24 -17.5t-26 -17q-18 10 -42.5 26.5t-47.5 36.5q-19 -17 -38 -31.5t-48 -32.5
q-36 26 -68.5 53t-66.5 62q55 48 103.5 95t82.5 82q28 -27 54 -51t53 -48t56.5 -50t64.5 -56z" />
    <glyph glyph-name="Atilde" unicode="&#xc3;" horiz-adv-x="643" 
d="M0 0zM408 127q-26 0 -53.5 0.5t-53.5 2t-49 3t-39 2.5t-23.5 8t-7.5 25q0 47 23 47q16 0 44.5 -1t61 -2.5t64.5 -3.5t55 -4q26 -3 26 -41q0 -20 -7 -28t-21 -8h-20zM546 0q-11 20 -15.5 51.5t-4.5 80.5q0 52 1 105.5t1 107.5q0 103 -40.5 149t-125.5 46q-24 0 -60 -0.5
t-77 -2t-83 -4t-79 -5.5q-5 -31 -6.5 -62t-1.5 -63q0 -40 3 -85q34 5 76.5 8.5t84.5 6t80.5 4t65.5 1.5q47 0 68 -13.5t21 -50.5q0 -8 -0.5 -14.5t-1.5 -14.5q-10 22 -27.5 32.5t-41.5 13.5q-49 6 -98.5 7.5t-91.5 1.5q-85 0 -126 -39t-41 -110q0 -81 54 -118
q21 -15 51.5 -25t62 -15.5t60.5 -7.5t48 -2q31 0 52.5 3.5t36.5 10.5t25 18.5t18 26.5q23 -43 90 -43h11t11 1zM77 -12q-23 20 -38.5 38.5t-25 37.5t-14 40t-4.5 47q0 81 44 128l-9 3q-2 27 -3.5 54.5t-1.5 56.5q0 40 2.5 80.5t8.5 82.5q43 4 90.5 6.5t91.5 4.5t82 3t62 1
q29 0 52 -4t44 -13.5t41 -26.5t43 -42q26 -29 39 -72t13 -106q0 -52 -1 -104.5t-1 -108.5q0 -23 1 -41.5t4.5 -35.5t10 -34.5t16.5 -37.5q-12 -7 -29 -9.5t-33 -2.5q-55 0 -87 25q-19 -21 -50 -31t-85 -10q-31 0 -66 2t-70 9.5t-68 21.5t-59 38zM395 780q-15 -25 -27 -35
t-24 -10q-10 0 -19 6.5t-20 14t-24.5 14t-31.5 6.5q-68 0 -115 -80q14 -12 27 -23t26 -19q31 45 51 45q12 0 23.5 -6.5t23 -14t24.5 -13.5t29 -6q38 0 67 25.5t44 60.5q-12 13 -26 21.5t-28 13.5zM378 812q19 -5 34.5 -11t31 -16.5t34 -28t42.5 -44.5q-11 -24 -26 -46
t-33.5 -38t-40 -25.5t-44.5 -9.5q-18 0 -33.5 6t-28.5 13.5t-22.5 14t-15.5 6.5q-7 0 -16 -8.5t-27 -40.5q-14 8 -27.5 16.5t-29 20t-35 28.5t-46.5 42q68 115 154 115q30 0 54 -12.5t41 -28.5q1 0 3.5 1.5t6.5 6.5t10 14t14 25z" />
    <glyph glyph-name="Adieresis" unicode="&#xc4;" horiz-adv-x="643" 
d="M0 0zM408 127q-26 0 -53.5 0.5t-53.5 2t-49 3t-39 2.5t-23.5 8t-7.5 25q0 47 23 47q16 0 44.5 -1t61 -2.5t64.5 -3.5t55 -4q26 -3 26 -41q0 -20 -7 -28t-21 -8h-20zM546 0q-11 20 -15.5 51.5t-4.5 80.5q0 52 1 105.5t1 107.5q0 103 -40.5 149t-125.5 46q-24 0 -60 -0.5
t-77 -2t-83 -4t-79 -5.5q-5 -31 -6.5 -62t-1.5 -63q0 -40 3 -85q34 5 76.5 8.5t84.5 6t80.5 4t65.5 1.5q47 0 68 -13.5t21 -50.5q0 -8 -0.5 -14.5t-1.5 -14.5q-10 22 -27.5 32.5t-41.5 13.5q-49 6 -98.5 7.5t-91.5 1.5q-85 0 -126 -39t-41 -110q0 -81 54 -118
q21 -15 51.5 -25t62 -15.5t60.5 -7.5t48 -2q31 0 52.5 3.5t36.5 10.5t25 18.5t18 26.5q23 -43 90 -43h11t11 1zM77 -12q-23 20 -38.5 38.5t-25 37.5t-14 40t-4.5 47q0 81 44 128l-9 3q-2 27 -3.5 54.5t-1.5 56.5q0 40 2.5 80.5t8.5 82.5q43 4 90.5 6.5t91.5 4.5t82 3t62 1
q29 0 52 -4t44 -13.5t41 -26.5t43 -42q26 -29 39 -72t13 -106q0 -52 -1 -104.5t-1 -108.5q0 -23 1 -41.5t4.5 -35.5t10 -34.5t16.5 -37.5q-12 -7 -29 -9.5t-33 -2.5q-55 0 -87 25q-19 -21 -50 -31t-85 -10q-31 0 -66 2t-70 9.5t-68 21.5t-59 38zM325 719q35 -4 68.5 -6.5
t65.5 -4.5q3 23 6.5 46.5t4.5 48.5q-37 4 -73 6.5t-71 2.5zM129 709q70 0 135 6q3 22 5 46.5t2 50.5q-38 -2 -73.5 -3t-71.5 -6zM99 679l-4 152q18 2 45.5 4t57 3.5t57.5 2.5t46 2q57 -2 106 -4.5t95 -7.5l36 -40q-2 -37 -5.5 -75.5t-7.5 -73.5q-16 0 -41.5 2t-53.5 4.5
t-55 5.5t-47 7l-1 -10q-47 -4 -93 -6t-94 -2z" />
    <glyph glyph-name="Aring" unicode="&#xc5;" horiz-adv-x="643" 
d="M0 0zM408 127q-26 0 -53.5 0.5t-53.5 2t-49 3t-39 2.5t-23.5 8t-7.5 25q0 47 23 47q16 0 44.5 -1t61 -2.5t64.5 -3.5t55 -4q26 -3 26 -41q0 -20 -7 -28t-21 -8h-20zM546 0q-11 20 -15.5 51.5t-4.5 80.5q0 52 1 105.5t1 107.5q0 103 -40.5 149t-125.5 46q-24 0 -60 -0.5
t-77 -2t-83 -4t-79 -5.5q-5 -31 -6.5 -62t-1.5 -63q0 -40 3 -85q34 5 76.5 8.5t84.5 6t80.5 4t65.5 1.5q47 0 68 -13.5t21 -50.5q0 -8 -0.5 -14.5t-1.5 -14.5q-10 22 -27.5 32.5t-41.5 13.5q-49 6 -98.5 7.5t-91.5 1.5q-85 0 -126 -39t-41 -110q0 -81 54 -118
q21 -15 51.5 -25t62 -15.5t60.5 -7.5t48 -2q31 0 52.5 3.5t36.5 10.5t25 18.5t18 26.5q23 -43 90 -43h11t11 1zM77 -12q-23 20 -38.5 38.5t-25 37.5t-14 40t-4.5 47q0 81 44 128l-9 3q-2 27 -3.5 54.5t-1.5 56.5q0 40 2.5 80.5t8.5 82.5q43 4 90.5 6.5t91.5 4.5t82 3t62 1
q29 0 52 -4t44 -13.5t41 -26.5t43 -42q26 -29 39 -72t13 -106q0 -52 -1 -104.5t-1 -108.5q0 -23 1 -41.5t4.5 -35.5t10 -34.5t16.5 -37.5q-12 -7 -29 -9.5t-33 -2.5q-55 0 -87 25q-19 -21 -50 -31t-85 -10q-31 0 -66 2t-70 9.5t-68 21.5t-59 38zM386 729q0 87 -95 87
q-19 0 -36.5 -5t-31.5 -16.5t-22.5 -29.5t-8.5 -44q0 -37 22.5 -59t67.5 -22q19 0 37.5 4t33.5 13.5t24 27t9 44.5zM335 727q0 -21 -13.5 -30.5t-35.5 -9.5q-40 0 -40 40q0 18 11 30t34 12q17 0 30.5 -8t13.5 -34zM320 574q-30 0 -58 10.5t-50.5 30t-36 46.5t-13.5 60
q0 34 11 57.5t29 38.5t41 22t48 7q47 0 78 -19t49.5 -44.5t26 -51.5t7.5 -40q0 -35 -11.5 -58t-30.5 -36t-42.5 -18t-47.5 -5z" />
    <glyph glyph-name="AE" unicode="&#xc6;" horiz-adv-x="1026" 
d="M77 -12q-24 21 -39.5 40.5t-25 39t-13.5 40t-4 43.5q0 81 44 128l-9 5q-1 11 -2 27.5t-1.5 34t-1 33.5t-0.5 27q0 33 2.5 70t8.5 80q43 4 90.5 6.5t91.5 4.5t82 3t62 1q29 0 54 -6t46 -15q46 21 118 29.5t164 8.5q56 0 93.5 -16t70.5 -53q21 -23 35 -43.5t22.5 -43
t12.5 -50t4 -64.5q0 -118 -66 -167l28 -27q0 -101 -15 -197q-40 1 -84 2.5t-88 3.5t-86 5t-78 7h-2q-59 12 -91 38q-27 -26 -68 -46t-92 -20q-30 0 -65.5 2.5t-70.5 10t-68 21.5t-59 37zM558 11q35 -5 65 -8t64 -4.5t77 -2.5t103 -2q6 34 8.5 67.5t2.5 68.5
q-29 -2 -65.5 -4.5t-74 -4.5t-71 -3t-56.5 -1q-25 0 -34.5 19.5t-9.5 49.5q32 -2 82 -4t94 -2q173 0 173 176q0 102 -42 152t-130 50q-100 0 -170 -8.5t-112 -34.5q-40 25 -100 25q-24 0 -60 -0.5t-77 -2t-83 -4t-79 -5.5q-4 -31 -6 -61t-2 -61q0 -43 3 -88q34 5 76.5 8.5
t84.5 6t80.5 4t65.5 1.5q47 0 68 -13.5t21 -50.5q0 -8 -0.5 -14.5t-1.5 -14.5q-10 22 -27.5 32.5t-41.5 13.5q-49 6 -98.5 7.5t-91.5 1.5q-85 0 -126 -39t-41 -110q0 -81 54 -118q21 -15 51.5 -25t62 -15.5t60.5 -7.5t48 -2q27 0 51 7t44.5 18t36 25.5t26.5 28.5
q16 -20 39.5 -33t58.5 -18zM428 127q-27 0 -57.5 1t-59.5 2t-54.5 2.5t-43.5 2.5q-31 1 -31 33q0 47 23 47q16 0 44.5 -1t61 -2.5t64.5 -3.5t55 -4q26 -3 26 -41q0 -20 -7 -28t-21 -8zM493 265q0 5 -1 10t-1 10q0 28 11.5 44t34.5 16h50t57.5 -0.5t52.5 -1.5t35 -3
t18.5 -10.5t7.5 -25.5q0 -19 -7 -25.5t-23 -8.5q-18 -2 -46 -2.5t-60 -1.5t-66 -1h-63z" />
    <glyph glyph-name="Ccedilla" unicode="&#xc7;" horiz-adv-x="644" 
d="M0 0zM440 179q-6 -9 -12 -16t-14 -15q-20 -1 -41 -1.5t-42 -0.5q-47 0 -96 1t-105 3q-7 60 -11.5 122.5t-4.5 131.5q78 -2 155.5 -5.5t158.5 -11.5q9 -10 16 -24t13 -29q27 38 50.5 77.5t45.5 83.5q-11 53 -53 74t-125 21q-25 0 -54.5 -0.5t-57 -1t-49.5 -1.5t-31 -1
q-80 -5 -118.5 -51t-38.5 -121q0 -94 2 -169.5t16.5 -129t47.5 -82t96 -28.5q17 0 46 2t62 5t66 7t59 7q99 13 119 77q-40 39 -100 76zM432 221q25 -16 47.5 -31t43.5 -32.5t42.5 -37.5t44.5 -47q-32 -98 -147 -113q-26 -3 -59.5 -7t-67.5 -7t-63.5 -5t-46.5 -2q-25 0 -44 4
t-36 11.5t-34 19.5t-37 28q-30 24 -46 57.5t-23.5 82.5t-9 116t-1.5 156q0 87 48 142.5t139 60.5q12 1 34.5 1.5t50 1t56 1t52.5 0.5q38 0 66 -4t51 -14t43.5 -27.5t44.5 -43.5q14 -17 25 -36.5t16 -41.5q-24 -48 -56.5 -101t-77.5 -115l-38 33l-21 53q-35 3 -64.5 5
t-59 3.5t-59.5 2.5t-65 2q1 -42 2.5 -81t5.5 -77q33 -1 66.5 -2t67.5 -1q20 0 39.5 0.5t39.5 1.5zM197 -220q0 33 1.5 67t5.5 67q45 4 94 6t103 2l35 -40q0 -39 -3 -65.5t-7 -46.5q-8 -12 -17 -22t-20 -20t-24.5 -21t-31.5 -24q-23 11 -43 27t-38 35h-14zM303 -254
q16 17 31 35.5t29 38.5q2 15 4.5 33t2.5 39q-35 0 -69.5 -2t-69.5 -4q-2 -19 -2.5 -37.5t-0.5 -38.5q15 1 30.5 1.5t30.5 2.5q-6 -11 -13 -19.5t-13 -18.5q9 -12 19 -18.5t21 -11.5z" />
    <glyph glyph-name="Egrave" unicode="&#xc8;" horiz-adv-x="641" 
d="M0 0zM114 265q0 5 -0.5 10t-0.5 10q0 28 11.5 44t34.5 16h49.5t57 -0.5t52.5 -1.5t36 -3q25 -3 25 -36q0 -18 -6.5 -25t-23.5 -9q-18 -2 -46 -2.5t-60 -1.5t-66 -1h-63zM180 11q72 -8 154 -11.5t154 -5.5q7 34 9.5 67.5t2.5 68.5q-29 -2 -66 -4.5t-74 -4.5t-71 -3t-56 -1
q-26 0 -35.5 19.5t-9.5 49.5q16 -1 37 -2t44.5 -2t48 -1.5t47.5 -0.5q172 0 172 176q0 102 -41.5 152t-129.5 50q-86 0 -150.5 -6t-107.5 -23.5t-64 -50t-21 -84.5q0 -18 1 -43t3.5 -53.5t5.5 -58.5t7 -58q4 -37 13 -65.5t25 -49.5t40.5 -34.5t61.5 -20.5zM212 -55
q-29 5 -61.5 18.5t-72.5 53.5q-31 27 -46 66.5t-22 93.5q-4 28 -7 58.5t-5.5 59.5t-3.5 54.5t-1 44.5q0 63 23 101t69.5 58.5t116.5 27.5t164 7q57 0 101.5 -20t80.5 -68q12 -16 22 -33t17.5 -38t11.5 -48t4 -63q0 -118 -66 -167l29 -27q0 -50 -4 -98.5t-13 -98.5
q-40 0 -86.5 1.5t-92.5 3.5t-87.5 5.5t-70.5 7.5zM134 760q16 -7 36.5 -18.5t43 -25t46 -29t44.5 -31.5q14 11 26 24t23 30q-42 37 -87 73t-83 55q-14 -14 -27 -33.5t-22 -44.5zM98 738q17 51 36.5 82.5t42.5 54.5q51 -25 112.5 -75t136.5 -123q-20 -34 -42.5 -53t-42.5 -37
q-50 37 -109 74.5t-134 76.5z" />
    <glyph glyph-name="Eacute" unicode="&#xc9;" horiz-adv-x="641" 
d="M0 0zM114 246q0 5 -0.5 10t-0.5 10q0 28 11.5 44t34.5 16h49.5t57 -0.5t52.5 -1.5t36 -3q25 -3 25 -36q0 -18 -6.5 -25t-23.5 -9q-18 -2 -46 -2.5t-60 -1.5t-66 -1h-63zM180 -8q72 -8 154 -11.5t154 -5.5q7 34 9.5 67.5t2.5 68.5q-29 -2 -66 -4.5t-74 -4.5t-71 -3t-56 -1
q-26 0 -35.5 19.5t-9.5 49.5q16 -1 37 -2t44.5 -2t48 -1.5t47.5 -0.5q172 0 172 176q0 102 -41.5 152t-129.5 50q-86 0 -150.5 -6t-107.5 -23.5t-64 -50t-21 -84.5q0 -18 1 -43t3.5 -53.5t5.5 -58.5t7 -58q4 -37 13 -65.5t25 -49.5t40.5 -34.5t61.5 -20.5zM212 -74
q-29 5 -61.5 18.5t-72.5 53.5q-31 27 -46 66.5t-22 93.5q-4 28 -7 58.5t-5.5 59.5t-3.5 54.5t-1 44.5q0 63 23 101t69.5 58.5t116.5 27.5t164 7q57 0 101.5 -20t80.5 -68q12 -16 22 -33t17.5 -38t11.5 -48t4 -63q0 -118 -66 -167l29 -27q0 -50 -4 -98.5t-13 -98.5
q-40 0 -86.5 1.5t-92.5 3.5t-87.5 5.5t-70.5 7.5zM399 855q25 -28 42.5 -49t30 -38t22 -31.5t18.5 -28.5q-31 -16 -60 -31.5t-59 -32t-61.5 -34t-66.5 -36.5q-36 38 -56.5 67.5t-34.5 62.5q26 23 54 45.5t56.5 42.5t57 36.5t57.5 26.5zM244 636q50 35 96.5 65.5t93.5 55.5
q-11 17 -23 32t-24 29q-39 -14 -86 -49t-91 -74q8 -18 16.5 -32t17.5 -27z" />
    <glyph glyph-name="Ecircumflex" unicode="&#xca;" horiz-adv-x="641" 
d="M0 0zM114 246q0 5 -0.5 10t-0.5 10q0 28 11.5 44t34.5 16h49.5t57 -0.5t52.5 -1.5t36 -3q25 -3 25 -36q0 -18 -6.5 -25t-23.5 -9q-18 -2 -46 -2.5t-60 -1.5t-66 -1h-63zM180 -8q72 -8 154 -11.5t154 -5.5q7 34 9.5 67.5t2.5 68.5q-29 -2 -66 -4.5t-74 -4.5t-71 -3t-56 -1
q-26 0 -35.5 19.5t-9.5 49.5q16 -1 37 -2t44.5 -2t48 -1.5t47.5 -0.5q172 0 172 176q0 102 -41.5 152t-129.5 50q-86 0 -150.5 -6t-107.5 -23.5t-64 -50t-21 -84.5q0 -18 1 -43t3.5 -53.5t5.5 -58.5t7 -58q4 -37 13 -65.5t25 -49.5t40.5 -34.5t61.5 -20.5zM212 -74
q-29 5 -61.5 18.5t-72.5 53.5q-31 27 -46 66.5t-22 93.5q-4 28 -7 58.5t-5.5 59.5t-3.5 54.5t-1 44.5q0 63 23 101t69.5 58.5t116.5 27.5t164 7q57 0 101.5 -20t80.5 -68q12 -16 22 -33t17.5 -38t11.5 -48t4 -63q0 -118 -66 -167l29 -27q0 -50 -4 -98.5t-13 -98.5
q-40 0 -86.5 1.5t-92.5 3.5t-87.5 5.5t-70.5 7.5zM436 685q-13 10 -27 22.5t-32 28.5t-40 36t-50 46q-26 -28 -63 -64.5t-80 -73.5q26 -27 53 -44q23 16 41 30.5t43 38.5q24 -18 46.5 -36t46.5 -33q19 11 33.5 23.5t28.5 25.5zM514 653q-15 -17 -28 -29.5t-25 -22t-24 -17.5
t-26 -17q-18 10 -42.5 26.5t-47.5 36.5q-19 -17 -38 -31.5t-48 -32.5q-36 26 -68.5 53t-66.5 62q55 48 103.5 95t82.5 82q28 -27 54 -51t53 -48t56.5 -50t64.5 -56z" />
    <glyph glyph-name="Edieresis" unicode="&#xcb;" horiz-adv-x="641" 
d="M0 0zM114 265q0 5 -0.5 10t-0.5 10q0 28 11.5 44t34.5 16h49.5t57 -0.5t52.5 -1.5t36 -3q25 -3 25 -36q0 -18 -6.5 -25t-23.5 -9q-18 -2 -46 -2.5t-60 -1.5t-66 -1h-63zM180 11q72 -8 154 -11.5t154 -5.5q7 34 9.5 67.5t2.5 68.5q-29 -2 -66 -4.5t-74 -4.5t-71 -3t-56 -1
q-26 0 -35.5 19.5t-9.5 49.5q16 -1 37 -2t44.5 -2t48 -1.5t47.5 -0.5q172 0 172 176q0 102 -41.5 152t-129.5 50q-86 0 -150.5 -6t-107.5 -23.5t-64 -50t-21 -84.5q0 -18 1 -43t3.5 -53.5t5.5 -58.5t7 -58q4 -37 13 -65.5t25 -49.5t40.5 -34.5t61.5 -20.5zM212 -55
q-29 5 -61.5 18.5t-72.5 53.5q-31 27 -46 66.5t-22 93.5q-4 28 -7 58.5t-5.5 59.5t-3.5 54.5t-1 44.5q0 63 23 101t69.5 58.5t116.5 27.5t164 7q57 0 101.5 -20t80.5 -68q12 -16 22 -33t17.5 -38t11.5 -48t4 -63q0 -118 -66 -167l29 -27q0 -50 -4 -98.5t-13 -98.5
q-40 0 -86.5 1.5t-92.5 3.5t-87.5 5.5t-70.5 7.5zM310 719q35 -4 68.5 -6.5t65.5 -4.5q3 23 6.5 46.5t4.5 48.5q-37 4 -73 6.5t-71 2.5zM114 709q70 0 135 6q3 22 5 46.5t2 50.5q-38 -2 -73.5 -3t-71.5 -6zM84 679l-4 152q18 2 45.5 4t57 3.5t57.5 2.5t46 2q57 -2 106 -4.5
t95 -7.5l36 -40q-2 -37 -5.5 -75.5t-7.5 -73.5q-16 0 -41.5 2t-53.5 4.5t-55 5.5t-47 7l-1 -10q-47 -4 -93 -6t-94 -2z" />
    <glyph glyph-name="Igrave" unicode="&#xcc;" horiz-adv-x="260" 
d="M0 0zM36 -21q52 5 91 19q12 129 22 265.5t19 277.5q-71 17 -151 18q9 -144 14 -287t5 -293zM6 -22q0 150 -6 309t-14 303q58 -1 111 -7.5t103 -17.5l36 -40q-5 -70 -10 -146.5t-10.5 -152.5t-11.5 -149.5t-12 -137.5q-31 -10 -60 -17t-55 -9zM-55 760q16 -7 36.5 -18.5
t43 -25t46 -29t44.5 -31.5q14 11 26 24t23 30q-42 37 -87 73t-83 55q-14 -14 -27 -33.5t-22 -44.5zM-91 738q17 51 36.5 82.5t42.5 54.5q51 -25 112.5 -75t136.5 -123q-20 -34 -42.5 -53t-42.5 -37q-50 37 -109 74.5t-134 76.5z" />
    <glyph glyph-name="Iacute" unicode="&#xcd;" horiz-adv-x="260" 
d="M0 0zM36 -39q52 5 91 19q12 129 22 265.5t19 277.5q-71 17 -151 18q9 -144 14 -287t5 -293zM6 -40q0 150 -6 309t-14 303q58 -1 111 -7.5t103 -17.5l36 -40q-5 -70 -10 -146.5t-10.5 -152.5t-11.5 -149.5t-12 -137.5q-31 -10 -60 -17t-55 -9zM208 855q25 -28 42.5 -49
t30 -38t22 -31.5t18.5 -28.5q-31 -16 -60 -31.5t-59 -32t-61.5 -34t-66.5 -36.5q-36 38 -56.5 67.5t-34.5 62.5q26 23 54 45.5t56.5 42.5t57 36.5t57.5 26.5zM53 636q50 35 96.5 65.5t93.5 55.5q-11 17 -23 32t-24 29q-39 -14 -86 -49t-91 -74q8 -18 16.5 -32t17.5 -27z" />
    <glyph glyph-name="Icircumflex" unicode="&#xce;" horiz-adv-x="260" 
d="M0 0zM36 -49q52 5 91 19q12 129 22 265.5t19 277.5q-71 17 -151 18q9 -144 14 -287t5 -293zM6 -50q0 150 -6 309t-14 303q58 -1 111 -7.5t103 -17.5l36 -40q-5 -70 -10 -146.5t-10.5 -152.5t-11.5 -149.5t-12 -137.5q-31 -10 -60 -17t-55 -9zM239 685q-13 10 -27 22.5
t-32 28.5t-40 36t-50 46q-26 -28 -63 -64.5t-80 -73.5q26 -27 53 -44q23 16 41 30.5t43 38.5q24 -18 46.5 -36t46.5 -33q19 11 33.5 23.5t28.5 25.5zM317 653q-15 -17 -28 -29.5t-25 -22t-24 -17.5t-26 -17q-18 10 -42.5 26.5t-47.5 36.5q-19 -17 -38 -31.5t-48 -32.5
q-36 26 -68.5 53t-66.5 62q55 48 103.5 95t82.5 82q28 -27 54 -51t53 -48t56.5 -50t64.5 -56z" />
    <glyph glyph-name="Idieresis" unicode="&#xcf;" horiz-adv-x="260" 
d="M0 0zM36 9q52 5 91 19q12 129 22 265.5t19 277.5q-71 17 -151 18q9 -144 14 -287t5 -293zM6 8q0 150 -6 309t-14 303q58 -1 111 -7.5t103 -17.5l36 -40q-5 -70 -10 -146.5t-10.5 -152.5t-11.5 -149.5t-12 -137.5q-31 -10 -60 -17t-55 -9zM120 719q35 -4 68.5 -6.5
t65.5 -4.5q3 23 6.5 46.5t4.5 48.5q-37 4 -73 6.5t-71 2.5zM-76 709q70 0 135 6q3 22 5 46.5t2 50.5q-38 -2 -73.5 -3t-71.5 -6zM-106 679l-4 152q18 2 45.5 4t57 3.5t57.5 2.5t46 2q57 -2 106 -4.5t95 -7.5l36 -40q-2 -37 -5.5 -75.5t-7.5 -73.5q-16 0 -41.5 2t-53.5 4.5
t-55 5.5t-47 7l-1 -10q-47 -4 -93 -6t-94 -2z" />
    <glyph glyph-name="Eth" unicode="&#xd0;" horiz-adv-x="702" 
d="M415 372q9 -75 9 -146q0 -30 -1 -60t-3 -60q-36 -2 -72 -3.5t-71 -1.5q-40 0 -80 1.5t-81 3.5v40.5t1 40.5l165 -2q17 36 22 85l-184 2l5 66q74 17 145.5 24.5t144.5 9.5zM51 -8q19 -1 49.5 -1.5t67 -1.5t75.5 -1.5t75.5 -1t68.5 -0.5h54q123 0 137 169q5 62 10 122.5
t5 118.5q0 88 -39.5 133.5t-119.5 45.5q-29 0 -78 -3.5t-104.5 -9t-112.5 -12t-102 -12.5l6 -266h-41q0 -23 1.5 -43.5t4.5 -41.5h37zM16 127l-33 30q-6 34 -9 69t-3 76h42l-7 264q49 6 110.5 13t121.5 13t112.5 9.5t83.5 3.5q36 0 75 -13t72 -42.5t55 -76.5t23 -115
q0 -22 -1 -45.5t-3 -52t-4.5 -64t-6.5 -81.5q-15 -195 -165 -195q-22 0 -56 0.5t-74 1t-82.5 1t-81.5 1.5t-72 2t-52 2l-40 36zM393 226q0 36 -3 77l-53 -4l36 -40q-8 -72 -30 -127l48 3q2 23 2 45.5v45.5z" />
    <glyph glyph-name="Ntilde" unicode="&#xd1;" horiz-adv-x="632" 
d="M0 0zM392 -5q30 0 61.5 0.5t60.5 2.5q6 97 9 198t3 201q0 80 -39 119t-113 39h-74.5t-72.5 -2q-59 -3 -97 -66q-19 62 -116 75q6 -141 10 -280.5t7 -279.5q29 -9 59.5 -13t61.5 -6q3 97 9 188t17 173q73 3 152 3h38.5t37.5 -1q-2 -91 -5.5 -178t-8.5 -173zM362 -5
q2 54 4.5 94.5t4 73t3 60.5t1.5 58h-39t-32 -0.5l-30 -1t-33 -1.5q-10 -78 -15 -170t-9 -194q-45 4 -87.5 9.5t-87.5 18.5l-40 37q-2 70 -4 149t-4.5 160t-5 160t-5.5 149q57 -8 94.5 -21.5t55.5 -33.5q41 40 93 41q34 2 73 2h75q28 0 50.5 -4t42.5 -14t39 -25.5t39 -38.5
q47 -53 47 -144q0 -50 -1 -104.5t-2.5 -110t-4.5 -109.5t-6 -102q-15 -1 -34 -2t-39.5 -1.5t-40 -0.5h-34.5zM389 780q-15 -25 -27 -35t-24 -10q-10 0 -19 6.5t-20 14t-24.5 14t-31.5 6.5q-68 0 -115 -80q14 -12 27 -23t26 -19q31 45 51 45q12 0 23.5 -6.5t23 -14
t24.5 -13.5t29 -6q38 0 67 25.5t44 60.5q-12 13 -26 21.5t-28 13.5zM372 812q19 -5 34.5 -11t31 -16.5t34 -28t42.5 -44.5q-11 -24 -26 -46t-33.5 -38t-40 -25.5t-44.5 -9.5q-18 0 -33.5 6t-28.5 13.5t-22.5 14t-15.5 6.5q-7 0 -16 -8.5t-27 -40.5q-14 8 -27.5 16.5t-29 20
t-35 28.5t-46.5 42q68 115 154 115q30 0 54 -12.5t41 -28.5q1 0 3.5 1.5t6.5 6.5t10 14t14 25z" />
    <glyph glyph-name="Ograve" unicode="&#xd2;" 
d="M0 0zM378 355q9 -66 12 -129.5t5 -126.5q-36 0 -76 0.5t-79.5 1.5t-75.5 2.5t-64 3.5q1 58 3.5 115.5t9.5 114.5q67 9 133 12.5t132 5.5zM193 -10q56 -2 110 -4.5t109 -2.5q68 0 100.5 43.5t37.5 128.5q5 83 9 143t4 88q0 73 -37 116t-112 48q-63 3 -122.5 4t-119.5 1
q-40 0 -68 -16.5t-46 -43.5t-26 -61t-8 -68q0 -62 2 -119t5 -86q9 -88 53 -128.5t109 -42.5zM77 -6q-27 22 -43 47.5t-25 66t-12 102t-3 156.5q0 40 10 79t31 70t55 50.5t82 19.5q60 0 120.5 -0.5t122.5 -3.5q49 -5 87 -25t76 -67q25 -31 38 -61.5t13 -79.5q0 -22 -2 -65
t-6 -100l-5 -68q-8 -97 -47.5 -147.5t-116.5 -50.5q-56 0 -113 1t-109 6q-22 2 -40.5 6t-36.5 12.5t-36 21t-40 30.5zM364 129q-3 73 -9 158q-45 -2 -89 -5t-89 -8q-5 -37 -7 -71.5t-3 -69.5q45 -2 95.5 -3t101.5 -1zM148 760q16 -7 36.5 -18.5t43 -25t46 -29t44.5 -31.5
q14 11 26 24t23 30q-42 37 -87 73t-83 55q-14 -14 -27 -33.5t-22 -44.5zM112 738q17 51 36.5 82.5t42.5 54.5q51 -25 112.5 -75t136.5 -123q-20 -34 -42.5 -53t-42.5 -37q-50 37 -109 74.5t-134 76.5z" />
    <glyph glyph-name="Oacute" unicode="&#xd3;" 
d="M0 0zM378 336q9 -66 12 -129.5t5 -126.5q-36 0 -76 0.5t-79.5 1.5t-75.5 2.5t-64 3.5q1 58 3.5 115.5t9.5 114.5q67 9 133 12.5t132 5.5zM193 -29q56 -2 110 -4.5t109 -2.5q68 0 100.5 43.5t37.5 128.5q5 83 9 143t4 88q0 73 -37 116t-112 48q-63 3 -122.5 4t-119.5 1
q-40 0 -68 -16.5t-46 -43.5t-26 -61t-8 -68q0 -62 2 -119t5 -86q9 -88 53 -128.5t109 -42.5zM77 -25q-27 22 -43 47.5t-25 66t-12 102t-3 156.5q0 40 10 79t31 70t55 50.5t82 19.5q60 0 120.5 -0.5t122.5 -3.5q49 -5 87 -25t76 -67q25 -31 38 -61.5t13 -79.5q0 -22 -2 -65
t-6 -100l-5 -68q-8 -97 -47.5 -147.5t-116.5 -50.5q-56 0 -113 1t-109 6q-22 2 -40.5 6t-36.5 12.5t-36 21t-40 30.5zM364 110q-3 73 -9 158q-45 -2 -89 -5t-89 -8q-5 -37 -7 -71.5t-3 -69.5q45 -2 95.5 -3t101.5 -1zM415 855q25 -28 42.5 -49t30 -38t22 -31.5t18.5 -28.5
q-31 -16 -60 -31.5t-59 -32t-61.5 -34t-66.5 -36.5q-36 38 -56.5 67.5t-34.5 62.5q26 23 54 45.5t56.5 42.5t57 36.5t57.5 26.5zM260 636q50 35 96.5 65.5t93.5 55.5q-11 17 -23 32t-24 29q-39 -14 -86 -49t-91 -74q8 -18 16.5 -32t17.5 -27z" />
    <glyph glyph-name="Ocircumflex" unicode="&#xd4;" 
d="M0 0zM378 336q9 -66 12 -129.5t5 -126.5q-36 0 -76 0.5t-79.5 1.5t-75.5 2.5t-64 3.5q1 58 3.5 115.5t9.5 114.5q67 9 133 12.5t132 5.5zM193 -29q56 -2 110 -4.5t109 -2.5q68 0 100.5 43.5t37.5 128.5q5 83 9 143t4 88q0 73 -37 116t-112 48q-63 3 -122.5 4t-119.5 1
q-40 0 -68 -16.5t-46 -43.5t-26 -61t-8 -68q0 -62 2 -119t5 -86q9 -88 53 -128.5t109 -42.5zM77 -25q-27 22 -43 47.5t-25 66t-12 102t-3 156.5q0 40 10 79t31 70t55 50.5t82 19.5q60 0 120.5 -0.5t122.5 -3.5q49 -5 87 -25t76 -67q25 -31 38 -61.5t13 -79.5q0 -22 -2 -65
t-6 -100l-5 -68q-8 -97 -47.5 -147.5t-116.5 -50.5q-56 0 -113 1t-109 6q-22 2 -40.5 6t-36.5 12.5t-36 21t-40 30.5zM364 110q-3 73 -9 158q-45 -2 -89 -5t-89 -8q-5 -37 -7 -71.5t-3 -69.5q45 -2 95.5 -3t101.5 -1zM443 685q-13 10 -27 22.5t-32 28.5t-40 36t-50 46
q-26 -28 -63 -64.5t-80 -73.5q26 -27 53 -44q23 16 41 30.5t43 38.5q24 -18 46.5 -36t46.5 -33q19 11 33.5 23.5t28.5 25.5zM521 653q-15 -17 -28 -29.5t-25 -22t-24 -17.5t-26 -17q-18 10 -42.5 26.5t-47.5 36.5q-19 -17 -38 -31.5t-48 -32.5q-36 26 -68.5 53t-66.5 62
q55 48 103.5 95t82.5 82q28 -27 54 -51t53 -48t56.5 -50t64.5 -56z" />
    <glyph glyph-name="Otilde" unicode="&#xd5;" 
d="M0 0zM378 355q9 -66 12 -129.5t5 -126.5q-36 0 -76 0.5t-79.5 1.5t-75.5 2.5t-64 3.5q1 58 3.5 115.5t9.5 114.5q67 9 133 12.5t132 5.5zM193 -10q56 -2 110 -4.5t109 -2.5q68 0 100.5 43.5t37.5 128.5q5 83 9 143t4 88q0 73 -37 116t-112 48q-63 3 -122.5 4t-119.5 1
q-40 0 -68 -16.5t-46 -43.5t-26 -61t-8 -68q0 -62 2 -119t5 -86q9 -88 53 -128.5t109 -42.5zM77 -6q-27 22 -43 47.5t-25 66t-12 102t-3 156.5q0 40 10 79t31 70t55 50.5t82 19.5q60 0 120.5 -0.5t122.5 -3.5q49 -5 87 -25t76 -67q25 -31 38 -61.5t13 -79.5q0 -22 -2 -65
t-6 -100l-5 -68q-8 -97 -47.5 -147.5t-116.5 -50.5q-56 0 -113 1t-109 6q-22 2 -40.5 6t-36.5 12.5t-36 21t-40 30.5zM364 129q-3 73 -9 158q-45 -2 -89 -5t-89 -8q-5 -37 -7 -71.5t-3 -69.5q45 -2 95.5 -3t101.5 -1zM401 780q-15 -25 -27 -35t-24 -10q-10 0 -19 6.5t-20 14
t-24.5 14t-31.5 6.5q-68 0 -115 -80q14 -12 27 -23t26 -19q31 45 51 45q12 0 23.5 -6.5t23 -14t24.5 -13.5t29 -6q38 0 67 25.5t44 60.5q-12 13 -26 21.5t-28 13.5zM384 812q19 -5 34.5 -11t31 -16.5t34 -28t42.5 -44.5q-11 -24 -26 -46t-33.5 -38t-40 -25.5t-44.5 -9.5
q-18 0 -33.5 6t-28.5 13.5t-22.5 14t-15.5 6.5q-7 0 -16 -8.5t-27 -40.5q-14 8 -27.5 16.5t-29 20t-35 28.5t-46.5 42q68 115 154 115q30 0 54 -12.5t41 -28.5q1 0 3.5 1.5t6.5 6.5t10 14t14 25z" />
    <glyph glyph-name="Odieresis" unicode="&#xd6;" 
d="M0 0zM378 355q9 -66 12 -129.5t5 -126.5q-36 0 -76 0.5t-79.5 1.5t-75.5 2.5t-64 3.5q1 58 3.5 115.5t9.5 114.5q67 9 133 12.5t132 5.5zM193 -10q56 -2 110 -4.5t109 -2.5q68 0 100.5 43.5t37.5 128.5q5 83 9 143t4 88q0 73 -37 116t-112 48q-63 3 -122.5 4t-119.5 1
q-40 0 -68 -16.5t-46 -43.5t-26 -61t-8 -68q0 -62 2 -119t5 -86q9 -88 53 -128.5t109 -42.5zM77 -6q-27 22 -43 47.5t-25 66t-12 102t-3 156.5q0 40 10 79t31 70t55 50.5t82 19.5q60 0 120.5 -0.5t122.5 -3.5q49 -5 87 -25t76 -67q25 -31 38 -61.5t13 -79.5q0 -22 -2 -65
t-6 -100l-5 -68q-8 -97 -47.5 -147.5t-116.5 -50.5q-56 0 -113 1t-109 6q-22 2 -40.5 6t-36.5 12.5t-36 21t-40 30.5zM364 129q-3 73 -9 158q-45 -2 -89 -5t-89 -8q-5 -37 -7 -71.5t-3 -69.5q45 -2 95.5 -3t101.5 -1zM325 719q35 -4 68.5 -6.5t65.5 -4.5q3 23 6.5 46.5
t4.5 48.5q-37 4 -73 6.5t-71 2.5zM129 709q70 0 135 6q3 22 5 46.5t2 50.5q-38 -2 -73.5 -3t-71.5 -6zM99 679l-4 152q18 2 45.5 4t57 3.5t57.5 2.5t46 2q57 -2 106 -4.5t95 -7.5l36 -40q-2 -37 -5.5 -75.5t-7.5 -73.5q-16 0 -41.5 2t-53.5 4.5t-55 5.5t-47 7l-1 -10
q-47 -4 -93 -6t-94 -2z" />
    <glyph glyph-name="multiply" unicode="&#xd7;" horiz-adv-x="490" 
d="M209 201q27 -25 53.5 -49.5t55.5 -47.5q14 13 26.5 25t23.5 26q-26 23 -51 48t-47 52q26 26 53 53.5t55 56.5l-66 63q-26 -29 -51 -56t-51 -53q-54 57 -102 117q-20 -19 -35 -35t-29 -31q26 -29 52.5 -56.5t53.5 -55.5l-105 -104l53 -50zM3 154l105 104l-104 113
q7 7 20.5 21.5t29.5 31t31 32.5t25 25q9 -13 22 -30t27.5 -33.5t28 -31t22.5 -23.5l101 107l145 -143q-29 -29 -55.5 -57t-53.5 -54l99 -95q-20 -24 -39 -44t-50 -49l-110 97l-112 -96z" />
    <glyph glyph-name="Oslash" unicode="&#xd8;" horiz-adv-x="675" 
d="M7 -55l46 75q-21 22 -32.5 49.5t-17.5 67.5t-7.5 95.5t-1.5 133.5q0 40 10 79t31 70t55 50.5t82 19.5h58t57.5 -0.5t62.5 -2t73 -3.5q13 17 24 35t25 36q36 -13 62 -26.5t44 -24.5l35 -40l-38 -65q30 -29 42 -64.5t12 -81.5q0 -11 -1 -28.5t-2.5 -45t-4 -66.5t-5.5 -93
q-7 -97 -46.5 -147.5t-119.5 -50.5q-76 0 -130.5 2t-82.5 4l-48 -84q-32 14 -66.5 29.5t-73.5 39.5zM184 -8q9 -4 68.5 -6.5t159.5 -2.5q67 0 100 43.5t38 128.5q5 83 9 143t4 88q0 100 -63 139l37 62q-10 5 -23.5 13t-30.5 13l-46 -65q-80 5 -142.5 6t-122.5 1
q-40 0 -68 -16.5t-46 -43.5t-26 -61t-8 -68q0 -82 2 -138.5t9 -95t20.5 -63.5t36.5 -44l-43 -70q23 -14 45 -24.5t45 -19.5zM100 107q1 58 3.5 115.5t9.5 114.5q48 7 95.5 10t95.5 5q-41 -61 -80.5 -122.5t-80.5 -124.5zM395 99h-72.5t-75.5 1q35 58 68 114.5t67 113.5
q6 -60 8.5 -116t4.5 -113z" />
    <glyph glyph-name="Ugrave" unicode="&#xd9;" horiz-adv-x="649" 
d="M0 0zM420 138q-36 -3 -72 -3q-31 0 -62.5 2t-63.5 5q-8 95 -14 198t-9 218q-48 0 -94 -1.5t-93 -6.5q8 -96 19.5 -201.5t23.5 -203.5q10 -77 41.5 -119.5t99.5 -42.5q29 0 60.5 0.5t61 1.5t54 2t39.5 2q32 2 52 13.5t32 33t18.5 54t11.5 77.5q10 87 17.5 177.5
t13.5 183.5q-55 0 -110 -9q-2 -101 -9 -195t-17 -186zM281 168q17 -1 34 -1.5t34 -0.5h21.5t21.5 1q9 89 15.5 182.5t8.5 196.5q42 7 84.5 9.5t88.5 2.5l36 -40q-3 -46 -7 -97t-8.5 -102t-9 -100.5t-9.5 -92.5q-6 -48 -14 -84.5t-23.5 -62t-40 -39.5t-62.5 -17
q-15 -1 -40 -2t-54.5 -2t-61.5 -1.5t-62 -0.5q-24 0 -41.5 3.5t-33 11t-30 18.5t-30.5 25q-31 26 -48 66.5t-25 99.5q-6 49 -12.5 105.5t-12.5 114t-11.5 113.5t-8.5 104q59 5 120.5 7.5t127.5 2.5l36 -40q3 -104 6.5 -198t10.5 -182zM161 760q16 -7 36.5 -18.5t43 -25
t46 -29t44.5 -31.5q14 11 26 24t23 30q-42 37 -87 73t-83 55q-14 -14 -27 -33.5t-22 -44.5zM125 738q17 51 36.5 82.5t42.5 54.5q51 -25 112.5 -75t136.5 -123q-20 -34 -42.5 -53t-42.5 -37q-50 37 -109 74.5t-134 76.5z" />
    <glyph glyph-name="Uacute" unicode="&#xda;" horiz-adv-x="649" 
d="M0 0zM420 138q-36 -3 -72 -3q-31 0 -62.5 2t-63.5 5q-8 95 -14 198t-9 218q-48 0 -94 -1.5t-93 -6.5q8 -96 19.5 -201.5t23.5 -203.5q10 -77 41.5 -119.5t99.5 -42.5q29 0 60.5 0.5t61 1.5t54 2t39.5 2q32 2 52 13.5t32 33t18.5 54t11.5 77.5q10 87 17.5 177.5
t13.5 183.5q-55 0 -110 -9q-2 -101 -9 -195t-17 -186zM281 168q17 -1 34 -1.5t34 -0.5h21.5t21.5 1q9 89 15.5 182.5t8.5 196.5q42 7 84.5 9.5t88.5 2.5l36 -40q-3 -46 -7 -97t-8.5 -102t-9 -100.5t-9.5 -92.5q-6 -48 -14 -84.5t-23.5 -62t-40 -39.5t-62.5 -17
q-15 -1 -40 -2t-54.5 -2t-61.5 -1.5t-62 -0.5q-24 0 -41.5 3.5t-33 11t-30 18.5t-30.5 25q-31 26 -48 66.5t-25 99.5q-6 49 -12.5 105.5t-12.5 114t-11.5 113.5t-8.5 104q59 5 120.5 7.5t127.5 2.5l36 -40q3 -104 6.5 -198t10.5 -182zM419 855q25 -28 42.5 -49t30 -38
t22 -31.5t18.5 -28.5q-31 -16 -60 -31.5t-59 -32t-61.5 -34t-66.5 -36.5q-36 38 -56.5 67.5t-34.5 62.5q26 23 54 45.5t56.5 42.5t57 36.5t57.5 26.5zM264 636q50 35 96.5 65.5t93.5 55.5q-11 17 -23 32t-24 29q-39 -14 -86 -49t-91 -74q8 -18 16.5 -32t17.5 -27z" />
    <glyph glyph-name="Ucircumflex" unicode="&#xdb;" horiz-adv-x="649" 
d="M0 0zM420 127q-36 -3 -72 -3q-31 0 -62.5 2t-63.5 5q-8 95 -14 198t-9 218q-48 0 -94 -1.5t-93 -6.5q8 -96 19.5 -201.5t23.5 -203.5q10 -77 41.5 -119.5t99.5 -42.5q29 0 60.5 0.5t61 1.5t54 2t39.5 2q32 2 52 13.5t32 33t18.5 54t11.5 77.5q10 87 17.5 177.5
t13.5 183.5q-55 0 -110 -9q-2 -101 -9 -195t-17 -186zM281 157q17 -1 34 -1.5t34 -0.5h21.5t21.5 1q9 89 15.5 182.5t8.5 196.5q42 7 84.5 9.5t88.5 2.5l36 -40q-3 -46 -7 -97t-8.5 -102t-9 -100.5t-9.5 -92.5q-6 -48 -14 -84.5t-23.5 -62t-40 -39.5t-62.5 -17
q-15 -1 -40 -2t-54.5 -2t-61.5 -1.5t-62 -0.5q-24 0 -41.5 3.5t-33 11t-30 18.5t-30.5 25q-31 26 -48 66.5t-25 99.5q-6 49 -12.5 105.5t-12.5 114t-11.5 113.5t-8.5 104q59 5 120.5 7.5t127.5 2.5l36 -40q3 -104 6.5 -198t10.5 -182zM463 685q-13 10 -27 22.5t-32 28.5
t-40 36t-50 46q-26 -28 -63 -64.5t-80 -73.5q26 -27 53 -44q23 16 41 30.5t43 38.5q24 -18 46.5 -36t46.5 -33q19 11 33.5 23.5t28.5 25.5zM541 653q-15 -17 -28 -29.5t-25 -22t-24 -17.5t-26 -17q-18 10 -42.5 26.5t-47.5 36.5q-19 -17 -38 -31.5t-48 -32.5
q-36 26 -68.5 53t-66.5 62q55 48 103.5 95t82.5 82q28 -27 54 -51t53 -48t56.5 -50t64.5 -56z" />
    <glyph glyph-name="Udieresis" unicode="&#xdc;" horiz-adv-x="649" 
d="M0 0zM420 138q-36 -3 -72 -3q-31 0 -62.5 2t-63.5 5q-8 95 -14 198t-9 218q-48 0 -94 -1.5t-93 -6.5q8 -96 19.5 -201.5t23.5 -203.5q10 -77 41.5 -119.5t99.5 -42.5q29 0 60.5 0.5t61 1.5t54 2t39.5 2q32 2 52 13.5t32 33t18.5 54t11.5 77.5q10 87 17.5 177.5
t13.5 183.5q-55 0 -110 -9q-2 -101 -9 -195t-17 -186zM281 168q17 -1 34 -1.5t34 -0.5h21.5t21.5 1q9 89 15.5 182.5t8.5 196.5q42 7 84.5 9.5t88.5 2.5l36 -40q-3 -46 -7 -97t-8.5 -102t-9 -100.5t-9.5 -92.5q-6 -48 -14 -84.5t-23.5 -62t-40 -39.5t-62.5 -17
q-15 -1 -40 -2t-54.5 -2t-61.5 -1.5t-62 -0.5q-24 0 -41.5 3.5t-33 11t-30 18.5t-30.5 25q-31 26 -48 66.5t-25 99.5q-6 49 -12.5 105.5t-12.5 114t-11.5 113.5t-8.5 104q59 5 120.5 7.5t127.5 2.5l36 -40q3 -104 6.5 -198t10.5 -182zM329 719q35 -4 68.5 -6.5t65.5 -4.5
q3 23 6.5 46.5t4.5 48.5q-37 4 -73 6.5t-71 2.5zM133 709q70 0 135 6q3 22 5 46.5t2 50.5q-38 -2 -73.5 -3t-71.5 -6zM103 679l-4 152q18 2 45.5 4t57 3.5t57.5 2.5t46 2q57 -2 106 -4.5t95 -7.5l36 -40q-2 -37 -5.5 -75.5t-7.5 -73.5q-16 0 -41.5 2t-53.5 4.5t-55 5.5
t-47 7l-1 -10q-47 -4 -93 -6t-94 -2z" />
    <glyph glyph-name="Yacute" unicode="&#xdd;" horiz-adv-x="567" 
d="M0 0zM161 -23q35 2 70 4.5t68 8.5q-4 39 -5 79t-1 82q52 98 99 198.5t90 206.5q-37 5 -73.5 8t-74.5 3q-26 -67 -59 -129t-71 -120q-17 61 -32.5 123t-27.5 131q-33 5 -66 7t-65 4q34 -109 73 -213t83 -206q-5 -45 -6.5 -92t-1.5 -95zM131 -39q0 22 0.5 48l1 52t2 51.5
t3.5 46.5q-42 99 -83.5 212t-83.5 245q51 -2 101 -6.5t98 -10.5l35 -40q6 -37 13 -70t15 -65q22 40 42.5 84t38.5 89q48 0 101.5 -4t109.5 -12l34 -39q-51 -125 -100.5 -233t-99.5 -204q0 -40 2 -83t7 -92q-55 -11 -94 -14t-74 -5zM362 855q25 -28 42.5 -49t30 -38t22 -31.5
t18.5 -28.5q-31 -16 -60 -31.5t-59 -32t-61.5 -34t-66.5 -36.5q-36 38 -56.5 67.5t-34.5 62.5q26 23 54 45.5t56.5 42.5t57 36.5t57.5 26.5zM207 636q50 35 96.5 65.5t93.5 55.5q-11 17 -23 32t-24 29q-39 -14 -86 -49t-91 -74q8 -18 16.5 -32t17.5 -27z" />
    <glyph glyph-name="Thorn" unicode="&#xde;" horiz-adv-x="614" 
d="M96 256q17 1 47 3t64 3.5t65.5 2.5t51.5 1q21 0 31 -8.5t10 -31.5q0 -20 -10.5 -31.5t-26.5 -11.5q-17 0 -46 1t-62.5 2.5t-67.5 3t-62 3.5q2 35 6 63zM36 -14q35 1 69.5 3.5t68.5 7.5q0 21 0.5 33.5t1 20.5t1 13t1.5 10q40 -4 92.5 -8t100.5 -4q38 0 60.5 13.5
t40.5 33.5q9 10 15.5 22t11 28.5t6.5 39t2 52.5q0 69 -8.5 108t-23.5 65q-38 63 -127 63q-13 0 -32 -0.5t-40.5 -1.5t-44.5 -3t-45 -4q-2 17 -2.5 35t-0.5 47l-76 -6t-71 -8v-560zM6 573q16 2 43.5 5t57.5 6t59 5t48 4l35 -40v-40q29 2 55 3.5t44 1.5q62 0 109.5 -34
t79.5 -84q17 -26 26.5 -68t9.5 -108q0 -36 -2.5 -62.5t-8 -47t-13.5 -35.5t-18 -27q-20 -23 -49 -39.5t-73 -16.5q-43 0 -86 3t-81 6q-1 -10 -1 -24t-1 -46q-48 -7 -96.5 -10.5t-97.5 -5.5l-40 36v618z" />
    <glyph glyph-name="germandbls" unicode="&#xdf;" horiz-adv-x="1170" 
d="M0 0zM528 594l35 -41q0 -36 -0.5 -77.5t-2 -83.5t-3 -80t-2.5 -66l-49 6q41 -38 54 -70.5t13 -67.5q0 -30 -5 -59t-19.5 -53t-41 -42t-70.5 -27q-21 -4 -43 -7t-50 -5t-66 -3t-92 -1h-29h-36.5t-38.5 0.5t-35 0.5l-40 36q2 50 5.5 101.5t15.5 111.5q15 -2 34 -4t40 -4
q-48 32 -77.5 79.5t-29.5 110.5q0 107 50 168t144 65zM190 552q-79 -3 -121.5 -56.5t-42.5 -146.5q0 -79 41.5 -116.5t126.5 -39.5q41 -2 85.5 -2.5t76.5 -1.5q40 -1 40 -36q0 -43 -29 -43q-14 0 -53.5 2.5t-87.5 6t-96 7.5t-78 7q-7 -35 -9 -73t-4 -77h110q53 0 90.5 1
t65 2.5t48.5 4.5t41 7q36 7 58.5 22.5t34.5 36t16 45t4 50.5q0 64 -38.5 93.5t-109.5 29.5q-22 0 -45.5 -0.5t-46 -1.5t-43.5 -1.5t-37 -0.5q-26 0 -26 33q0 20 10 31t30 11q13 0 47.5 -2.5t77 -6.5t86.5 -9.5t78 -10.5q3 56 5 114.5t2 130.5zM631 -39q84 1 140.5 3t94.5 5
t64 7.5t50 9.5q37 8 58.5 24t32.5 37.5t14 46.5t3 51q0 61 -37.5 90t-104.5 29q-23 0 -48 -1.5t-49.5 -3.5t-47 -3.5t-39.5 -1.5q-25 0 -25 36q0 40 47 40q18 0 50 -1.5t70 -4.5t77 -6.5t71 -6.5q11 59 17.5 116.5t8.5 127.5q-81 -2 -162.5 -7.5t-157.5 -13.5
q-77 -8 -117.5 -56t-40.5 -139q0 -85 42.5 -124t130.5 -39q41 0 85.5 1t76.5 1q42 0 42 -40q0 -23 -8.5 -32t-25.5 -9q-19 0 -60 1.5t-89 3.5t-94 4.5t-76 4.5q0 -39 2 -75t5 -75zM607 -72q-4 31 -6.5 57.5t-4 52t-2 51t-0.5 54.5l88 -6q-53 32 -82.5 84t-29.5 118
q0 103 47 159.5t138 66.5q77 8 166 13.5t188 7.5l36 -40q-2 -44 -4.5 -83.5t-6 -76.5t-9 -72.5t-12.5 -71.5l-28 2q40 -36 54.5 -69.5t14.5 -67.5q0 -29 -5.5 -57.5t-20 -54t-40 -45t-64.5 -30.5q-24 -5 -51.5 -9.5t-67 -7.5t-96 -5t-139.5 -3z" />
    <glyph glyph-name="agrave" unicode="&#xe0;" horiz-adv-x="643" 
d="M0 0zM408 127q-26 0 -53.5 0.5t-53.5 2t-49 3t-39 2.5t-23.5 8t-7.5 25q0 47 23 47q16 0 44.5 -1t61 -2.5t64.5 -3.5t55 -4q26 -3 26 -41q0 -20 -7 -28t-21 -8h-20zM546 0q-11 20 -15.5 51.5t-4.5 80.5q0 52 1 105.5t1 107.5q0 103 -40.5 149t-125.5 46q-24 0 -60 -0.5
t-77 -2t-83 -4t-79 -5.5q-5 -31 -6.5 -62t-1.5 -63q0 -40 3 -85q34 5 76.5 8.5t84.5 6t80.5 4t65.5 1.5q47 0 68 -13.5t21 -50.5q0 -8 -0.5 -14.5t-1.5 -14.5q-10 22 -27.5 32.5t-41.5 13.5q-49 6 -98.5 7.5t-91.5 1.5q-85 0 -126 -39t-41 -110q0 -81 54 -118
q21 -15 51.5 -25t62 -15.5t60.5 -7.5t48 -2q31 0 52.5 3.5t36.5 10.5t25 18.5t18 26.5q23 -43 90 -43h11t11 1zM77 -12q-23 20 -38.5 38.5t-25 37.5t-14 40t-4.5 47q0 81 44 128l-9 3q-2 27 -3.5 54.5t-1.5 56.5q0 40 2.5 80.5t8.5 82.5q43 4 90.5 6.5t91.5 4.5t82 3t62 1
q29 0 52 -4t44 -13.5t41 -26.5t43 -42q26 -29 39 -72t13 -106q0 -52 -1 -104.5t-1 -108.5q0 -23 1 -41.5t4.5 -35.5t10 -34.5t16.5 -37.5q-12 -7 -29 -9.5t-33 -2.5q-55 0 -87 25q-19 -21 -50 -31t-85 -10q-31 0 -66 2t-70 9.5t-68 21.5t-59 38zM142 760q16 -7 36.5 -18.5
t43 -25t46 -29t44.5 -31.5q14 11 26 24t23 30q-42 37 -87 73t-83 55q-14 -14 -27 -33.5t-22 -44.5zM106 738q17 51 36.5 82.5t42.5 54.5q51 -25 112.5 -75t136.5 -123q-20 -34 -42.5 -53t-42.5 -37q-50 37 -109 74.5t-134 76.5z" />
    <glyph glyph-name="aacute" unicode="&#xe1;" horiz-adv-x="643" 
d="M0 0zM408 127q-26 0 -53.5 0.5t-53.5 2t-49 3t-39 2.5t-23.5 8t-7.5 25q0 47 23 47q16 0 44.5 -1t61 -2.5t64.5 -3.5t55 -4q26 -3 26 -41q0 -20 -7 -28t-21 -8h-20zM546 0q-11 20 -15.5 51.5t-4.5 80.5q0 52 1 105.5t1 107.5q0 103 -40.5 149t-125.5 46q-24 0 -60 -0.5
t-77 -2t-83 -4t-79 -5.5q-5 -31 -6.5 -62t-1.5 -63q0 -40 3 -85q34 5 76.5 8.5t84.5 6t80.5 4t65.5 1.5q47 0 68 -13.5t21 -50.5q0 -8 -0.5 -14.5t-1.5 -14.5q-10 22 -27.5 32.5t-41.5 13.5q-49 6 -98.5 7.5t-91.5 1.5q-85 0 -126 -39t-41 -110q0 -81 54 -118
q21 -15 51.5 -25t62 -15.5t60.5 -7.5t48 -2q31 0 52.5 3.5t36.5 10.5t25 18.5t18 26.5q23 -43 90 -43h11t11 1zM77 -12q-23 20 -38.5 38.5t-25 37.5t-14 40t-4.5 47q0 81 44 128l-9 3q-2 27 -3.5 54.5t-1.5 56.5q0 40 2.5 80.5t8.5 82.5q43 4 90.5 6.5t91.5 4.5t82 3t62 1
q29 0 52 -4t44 -13.5t41 -26.5t43 -42q26 -29 39 -72t13 -106q0 -52 -1 -104.5t-1 -108.5q0 -23 1 -41.5t4.5 -35.5t10 -34.5t16.5 -37.5q-12 -7 -29 -9.5t-33 -2.5q-55 0 -87 25q-19 -21 -50 -31t-85 -10q-31 0 -66 2t-70 9.5t-68 21.5t-59 38zM400 855q25 -28 42.5 -49
t30 -38t22 -31.5t18.5 -28.5q-31 -16 -60 -31.5t-59 -32t-61.5 -34t-66.5 -36.5q-36 38 -56.5 67.5t-34.5 62.5q26 23 54 45.5t56.5 42.5t57 36.5t57.5 26.5zM245 636q50 35 96.5 65.5t93.5 55.5q-11 17 -23 32t-24 29q-39 -14 -86 -49t-91 -74q8 -18 16.5 -32t17.5 -27z
" />
    <glyph glyph-name="acircumflex" unicode="&#xe2;" horiz-adv-x="643" 
d="M0 0zM408 118q-26 0 -53.5 0.5t-53.5 2t-49 3t-39 2.5t-23.5 8t-7.5 25q0 47 23 47q16 0 44.5 -1t61 -2.5t64.5 -3.5t55 -4q26 -3 26 -41q0 -20 -7 -28t-21 -8h-20zM546 -9q-11 20 -15.5 51.5t-4.5 80.5q0 52 1 105.5t1 107.5q0 103 -40.5 149t-125.5 46q-24 0 -60 -0.5
t-77 -2t-83 -4t-79 -5.5q-5 -31 -6.5 -62t-1.5 -63q0 -40 3 -85q34 5 76.5 8.5t84.5 6t80.5 4t65.5 1.5q47 0 68 -13.5t21 -50.5q0 -8 -0.5 -14.5t-1.5 -14.5q-10 22 -27.5 32.5t-41.5 13.5q-49 6 -98.5 7.5t-91.5 1.5q-85 0 -126 -39t-41 -110q0 -81 54 -118
q21 -15 51.5 -25t62 -15.5t60.5 -7.5t48 -2q31 0 52.5 3.5t36.5 10.5t25 18.5t18 26.5q23 -43 90 -43h11t11 1zM77 -21q-23 20 -38.5 38.5t-25 37.5t-14 40t-4.5 47q0 81 44 128l-9 3q-2 27 -3.5 54.5t-1.5 56.5q0 40 2.5 80.5t8.5 82.5q43 4 90.5 6.5t91.5 4.5t82 3t62 1
q29 0 52 -4t44 -13.5t41 -26.5t43 -42q26 -29 39 -72t13 -106q0 -52 -1 -104.5t-1 -108.5q0 -23 1 -41.5t4.5 -35.5t10 -34.5t16.5 -37.5q-12 -7 -29 -9.5t-33 -2.5q-55 0 -87 25q-19 -21 -50 -31t-85 -10q-31 0 -66 2t-70 9.5t-68 21.5t-59 38zM429 685q-13 10 -27 22.5
t-32 28.5t-40 36t-50 46q-26 -28 -63 -64.5t-80 -73.5q26 -27 53 -44q23 16 41 30.5t43 38.5q24 -18 46.5 -36t46.5 -33q19 11 33.5 23.5t28.5 25.5zM507 653q-15 -17 -28 -29.5t-25 -22t-24 -17.5t-26 -17q-18 10 -42.5 26.5t-47.5 36.5q-19 -17 -38 -31.5t-48 -32.5
q-36 26 -68.5 53t-66.5 62q55 48 103.5 95t82.5 82q28 -27 54 -51t53 -48t56.5 -50t64.5 -56z" />
    <glyph glyph-name="atilde" unicode="&#xe3;" horiz-adv-x="643" 
d="M0 0zM408 127q-26 0 -53.5 0.5t-53.5 2t-49 3t-39 2.5t-23.5 8t-7.5 25q0 47 23 47q16 0 44.5 -1t61 -2.5t64.5 -3.5t55 -4q26 -3 26 -41q0 -20 -7 -28t-21 -8h-20zM546 0q-11 20 -15.5 51.5t-4.5 80.5q0 52 1 105.5t1 107.5q0 103 -40.5 149t-125.5 46q-24 0 -60 -0.5
t-77 -2t-83 -4t-79 -5.5q-5 -31 -6.5 -62t-1.5 -63q0 -40 3 -85q34 5 76.5 8.5t84.5 6t80.5 4t65.5 1.5q47 0 68 -13.5t21 -50.5q0 -8 -0.5 -14.5t-1.5 -14.5q-10 22 -27.5 32.5t-41.5 13.5q-49 6 -98.5 7.5t-91.5 1.5q-85 0 -126 -39t-41 -110q0 -81 54 -118
q21 -15 51.5 -25t62 -15.5t60.5 -7.5t48 -2q31 0 52.5 3.5t36.5 10.5t25 18.5t18 26.5q23 -43 90 -43h11t11 1zM77 -12q-23 20 -38.5 38.5t-25 37.5t-14 40t-4.5 47q0 81 44 128l-9 3q-2 27 -3.5 54.5t-1.5 56.5q0 40 2.5 80.5t8.5 82.5q43 4 90.5 6.5t91.5 4.5t82 3t62 1
q29 0 52 -4t44 -13.5t41 -26.5t43 -42q26 -29 39 -72t13 -106q0 -52 -1 -104.5t-1 -108.5q0 -23 1 -41.5t4.5 -35.5t10 -34.5t16.5 -37.5q-12 -7 -29 -9.5t-33 -2.5q-55 0 -87 25q-19 -21 -50 -31t-85 -10q-31 0 -66 2t-70 9.5t-68 21.5t-59 38zM395 780q-15 -25 -27 -35
t-24 -10q-10 0 -19 6.5t-20 14t-24.5 14t-31.5 6.5q-68 0 -115 -80q14 -12 27 -23t26 -19q31 45 51 45q12 0 23.5 -6.5t23 -14t24.5 -13.5t29 -6q38 0 67 25.5t44 60.5q-12 13 -26 21.5t-28 13.5zM378 812q19 -5 34.5 -11t31 -16.5t34 -28t42.5 -44.5q-11 -24 -26 -46
t-33.5 -38t-40 -25.5t-44.5 -9.5q-18 0 -33.5 6t-28.5 13.5t-22.5 14t-15.5 6.5q-7 0 -16 -8.5t-27 -40.5q-14 8 -27.5 16.5t-29 20t-35 28.5t-46.5 42q68 115 154 115q30 0 54 -12.5t41 -28.5q1 0 3.5 1.5t6.5 6.5t10 14t14 25z" />
    <glyph glyph-name="adieresis" unicode="&#xe4;" horiz-adv-x="643" 
d="M0 0zM408 127q-26 0 -53.5 0.5t-53.5 2t-49 3t-39 2.5t-23.5 8t-7.5 25q0 47 23 47q16 0 44.5 -1t61 -2.5t64.5 -3.5t55 -4q26 -3 26 -41q0 -20 -7 -28t-21 -8h-20zM546 0q-11 20 -15.5 51.5t-4.5 80.5q0 52 1 105.5t1 107.5q0 103 -40.5 149t-125.5 46q-24 0 -60 -0.5
t-77 -2t-83 -4t-79 -5.5q-5 -31 -6.5 -62t-1.5 -63q0 -40 3 -85q34 5 76.5 8.5t84.5 6t80.5 4t65.5 1.5q47 0 68 -13.5t21 -50.5q0 -8 -0.5 -14.5t-1.5 -14.5q-10 22 -27.5 32.5t-41.5 13.5q-49 6 -98.5 7.5t-91.5 1.5q-85 0 -126 -39t-41 -110q0 -81 54 -118
q21 -15 51.5 -25t62 -15.5t60.5 -7.5t48 -2q31 0 52.5 3.5t36.5 10.5t25 18.5t18 26.5q23 -43 90 -43h11t11 1zM77 -12q-23 20 -38.5 38.5t-25 37.5t-14 40t-4.5 47q0 81 44 128l-9 3q-2 27 -3.5 54.5t-1.5 56.5q0 40 2.5 80.5t8.5 82.5q43 4 90.5 6.5t91.5 4.5t82 3t62 1
q29 0 52 -4t44 -13.5t41 -26.5t43 -42q26 -29 39 -72t13 -106q0 -52 -1 -104.5t-1 -108.5q0 -23 1 -41.5t4.5 -35.5t10 -34.5t16.5 -37.5q-12 -7 -29 -9.5t-33 -2.5q-55 0 -87 25q-19 -21 -50 -31t-85 -10q-31 0 -66 2t-70 9.5t-68 21.5t-59 38zM325 719q35 -4 68.5 -6.5
t65.5 -4.5q3 23 6.5 46.5t4.5 48.5q-37 4 -73 6.5t-71 2.5zM129 709q70 0 135 6q3 22 5 46.5t2 50.5q-38 -2 -73.5 -3t-71.5 -6zM99 679l-4 152q18 2 45.5 4t57 3.5t57.5 2.5t46 2q57 -2 106 -4.5t95 -7.5l36 -40q-2 -37 -5.5 -75.5t-7.5 -73.5q-16 0 -41.5 2t-53.5 4.5
t-55 5.5t-47 7l-1 -10q-47 -4 -93 -6t-94 -2z" />
    <glyph glyph-name="aring" unicode="&#xe5;" horiz-adv-x="643" 
d="M0 0zM408 127q-26 0 -53.5 0.5t-53.5 2t-49 3t-39 2.5t-23.5 8t-7.5 25q0 47 23 47q16 0 44.5 -1t61 -2.5t64.5 -3.5t55 -4q26 -3 26 -41q0 -20 -7 -28t-21 -8h-20zM546 0q-11 20 -15.5 51.5t-4.5 80.5q0 52 1 105.5t1 107.5q0 103 -40.5 149t-125.5 46q-24 0 -60 -0.5
t-77 -2t-83 -4t-79 -5.5q-5 -31 -6.5 -62t-1.5 -63q0 -40 3 -85q34 5 76.5 8.5t84.5 6t80.5 4t65.5 1.5q47 0 68 -13.5t21 -50.5q0 -8 -0.5 -14.5t-1.5 -14.5q-10 22 -27.5 32.5t-41.5 13.5q-49 6 -98.5 7.5t-91.5 1.5q-85 0 -126 -39t-41 -110q0 -81 54 -118
q21 -15 51.5 -25t62 -15.5t60.5 -7.5t48 -2q31 0 52.5 3.5t36.5 10.5t25 18.5t18 26.5q23 -43 90 -43h11t11 1zM77 -12q-23 20 -38.5 38.5t-25 37.5t-14 40t-4.5 47q0 81 44 128l-9 3q-2 27 -3.5 54.5t-1.5 56.5q0 40 2.5 80.5t8.5 82.5q43 4 90.5 6.5t91.5 4.5t82 3t62 1
q29 0 52 -4t44 -13.5t41 -26.5t43 -42q26 -29 39 -72t13 -106q0 -52 -1 -104.5t-1 -108.5q0 -23 1 -41.5t4.5 -35.5t10 -34.5t16.5 -37.5q-12 -7 -29 -9.5t-33 -2.5q-55 0 -87 25q-19 -21 -50 -31t-85 -10q-31 0 -66 2t-70 9.5t-68 21.5t-59 38zM386 729q0 87 -95 87
q-19 0 -36.5 -5t-31.5 -16.5t-22.5 -29.5t-8.5 -44q0 -37 22.5 -59t67.5 -22q19 0 37.5 4t33.5 13.5t24 27t9 44.5zM335 727q0 -21 -13.5 -30.5t-35.5 -9.5q-40 0 -40 40q0 18 11 30t34 12q17 0 30.5 -8t13.5 -34zM320 574q-30 0 -58 10.5t-50.5 30t-36 46.5t-13.5 60
q0 34 11 57.5t29 38.5t41 22t48 7q47 0 78 -19t49.5 -44.5t26 -51.5t7.5 -40q0 -35 -11.5 -58t-30.5 -36t-42.5 -18t-47.5 -5z" />
    <glyph glyph-name="ae" unicode="&#xe6;" horiz-adv-x="1026" 
d="M0 0zM77 -12q-24 21 -39.5 40.5t-25 39t-13.5 40t-4 43.5q0 81 44 128l-9 5q-1 11 -2 27.5t-1.5 34t-1 33.5t-0.5 27q0 33 2.5 70t8.5 80q43 4 90.5 6.5t91.5 4.5t82 3t62 1q29 0 54 -6t46 -15q46 21 118 29.5t164 8.5q56 0 93.5 -16t70.5 -53q21 -23 35 -43.5t22.5 -43
t12.5 -50t4 -64.5q0 -118 -66 -167l28 -27q0 -101 -15 -197q-40 1 -84 2.5t-88 3.5t-86 5t-78 7h-2q-59 12 -91 38q-27 -26 -68 -46t-92 -20q-30 0 -65.5 2.5t-70.5 10t-68 21.5t-59 37zM558 11q35 -5 65 -8t64 -4.5t77 -2.5t103 -2q6 34 8.5 67.5t2.5 68.5
q-29 -2 -65.5 -4.5t-74 -4.5t-71 -3t-56.5 -1q-25 0 -34.5 19.5t-9.5 49.5q32 -2 82 -4t94 -2q173 0 173 176q0 102 -42 152t-130 50q-100 0 -170 -8.5t-112 -34.5q-40 25 -100 25q-24 0 -60 -0.5t-77 -2t-83 -4t-79 -5.5q-4 -31 -6 -61t-2 -61q0 -43 3 -88q34 5 76.5 8.5
t84.5 6t80.5 4t65.5 1.5q47 0 68 -13.5t21 -50.5q0 -8 -0.5 -14.5t-1.5 -14.5q-10 22 -27.5 32.5t-41.5 13.5q-49 6 -98.5 7.5t-91.5 1.5q-85 0 -126 -39t-41 -110q0 -81 54 -118q21 -15 51.5 -25t62 -15.5t60.5 -7.5t48 -2q27 0 51 7t44.5 18t36 25.5t26.5 28.5
q16 -20 39.5 -33t58.5 -18zM428 127q-27 0 -57.5 1t-59.5 2t-54.5 2.5t-43.5 2.5q-31 1 -31 33q0 47 23 47q16 0 44.5 -1t61 -2.5t64.5 -3.5t55 -4q26 -3 26 -41q0 -20 -7 -28t-21 -8zM493 265q0 5 -1 10t-1 10q0 28 11.5 44t34.5 16h50t57.5 -0.5t52.5 -1.5t35 -3
t18.5 -10.5t7.5 -25.5q0 -19 -7 -25.5t-23 -8.5q-18 -2 -46 -2.5t-60 -1.5t-66 -1h-63z" />
    <glyph glyph-name="ccedilla" unicode="&#xe7;" horiz-adv-x="644" 
d="M0 0zM440 179q-6 -9 -12 -16t-14 -15q-20 -1 -41 -1.5t-42 -0.5q-47 0 -96 1t-105 3q-7 60 -11.5 122.5t-4.5 131.5q78 -2 155.5 -5.5t158.5 -11.5q9 -10 16 -24t13 -29q27 38 50.5 77.5t45.5 83.5q-11 53 -53 74t-125 21q-25 0 -54.5 -0.5t-57 -1t-49.5 -1.5t-31 -1
q-80 -5 -118.5 -51t-38.5 -121q0 -94 2 -169.5t16.5 -129t47.5 -82t96 -28.5q17 0 46 2t62 5t66 7t59 7q99 13 119 77q-40 39 -100 76zM432 221q25 -16 47.5 -31t43.5 -32.5t42.5 -37.5t44.5 -47q-32 -98 -147 -113q-26 -3 -59.5 -7t-67.5 -7t-63.5 -5t-46.5 -2q-25 0 -44 4
t-36 11.5t-34 19.5t-37 28q-30 24 -46 57.5t-23.5 82.5t-9 116t-1.5 156q0 87 48 142.5t139 60.5q12 1 34.5 1.5t50 1t56 1t52.5 0.5q38 0 66 -4t51 -14t43.5 -27.5t44.5 -43.5q14 -17 25 -36.5t16 -41.5q-24 -48 -56.5 -101t-77.5 -115l-38 33l-21 53q-35 3 -64.5 5
t-59 3.5t-59.5 2.5t-65 2q1 -42 2.5 -81t5.5 -77q33 -1 66.5 -2t67.5 -1q20 0 39.5 0.5t39.5 1.5zM197 -220q0 33 1.5 67t5.5 67q45 4 94 6t103 2l35 -40q0 -39 -3 -65.5t-7 -46.5q-8 -12 -17 -22t-20 -20t-24.5 -21t-31.5 -24q-23 11 -43 27t-38 35h-14zM303 -254
q16 17 31 35.5t29 38.5q2 15 4.5 33t2.5 39q-35 0 -69.5 -2t-69.5 -4q-2 -19 -2.5 -37.5t-0.5 -38.5q15 1 30.5 1.5t30.5 2.5q-6 -11 -13 -19.5t-13 -18.5q9 -12 19 -18.5t21 -11.5z" />
    <glyph glyph-name="egrave" unicode="&#xe8;" horiz-adv-x="641" 
d="M0 0zM114 265q0 5 -0.5 10t-0.5 10q0 28 11.5 44t34.5 16h49.5t57 -0.5t52.5 -1.5t36 -3q25 -3 25 -36q0 -18 -6.5 -25t-23.5 -9q-18 -2 -46 -2.5t-60 -1.5t-66 -1h-63zM180 11q72 -8 154 -11.5t154 -5.5q7 34 9.5 67.5t2.5 68.5q-29 -2 -66 -4.5t-74 -4.5t-71 -3t-56 -1
q-26 0 -35.5 19.5t-9.5 49.5q16 -1 37 -2t44.5 -2t48 -1.5t47.5 -0.5q172 0 172 176q0 102 -41.5 152t-129.5 50q-86 0 -150.5 -6t-107.5 -23.5t-64 -50t-21 -84.5q0 -18 1 -43t3.5 -53.5t5.5 -58.5t7 -58q4 -37 13 -65.5t25 -49.5t40.5 -34.5t61.5 -20.5zM212 -55
q-29 5 -61.5 18.5t-72.5 53.5q-31 27 -46 66.5t-22 93.5q-4 28 -7 58.5t-5.5 59.5t-3.5 54.5t-1 44.5q0 63 23 101t69.5 58.5t116.5 27.5t164 7q57 0 101.5 -20t80.5 -68q12 -16 22 -33t17.5 -38t11.5 -48t4 -63q0 -118 -66 -167l29 -27q0 -50 -4 -98.5t-13 -98.5
q-40 0 -86.5 1.5t-92.5 3.5t-87.5 5.5t-70.5 7.5zM134 760q16 -7 36.5 -18.5t43 -25t46 -29t44.5 -31.5q14 11 26 24t23 30q-42 37 -87 73t-83 55q-14 -14 -27 -33.5t-22 -44.5zM98 738q17 51 36.5 82.5t42.5 54.5q51 -25 112.5 -75t136.5 -123q-20 -34 -42.5 -53t-42.5 -37
q-50 37 -109 74.5t-134 76.5z" />
    <glyph glyph-name="eacute" unicode="&#xe9;" horiz-adv-x="641" 
d="M0 0zM114 265q0 5 -0.5 10t-0.5 10q0 28 11.5 44t34.5 16h49.5t57 -0.5t52.5 -1.5t36 -3q25 -3 25 -36q0 -18 -6.5 -25t-23.5 -9q-18 -2 -46 -2.5t-60 -1.5t-66 -1h-63zM180 11q72 -8 154 -11.5t154 -5.5q7 34 9.5 67.5t2.5 68.5q-29 -2 -66 -4.5t-74 -4.5t-71 -3t-56 -1
q-26 0 -35.5 19.5t-9.5 49.5q16 -1 37 -2t44.5 -2t48 -1.5t47.5 -0.5q172 0 172 176q0 102 -41.5 152t-129.5 50q-86 0 -150.5 -6t-107.5 -23.5t-64 -50t-21 -84.5q0 -18 1 -43t3.5 -53.5t5.5 -58.5t7 -58q4 -37 13 -65.5t25 -49.5t40.5 -34.5t61.5 -20.5zM212 -55
q-29 5 -61.5 18.5t-72.5 53.5q-31 27 -46 66.5t-22 93.5q-4 28 -7 58.5t-5.5 59.5t-3.5 54.5t-1 44.5q0 63 23 101t69.5 58.5t116.5 27.5t164 7q57 0 101.5 -20t80.5 -68q12 -16 22 -33t17.5 -38t11.5 -48t4 -63q0 -118 -66 -167l29 -27q0 -50 -4 -98.5t-13 -98.5
q-40 0 -86.5 1.5t-92.5 3.5t-87.5 5.5t-70.5 7.5zM399 855q25 -28 42.5 -49t30 -38t22 -31.5t18.5 -28.5q-31 -16 -60 -31.5t-59 -32t-61.5 -34t-66.5 -36.5q-36 38 -56.5 67.5t-34.5 62.5q26 23 54 45.5t56.5 42.5t57 36.5t57.5 26.5zM244 636q50 35 96.5 65.5t93.5 55.5
q-11 17 -23 32t-24 29q-39 -14 -86 -49t-91 -74q8 -18 16.5 -32t17.5 -27z" />
    <glyph glyph-name="ecircumflex" unicode="&#xea;" horiz-adv-x="641" 
d="M0 0zM114 246q0 5 -0.5 10t-0.5 10q0 28 11.5 44t34.5 16h49.5t57 -0.5t52.5 -1.5t36 -3q25 -3 25 -36q0 -18 -6.5 -25t-23.5 -9q-18 -2 -46 -2.5t-60 -1.5t-66 -1h-63zM180 -8q72 -8 154 -11.5t154 -5.5q7 34 9.5 67.5t2.5 68.5q-29 -2 -66 -4.5t-74 -4.5t-71 -3t-56 -1
q-26 0 -35.5 19.5t-9.5 49.5q16 -1 37 -2t44.5 -2t48 -1.5t47.5 -0.5q172 0 172 176q0 102 -41.5 152t-129.5 50q-86 0 -150.5 -6t-107.5 -23.5t-64 -50t-21 -84.5q0 -18 1 -43t3.5 -53.5t5.5 -58.5t7 -58q4 -37 13 -65.5t25 -49.5t40.5 -34.5t61.5 -20.5zM212 -74
q-29 5 -61.5 18.5t-72.5 53.5q-31 27 -46 66.5t-22 93.5q-4 28 -7 58.5t-5.5 59.5t-3.5 54.5t-1 44.5q0 63 23 101t69.5 58.5t116.5 27.5t164 7q57 0 101.5 -20t80.5 -68q12 -16 22 -33t17.5 -38t11.5 -48t4 -63q0 -118 -66 -167l29 -27q0 -50 -4 -98.5t-13 -98.5
q-40 0 -86.5 1.5t-92.5 3.5t-87.5 5.5t-70.5 7.5zM436 685q-13 10 -27 22.5t-32 28.5t-40 36t-50 46q-26 -28 -63 -64.5t-80 -73.5q26 -27 53 -44q23 16 41 30.5t43 38.5q24 -18 46.5 -36t46.5 -33q19 11 33.5 23.5t28.5 25.5zM514 653q-15 -17 -28 -29.5t-25 -22t-24 -17.5
t-26 -17q-18 10 -42.5 26.5t-47.5 36.5q-19 -17 -38 -31.5t-48 -32.5q-36 26 -68.5 53t-66.5 62q55 48 103.5 95t82.5 82q28 -27 54 -51t53 -48t56.5 -50t64.5 -56z" />
    <glyph glyph-name="edieresis" unicode="&#xeb;" horiz-adv-x="641" 
d="M0 0zM114 265q0 5 -0.5 10t-0.5 10q0 28 11.5 44t34.5 16h49.5t57 -0.5t52.5 -1.5t36 -3q25 -3 25 -36q0 -18 -6.5 -25t-23.5 -9q-18 -2 -46 -2.5t-60 -1.5t-66 -1h-63zM180 11q72 -8 154 -11.5t154 -5.5q7 34 9.5 67.5t2.5 68.5q-29 -2 -66 -4.5t-74 -4.5t-71 -3t-56 -1
q-26 0 -35.5 19.5t-9.5 49.5q16 -1 37 -2t44.5 -2t48 -1.5t47.5 -0.5q172 0 172 176q0 102 -41.5 152t-129.5 50q-86 0 -150.5 -6t-107.5 -23.5t-64 -50t-21 -84.5q0 -18 1 -43t3.5 -53.5t5.5 -58.5t7 -58q4 -37 13 -65.5t25 -49.5t40.5 -34.5t61.5 -20.5zM212 -55
q-29 5 -61.5 18.5t-72.5 53.5q-31 27 -46 66.5t-22 93.5q-4 28 -7 58.5t-5.5 59.5t-3.5 54.5t-1 44.5q0 63 23 101t69.5 58.5t116.5 27.5t164 7q57 0 101.5 -20t80.5 -68q12 -16 22 -33t17.5 -38t11.5 -48t4 -63q0 -118 -66 -167l29 -27q0 -50 -4 -98.5t-13 -98.5
q-40 0 -86.5 1.5t-92.5 3.5t-87.5 5.5t-70.5 7.5zM310 719q35 -4 68.5 -6.5t65.5 -4.5q3 23 6.5 46.5t4.5 48.5q-37 4 -73 6.5t-71 2.5zM114 709q70 0 135 6q3 22 5 46.5t2 50.5q-38 -2 -73.5 -3t-71.5 -6zM84 679l-4 152q18 2 45.5 4t57 3.5t57.5 2.5t46 2q57 -2 106 -4.5
t95 -7.5l36 -40q-2 -37 -5.5 -75.5t-7.5 -73.5q-16 0 -41.5 2t-53.5 4.5t-55 5.5t-47 7l-1 -10q-47 -4 -93 -6t-94 -2z" />
    <glyph glyph-name="igrave" unicode="&#xec;" horiz-adv-x="260" 
d="M0 0zM36 -21q52 5 91 19q12 129 22 265.5t19 277.5q-71 17 -151 18q9 -144 14 -287t5 -293zM6 -22q0 150 -6 309t-14 303q58 -1 111 -7.5t103 -17.5l36 -40q-5 -70 -10 -146.5t-10.5 -152.5t-11.5 -149.5t-12 -137.5q-31 -10 -60 -17t-55 -9zM-55 760q16 -7 36.5 -18.5
t43 -25t46 -29t44.5 -31.5q14 11 26 24t23 30q-42 37 -87 73t-83 55q-14 -14 -27 -33.5t-22 -44.5zM-91 738q17 51 36.5 82.5t42.5 54.5q51 -25 112.5 -75t136.5 -123q-20 -34 -42.5 -53t-42.5 -37q-50 37 -109 74.5t-134 76.5z" />
    <glyph glyph-name="iacute" unicode="&#xed;" horiz-adv-x="260" 
d="M0 0zM36 -29q52 5 91 19q12 129 22 265.5t19 277.5q-71 17 -151 18q9 -144 14 -287t5 -293zM6 -30q0 150 -6 309t-14 303q58 -1 111 -7.5t103 -17.5l36 -40q-5 -70 -10 -146.5t-10.5 -152.5t-11.5 -149.5t-12 -137.5q-31 -10 -60 -17t-55 -9zM208 855q25 -28 42.5 -49
t30 -38t22 -31.5t18.5 -28.5q-31 -16 -60 -31.5t-59 -32t-61.5 -34t-66.5 -36.5q-36 38 -56.5 67.5t-34.5 62.5q26 23 54 45.5t56.5 42.5t57 36.5t57.5 26.5zM53 636q50 35 96.5 65.5t93.5 55.5q-11 17 -23 32t-24 29q-39 -14 -86 -49t-91 -74q8 -18 16.5 -32t17.5 -27z" />
    <glyph glyph-name="icircumflex" unicode="&#xee;" horiz-adv-x="260" 
d="M0 0zM36 -49q52 5 91 19q12 129 22 265.5t19 277.5q-71 17 -151 18q9 -144 14 -287t5 -293zM6 -50q0 150 -6 309t-14 303q58 -1 111 -7.5t103 -17.5l36 -40q-5 -70 -10 -146.5t-10.5 -152.5t-11.5 -149.5t-12 -137.5q-31 -10 -60 -17t-55 -9zM239 685q-13 10 -27 22.5
t-32 28.5t-40 36t-50 46q-26 -28 -63 -64.5t-80 -73.5q26 -27 53 -44q23 16 41 30.5t43 38.5q24 -18 46.5 -36t46.5 -33q19 11 33.5 23.5t28.5 25.5zM317 653q-15 -17 -28 -29.5t-25 -22t-24 -17.5t-26 -17q-18 10 -42.5 26.5t-47.5 36.5q-19 -17 -38 -31.5t-48 -32.5
q-36 26 -68.5 53t-66.5 62q55 48 103.5 95t82.5 82q28 -27 54 -51t53 -48t56.5 -50t64.5 -56z" />
    <glyph glyph-name="idieresis" unicode="&#xef;" horiz-adv-x="260" 
d="M0 0zM36 9q52 5 91 19q12 129 22 265.5t19 277.5q-71 17 -151 18q9 -144 14 -287t5 -293zM6 8q0 150 -6 309t-14 303q58 -1 111 -7.5t103 -17.5l36 -40q-5 -70 -10 -146.5t-10.5 -152.5t-11.5 -149.5t-12 -137.5q-31 -10 -60 -17t-55 -9zM120 719q35 -4 68.5 -6.5
t65.5 -4.5q3 23 6.5 46.5t4.5 48.5q-37 4 -73 6.5t-71 2.5zM-76 709q70 0 135 6q3 22 5 46.5t2 50.5q-38 -2 -73.5 -3t-71.5 -6zM-106 679l-4 152q18 2 45.5 4t57 3.5t57.5 2.5t46 2q57 -2 106 -4.5t95 -7.5l36 -40q-2 -37 -5.5 -75.5t-7.5 -73.5q-16 0 -41.5 2t-53.5 4.5
t-55 5.5t-47 7l-1 -10q-47 -4 -93 -6t-94 -2z" />
    <glyph glyph-name="eth" unicode="&#xf0;" horiz-adv-x="702" 
d="M0 0zM415 372q9 -75 9 -146q0 -30 -1 -60t-3 -60q-36 -2 -72 -3.5t-71 -1.5q-40 0 -80 1.5t-81 3.5v40.5t1 40.5l165 -2q17 36 22 85l-184 2l5 66q74 17 145.5 24.5t144.5 9.5zM51 -8q19 -1 49.5 -1.5t67 -1.5t75.5 -1.5t75.5 -1t68.5 -0.5h54q123 0 137 169
q5 62 10 122.5t5 118.5q0 88 -39.5 133.5t-119.5 45.5q-29 0 -78 -3.5t-104.5 -9t-112.5 -12t-102 -12.5l6 -266h-41q0 -23 1.5 -43.5t4.5 -41.5h37zM16 127l-33 30q-6 34 -9 69t-3 76h42l-7 264q49 6 110.5 13t121.5 13t112.5 9.5t83.5 3.5q36 0 75 -13t72 -42.5t55 -76.5
t23 -115q0 -22 -1 -45.5t-3 -52t-4.5 -64t-6.5 -81.5q-15 -195 -165 -195q-22 0 -56 0.5t-74 1t-82.5 1t-81.5 1.5t-72 2t-52 2l-40 36zM393 226q0 36 -3 77l-53 -4l36 -40q-8 -72 -30 -127l48 3q2 23 2 45.5v45.5z" />
    <glyph glyph-name="ntilde" unicode="&#xf1;" horiz-adv-x="632" 
d="M0 0zM392 -5q30 0 61.5 0.5t60.5 2.5q6 97 9 198t3 201q0 80 -39 119t-113 39h-74.5t-72.5 -2q-59 -3 -97 -66q-19 62 -116 75q6 -141 10 -280.5t7 -279.5q29 -9 59.5 -13t61.5 -6q3 97 9 188t17 173q73 3 152 3h38.5t37.5 -1q-2 -91 -5.5 -178t-8.5 -173zM362 -5
q2 54 4.5 94.5t4 73t3 60.5t1.5 58h-39t-32 -0.5l-30 -1t-33 -1.5q-10 -78 -15 -170t-9 -194q-45 4 -87.5 9.5t-87.5 18.5l-40 37q-2 70 -4 149t-4.5 160t-5 160t-5.5 149q57 -8 94.5 -21.5t55.5 -33.5q41 40 93 41q34 2 73 2h75q28 0 50.5 -4t42.5 -14t39 -25.5t39 -38.5
q47 -53 47 -144q0 -50 -1 -104.5t-2.5 -110t-4.5 -109.5t-6 -102q-15 -1 -34 -2t-39.5 -1.5t-40 -0.5h-34.5zM389 780q-15 -25 -27 -35t-24 -10q-10 0 -19 6.5t-20 14t-24.5 14t-31.5 6.5q-68 0 -115 -80q14 -12 27 -23t26 -19q31 45 51 45q12 0 23.5 -6.5t23 -14
t24.5 -13.5t29 -6q38 0 67 25.5t44 60.5q-12 13 -26 21.5t-28 13.5zM372 812q19 -5 34.5 -11t31 -16.5t34 -28t42.5 -44.5q-11 -24 -26 -46t-33.5 -38t-40 -25.5t-44.5 -9.5q-18 0 -33.5 6t-28.5 13.5t-22.5 14t-15.5 6.5q-7 0 -16 -8.5t-27 -40.5q-14 8 -27.5 16.5t-29 20
t-35 28.5t-46.5 42q68 115 154 115q30 0 54 -12.5t41 -28.5q1 0 3.5 1.5t6.5 6.5t10 14t14 25z" />
    <glyph glyph-name="ograve" unicode="&#xf2;" 
d="M0 0zM378 355q9 -66 12 -129.5t5 -126.5q-36 0 -76 0.5t-79.5 1.5t-75.5 2.5t-64 3.5q1 58 3.5 115.5t9.5 114.5q67 9 133 12.5t132 5.5zM193 -10q56 -2 110 -4.5t109 -2.5q68 0 100.5 43.5t37.5 128.5q5 83 9 143t4 88q0 73 -37 116t-112 48q-63 3 -122.5 4t-119.5 1
q-40 0 -68 -16.5t-46 -43.5t-26 -61t-8 -68q0 -62 2 -119t5 -86q9 -88 53 -128.5t109 -42.5zM77 -6q-27 22 -43 47.5t-25 66t-12 102t-3 156.5q0 40 10 79t31 70t55 50.5t82 19.5q60 0 120.5 -0.5t122.5 -3.5q49 -5 87 -25t76 -67q25 -31 38 -61.5t13 -79.5q0 -22 -2 -65
t-6 -100l-5 -68q-8 -97 -47.5 -147.5t-116.5 -50.5q-56 0 -113 1t-109 6q-22 2 -40.5 6t-36.5 12.5t-36 21t-40 30.5zM364 129q-3 73 -9 158q-45 -2 -89 -5t-89 -8q-5 -37 -7 -71.5t-3 -69.5q45 -2 95.5 -3t101.5 -1zM148 760q16 -7 36.5 -18.5t43 -25t46 -29t44.5 -31.5
q14 11 26 24t23 30q-42 37 -87 73t-83 55q-14 -14 -27 -33.5t-22 -44.5zM112 738q17 51 36.5 82.5t42.5 54.5q51 -25 112.5 -75t136.5 -123q-20 -34 -42.5 -53t-42.5 -37q-50 37 -109 74.5t-134 76.5z" />
    <glyph glyph-name="oacute" unicode="&#xf3;" 
d="M0 0zM378 336q9 -66 12 -129.5t5 -126.5q-36 0 -76 0.5t-79.5 1.5t-75.5 2.5t-64 3.5q1 58 3.5 115.5t9.5 114.5q67 9 133 12.5t132 5.5zM193 -29q56 -2 110 -4.5t109 -2.5q68 0 100.5 43.5t37.5 128.5q5 83 9 143t4 88q0 73 -37 116t-112 48q-63 3 -122.5 4t-119.5 1
q-40 0 -68 -16.5t-46 -43.5t-26 -61t-8 -68q0 -62 2 -119t5 -86q9 -88 53 -128.5t109 -42.5zM77 -25q-27 22 -43 47.5t-25 66t-12 102t-3 156.5q0 40 10 79t31 70t55 50.5t82 19.5q60 0 120.5 -0.5t122.5 -3.5q49 -5 87 -25t76 -67q25 -31 38 -61.5t13 -79.5q0 -22 -2 -65
t-6 -100l-5 -68q-8 -97 -47.5 -147.5t-116.5 -50.5q-56 0 -113 1t-109 6q-22 2 -40.5 6t-36.5 12.5t-36 21t-40 30.5zM364 110q-3 73 -9 158q-45 -2 -89 -5t-89 -8q-5 -37 -7 -71.5t-3 -69.5q45 -2 95.5 -3t101.5 -1zM415 855q25 -28 42.5 -49t30 -38t22 -31.5t18.5 -28.5
q-31 -16 -60 -31.5t-59 -32t-61.5 -34t-66.5 -36.5q-36 38 -56.5 67.5t-34.5 62.5q26 23 54 45.5t56.5 42.5t57 36.5t57.5 26.5zM260 636q50 35 96.5 65.5t93.5 55.5q-11 17 -23 32t-24 29q-39 -14 -86 -49t-91 -74q8 -18 16.5 -32t17.5 -27z" />
    <glyph glyph-name="ocircumflex" unicode="&#xf4;" 
d="M0 0zM378 336q9 -66 12 -129.5t5 -126.5q-36 0 -76 0.5t-79.5 1.5t-75.5 2.5t-64 3.5q1 58 3.5 115.5t9.5 114.5q67 9 133 12.5t132 5.5zM193 -29q56 -2 110 -4.5t109 -2.5q68 0 100.5 43.5t37.5 128.5q5 83 9 143t4 88q0 73 -37 116t-112 48q-63 3 -122.5 4t-119.5 1
q-40 0 -68 -16.5t-46 -43.5t-26 -61t-8 -68q0 -62 2 -119t5 -86q9 -88 53 -128.5t109 -42.5zM77 -25q-27 22 -43 47.5t-25 66t-12 102t-3 156.5q0 40 10 79t31 70t55 50.5t82 19.5q60 0 120.5 -0.5t122.5 -3.5q49 -5 87 -25t76 -67q25 -31 38 -61.5t13 -79.5q0 -22 -2 -65
t-6 -100l-5 -68q-8 -97 -47.5 -147.5t-116.5 -50.5q-56 0 -113 1t-109 6q-22 2 -40.5 6t-36.5 12.5t-36 21t-40 30.5zM364 110q-3 73 -9 158q-45 -2 -89 -5t-89 -8q-5 -37 -7 -71.5t-3 -69.5q45 -2 95.5 -3t101.5 -1zM443 685q-13 10 -27 22.5t-32 28.5t-40 36t-50 46
q-26 -28 -63 -64.5t-80 -73.5q26 -27 53 -44q23 16 41 30.5t43 38.5q24 -18 46.5 -36t46.5 -33q19 11 33.5 23.5t28.5 25.5zM521 653q-15 -17 -28 -29.5t-25 -22t-24 -17.5t-26 -17q-18 10 -42.5 26.5t-47.5 36.5q-19 -17 -38 -31.5t-48 -32.5q-36 26 -68.5 53t-66.5 62
q55 48 103.5 95t82.5 82q28 -27 54 -51t53 -48t56.5 -50t64.5 -56z" />
    <glyph glyph-name="otilde" unicode="&#xf5;" 
d="M0 0zM378 355q9 -66 12 -129.5t5 -126.5q-36 0 -76 0.5t-79.5 1.5t-75.5 2.5t-64 3.5q1 58 3.5 115.5t9.5 114.5q67 9 133 12.5t132 5.5zM193 -10q56 -2 110 -4.5t109 -2.5q68 0 100.5 43.5t37.5 128.5q5 83 9 143t4 88q0 73 -37 116t-112 48q-63 3 -122.5 4t-119.5 1
q-40 0 -68 -16.5t-46 -43.5t-26 -61t-8 -68q0 -62 2 -119t5 -86q9 -88 53 -128.5t109 -42.5zM77 -6q-27 22 -43 47.5t-25 66t-12 102t-3 156.5q0 40 10 79t31 70t55 50.5t82 19.5q60 0 120.5 -0.5t122.5 -3.5q49 -5 87 -25t76 -67q25 -31 38 -61.5t13 -79.5q0 -22 -2 -65
t-6 -100l-5 -68q-8 -97 -47.5 -147.5t-116.5 -50.5q-56 0 -113 1t-109 6q-22 2 -40.5 6t-36.5 12.5t-36 21t-40 30.5zM364 129q-3 73 -9 158q-45 -2 -89 -5t-89 -8q-5 -37 -7 -71.5t-3 -69.5q45 -2 95.5 -3t101.5 -1zM401 780q-15 -25 -27 -35t-24 -10q-10 0 -19 6.5t-20 14
t-24.5 14t-31.5 6.5q-68 0 -115 -80q14 -12 27 -23t26 -19q31 45 51 45q12 0 23.5 -6.5t23 -14t24.5 -13.5t29 -6q38 0 67 25.5t44 60.5q-12 13 -26 21.5t-28 13.5zM384 812q19 -5 34.5 -11t31 -16.5t34 -28t42.5 -44.5q-11 -24 -26 -46t-33.5 -38t-40 -25.5t-44.5 -9.5
q-18 0 -33.5 6t-28.5 13.5t-22.5 14t-15.5 6.5q-7 0 -16 -8.5t-27 -40.5q-14 8 -27.5 16.5t-29 20t-35 28.5t-46.5 42q68 115 154 115q30 0 54 -12.5t41 -28.5q1 0 3.5 1.5t6.5 6.5t10 14t14 25z" />
    <glyph glyph-name="odieresis" unicode="&#xf6;" 
d="M0 0zM378 355q9 -66 12 -129.5t5 -126.5q-36 0 -76 0.5t-79.5 1.5t-75.5 2.5t-64 3.5q1 58 3.5 115.5t9.5 114.5q67 9 133 12.5t132 5.5zM193 -10q56 -2 110 -4.5t109 -2.5q68 0 100.5 43.5t37.5 128.5q5 83 9 143t4 88q0 73 -37 116t-112 48q-63 3 -122.5 4t-119.5 1
q-40 0 -68 -16.5t-46 -43.5t-26 -61t-8 -68q0 -62 2 -119t5 -86q9 -88 53 -128.5t109 -42.5zM77 -6q-27 22 -43 47.5t-25 66t-12 102t-3 156.5q0 40 10 79t31 70t55 50.5t82 19.5q60 0 120.5 -0.5t122.5 -3.5q49 -5 87 -25t76 -67q25 -31 38 -61.5t13 -79.5q0 -22 -2 -65
t-6 -100l-5 -68q-8 -97 -47.5 -147.5t-116.5 -50.5q-56 0 -113 1t-109 6q-22 2 -40.5 6t-36.5 12.5t-36 21t-40 30.5zM364 129q-3 73 -9 158q-45 -2 -89 -5t-89 -8q-5 -37 -7 -71.5t-3 -69.5q45 -2 95.5 -3t101.5 -1zM325 719q35 -4 68.5 -6.5t65.5 -4.5q3 23 6.5 46.5
t4.5 48.5q-37 4 -73 6.5t-71 2.5zM129 709q70 0 135 6q3 22 5 46.5t2 50.5q-38 -2 -73.5 -3t-71.5 -6zM99 679l-4 152q18 2 45.5 4t57 3.5t57.5 2.5t46 2q57 -2 106 -4.5t95 -7.5l36 -40q-2 -37 -5.5 -75.5t-7.5 -73.5q-16 0 -41.5 2t-53.5 4.5t-55 5.5t-47 7l-1 -10
q-47 -4 -93 -6t-94 -2z" />
    <glyph glyph-name="divide" unicode="&#xf7;" horiz-adv-x="490" 
d="M277 50q-2 24 -2.5 50t-0.5 52q-70 -6 -141 -21q0 -25 3.5 -49t9.5 -48q35 2 67 6t64 10zM138 396q36 0 69.5 1t65.5 4q3 23 5 47t2 50q-38 -1 -73.5 -2.5t-71.5 -5.5zM400 234l-4 73h-382l5 -88zM104 517q18 2 45.5 4t57 3.5t57.5 3t46 1.5l36 -40q0 -44 -3 -82t-7 -70
h90l36 -40l5 -128l-146 -6l19 -19q0 -25 0.5 -68t5.5 -85q-53 -11 -95 -16t-90 -8l-39 35q-9 38 -14.5 76t-5.5 77l-72 -3l-40 36l-7 149h158l-33 28z" />
    <glyph glyph-name="oslash" unicode="&#xf8;" horiz-adv-x="675" 
d="M0 0zM7 -55l46 75q-21 22 -32.5 49.5t-17.5 67.5t-7.5 95.5t-1.5 133.5q0 40 10 79t31 70t55 50.5t82 19.5h58t57.5 -0.5t62.5 -2t73 -3.5q13 17 24 35t25 36q36 -13 62 -26.5t44 -24.5l35 -40l-38 -65q30 -29 42 -64.5t12 -81.5q0 -11 -1 -28.5t-2.5 -45t-4 -66.5
t-5.5 -93q-7 -97 -46.5 -147.5t-119.5 -50.5q-76 0 -130.5 2t-82.5 4l-48 -84q-32 14 -66.5 29.5t-73.5 39.5zM184 -8q9 -4 68.5 -6.5t159.5 -2.5q67 0 100 43.5t38 128.5q5 83 9 143t4 88q0 100 -63 139l37 62q-10 5 -23.5 13t-30.5 13l-46 -65q-80 5 -142.5 6t-122.5 1
q-40 0 -68 -16.5t-46 -43.5t-26 -61t-8 -68q0 -82 2 -138.5t9 -95t20.5 -63.5t36.5 -44l-43 -70q23 -14 45 -24.5t45 -19.5zM100 107q1 58 3.5 115.5t9.5 114.5q48 7 95.5 10t95.5 5q-41 -61 -80.5 -122.5t-80.5 -124.5zM395 99h-72.5t-75.5 1q35 58 68 114.5t67 113.5
q6 -60 8.5 -116t4.5 -113z" />
    <glyph glyph-name="ugrave" unicode="&#xf9;" horiz-adv-x="649" 
d="M0 0zM420 138q-36 -3 -72 -3q-31 0 -62.5 2t-63.5 5q-8 95 -14 198t-9 218q-48 0 -94 -1.5t-93 -6.5q8 -96 19.5 -201.5t23.5 -203.5q10 -77 41.5 -119.5t99.5 -42.5q29 0 60.5 0.5t61 1.5t54 2t39.5 2q32 2 52 13.5t32 33t18.5 54t11.5 77.5q10 87 17.5 177.5
t13.5 183.5q-55 0 -110 -9q-2 -101 -9 -195t-17 -186zM281 168q17 -1 34 -1.5t34 -0.5h21.5t21.5 1q9 89 15.5 182.5t8.5 196.5q42 7 84.5 9.5t88.5 2.5l36 -40q-3 -46 -7 -97t-8.5 -102t-9 -100.5t-9.5 -92.5q-6 -48 -14 -84.5t-23.5 -62t-40 -39.5t-62.5 -17
q-15 -1 -40 -2t-54.5 -2t-61.5 -1.5t-62 -0.5q-24 0 -41.5 3.5t-33 11t-30 18.5t-30.5 25q-31 26 -48 66.5t-25 99.5q-6 49 -12.5 105.5t-12.5 114t-11.5 113.5t-8.5 104q59 5 120.5 7.5t127.5 2.5l36 -40q3 -104 6.5 -198t10.5 -182zM161 760q16 -7 36.5 -18.5t43 -25
t46 -29t44.5 -31.5q14 11 26 24t23 30q-42 37 -87 73t-83 55q-14 -14 -27 -33.5t-22 -44.5zM125 738q17 51 36.5 82.5t42.5 54.5q51 -25 112.5 -75t136.5 -123q-20 -34 -42.5 -53t-42.5 -37q-50 37 -109 74.5t-134 76.5z" />
    <glyph glyph-name="uacute" unicode="&#xfa;" horiz-adv-x="649" 
d="M0 0zM420 138q-36 -3 -72 -3q-31 0 -62.5 2t-63.5 5q-8 95 -14 198t-9 218q-48 0 -94 -1.5t-93 -6.5q8 -96 19.5 -201.5t23.5 -203.5q10 -77 41.5 -119.5t99.5 -42.5q29 0 60.5 0.5t61 1.5t54 2t39.5 2q32 2 52 13.5t32 33t18.5 54t11.5 77.5q10 87 17.5 177.5
t13.5 183.5q-55 0 -110 -9q-2 -101 -9 -195t-17 -186zM281 168q17 -1 34 -1.5t34 -0.5h21.5t21.5 1q9 89 15.5 182.5t8.5 196.5q42 7 84.5 9.5t88.5 2.5l36 -40q-3 -46 -7 -97t-8.5 -102t-9 -100.5t-9.5 -92.5q-6 -48 -14 -84.5t-23.5 -62t-40 -39.5t-62.5 -17
q-15 -1 -40 -2t-54.5 -2t-61.5 -1.5t-62 -0.5q-24 0 -41.5 3.5t-33 11t-30 18.5t-30.5 25q-31 26 -48 66.5t-25 99.5q-6 49 -12.5 105.5t-12.5 114t-11.5 113.5t-8.5 104q59 5 120.5 7.5t127.5 2.5l36 -40q3 -104 6.5 -198t10.5 -182zM419 855q25 -28 42.5 -49t30 -38
t22 -31.5t18.5 -28.5q-31 -16 -60 -31.5t-59 -32t-61.5 -34t-66.5 -36.5q-36 38 -56.5 67.5t-34.5 62.5q26 23 54 45.5t56.5 42.5t57 36.5t57.5 26.5zM264 636q50 35 96.5 65.5t93.5 55.5q-11 17 -23 32t-24 29q-39 -14 -86 -49t-91 -74q8 -18 16.5 -32t17.5 -27z" />
    <glyph glyph-name="ucircumflex" unicode="&#xfb;" horiz-adv-x="649" 
d="M0 0zM420 127q-36 -3 -72 -3q-31 0 -62.5 2t-63.5 5q-8 95 -14 198t-9 218q-48 0 -94 -1.5t-93 -6.5q8 -96 19.5 -201.5t23.5 -203.5q10 -77 41.5 -119.5t99.5 -42.5q29 0 60.5 0.5t61 1.5t54 2t39.5 2q32 2 52 13.5t32 33t18.5 54t11.5 77.5q10 87 17.5 177.5
t13.5 183.5q-55 0 -110 -9q-2 -101 -9 -195t-17 -186zM281 157q17 -1 34 -1.5t34 -0.5h21.5t21.5 1q9 89 15.5 182.5t8.5 196.5q42 7 84.5 9.5t88.5 2.5l36 -40q-3 -46 -7 -97t-8.5 -102t-9 -100.5t-9.5 -92.5q-6 -48 -14 -84.5t-23.5 -62t-40 -39.5t-62.5 -17
q-15 -1 -40 -2t-54.5 -2t-61.5 -1.5t-62 -0.5q-24 0 -41.5 3.5t-33 11t-30 18.5t-30.5 25q-31 26 -48 66.5t-25 99.5q-6 49 -12.5 105.5t-12.5 114t-11.5 113.5t-8.5 104q59 5 120.5 7.5t127.5 2.5l36 -40q3 -104 6.5 -198t10.5 -182zM463 685q-13 10 -27 22.5t-32 28.5
t-40 36t-50 46q-26 -28 -63 -64.5t-80 -73.5q26 -27 53 -44q23 16 41 30.5t43 38.5q24 -18 46.5 -36t46.5 -33q19 11 33.5 23.5t28.5 25.5zM541 653q-15 -17 -28 -29.5t-25 -22t-24 -17.5t-26 -17q-18 10 -42.5 26.5t-47.5 36.5q-19 -17 -38 -31.5t-48 -32.5
q-36 26 -68.5 53t-66.5 62q55 48 103.5 95t82.5 82q28 -27 54 -51t53 -48t56.5 -50t64.5 -56z" />
    <glyph glyph-name="udieresis" unicode="&#xfc;" horiz-adv-x="649" 
d="M0 0zM420 138q-36 -3 -72 -3q-31 0 -62.5 2t-63.5 5q-8 95 -14 198t-9 218q-48 0 -94 -1.5t-93 -6.5q8 -96 19.5 -201.5t23.5 -203.5q10 -77 41.5 -119.5t99.5 -42.5q29 0 60.5 0.5t61 1.5t54 2t39.5 2q32 2 52 13.5t32 33t18.5 54t11.5 77.5q10 87 17.5 177.5
t13.5 183.5q-55 0 -110 -9q-2 -101 -9 -195t-17 -186zM281 168q17 -1 34 -1.5t34 -0.5h21.5t21.5 1q9 89 15.5 182.5t8.5 196.5q42 7 84.5 9.5t88.5 2.5l36 -40q-3 -46 -7 -97t-8.5 -102t-9 -100.5t-9.5 -92.5q-6 -48 -14 -84.5t-23.5 -62t-40 -39.5t-62.5 -17
q-15 -1 -40 -2t-54.5 -2t-61.5 -1.5t-62 -0.5q-24 0 -41.5 3.5t-33 11t-30 18.5t-30.5 25q-31 26 -48 66.5t-25 99.5q-6 49 -12.5 105.5t-12.5 114t-11.5 113.5t-8.5 104q59 5 120.5 7.5t127.5 2.5l36 -40q3 -104 6.5 -198t10.5 -182zM329 719q35 -4 68.5 -6.5t65.5 -4.5
q3 23 6.5 46.5t4.5 48.5q-37 4 -73 6.5t-71 2.5zM133 709q70 0 135 6q3 22 5 46.5t2 50.5q-38 -2 -73.5 -3t-71.5 -6zM103 679l-4 152q18 2 45.5 4t57 3.5t57.5 2.5t46 2q57 -2 106 -4.5t95 -7.5l36 -40q-2 -37 -5.5 -75.5t-7.5 -73.5q-16 0 -41.5 2t-53.5 4.5t-55 5.5
t-47 7l-1 -10q-47 -4 -93 -6t-94 -2z" />
    <glyph glyph-name="yacute" unicode="&#xfd;" horiz-adv-x="567" 
d="M0 0zM161 -23q35 2 70 4.5t68 8.5q-4 39 -5 79t-1 82q52 98 99 198.5t90 206.5q-37 5 -73.5 8t-74.5 3q-26 -67 -59 -129t-71 -120q-17 61 -32.5 123t-27.5 131q-33 5 -66 7t-65 4q34 -109 73 -213t83 -206q-5 -45 -6.5 -92t-1.5 -95zM131 -39q0 22 0.5 48l1 52t2 51.5
t3.5 46.5q-42 99 -83.5 212t-83.5 245q51 -2 101 -6.5t98 -10.5l35 -40q6 -37 13 -70t15 -65q22 40 42.5 84t38.5 89q48 0 101.5 -4t109.5 -12l34 -39q-51 -125 -100.5 -233t-99.5 -204q0 -40 2 -83t7 -92q-55 -11 -94 -14t-74 -5zM362 855q25 -28 42.5 -49t30 -38t22 -31.5
t18.5 -28.5q-31 -16 -60 -31.5t-59 -32t-61.5 -34t-66.5 -36.5q-36 38 -56.5 67.5t-34.5 62.5q26 23 54 45.5t56.5 42.5t57 36.5t57.5 26.5zM207 636q50 35 96.5 65.5t93.5 55.5q-11 17 -23 32t-24 29q-39 -14 -86 -49t-91 -74q8 -18 16.5 -32t17.5 -27z" />
    <glyph glyph-name="thorn" unicode="&#xfe;" horiz-adv-x="614" 
d="M6 0zM96 256q17 1 47 3t64 3.5t65.5 2.5t51.5 1q21 0 31 -8.5t10 -31.5q0 -20 -10.5 -31.5t-26.5 -11.5q-17 0 -46 1t-62.5 2.5t-67.5 3t-62 3.5q2 35 6 63zM36 -14q35 1 69.5 3.5t68.5 7.5q0 21 0.5 33.5t1 20.5t1 13t1.5 10q40 -4 92.5 -8t100.5 -4q38 0 60.5 13.5
t40.5 33.5q9 10 15.5 22t11 28.5t6.5 39t2 52.5q0 69 -8.5 108t-23.5 65q-38 63 -127 63q-13 0 -32 -0.5t-40.5 -1.5t-44.5 -3t-45 -4q-2 17 -2.5 35t-0.5 47l-76 -6t-71 -8v-560zM6 573q16 2 43.5 5t57.5 6t59 5t48 4l35 -40v-40q29 2 55 3.5t44 1.5q62 0 109.5 -34
t79.5 -84q17 -26 26.5 -68t9.5 -108q0 -36 -2.5 -62.5t-8 -47t-13.5 -35.5t-18 -27q-20 -23 -49 -39.5t-73 -16.5q-43 0 -86 3t-81 6q-1 -10 -1 -24t-1 -46q-48 -7 -96.5 -10.5t-97.5 -5.5l-40 36v618z" />
    <glyph glyph-name="ydieresis" unicode="&#xff;" horiz-adv-x="567" 
d="M0 0zM161 -23q35 2 70 4.5t68 8.5q-4 39 -5 79t-1 82q52 98 99 198.5t90 206.5q-37 5 -73.5 8t-74.5 3q-26 -67 -59 -129t-71 -120q-17 61 -32.5 123t-27.5 131q-33 5 -66 7t-65 4q34 -109 73 -213t83 -206q-5 -45 -6.5 -92t-1.5 -95zM131 -39q0 22 0.5 48l1 52t2 51.5
t3.5 46.5q-42 99 -83.5 212t-83.5 245q51 -2 101 -6.5t98 -10.5l35 -40q6 -37 13 -70t15 -65q22 40 42.5 84t38.5 89q48 0 101.5 -4t109.5 -12l34 -39q-51 -125 -100.5 -233t-99.5 -204q0 -40 2 -83t7 -92q-55 -11 -94 -14t-74 -5zM273 719q35 -4 68.5 -6.5t65.5 -4.5
q3 23 6.5 46.5t4.5 48.5q-37 4 -73 6.5t-71 2.5zM77 709q70 0 135 6q3 22 5 46.5t2 50.5q-38 -2 -73.5 -3t-71.5 -6zM47 679l-4 152q18 2 45.5 4t57 3.5t57.5 2.5t46 2q57 -2 106 -4.5t95 -7.5l36 -40q-2 -37 -5.5 -75.5t-7.5 -73.5q-16 0 -41.5 2t-53.5 4.5t-55 5.5t-47 7
l-1 -10q-47 -4 -93 -6t-94 -2z" />
    <glyph glyph-name="Amacron" unicode="&#x100;" horiz-adv-x="643" 
d="M0 0zM408 127q-26 0 -53.5 0.5t-53.5 2t-49 3t-39 2.5t-23.5 8t-7.5 25q0 47 23 47q16 0 44.5 -1t61 -2.5t64.5 -3.5t55 -4q26 -3 26 -41q0 -20 -7 -28t-21 -8h-20zM546 0q-11 20 -15.5 51.5t-4.5 80.5q0 52 1 105.5t1 107.5q0 103 -40.5 149t-125.5 46q-24 0 -60 -0.5
t-77 -2t-83 -4t-79 -5.5q-5 -31 -6.5 -62t-1.5 -63q0 -40 3 -85q34 5 76.5 8.5t84.5 6t80.5 4t65.5 1.5q47 0 68 -13.5t21 -50.5q0 -8 -0.5 -14.5t-1.5 -14.5q-10 22 -27.5 32.5t-41.5 13.5q-49 6 -98.5 7.5t-91.5 1.5q-85 0 -126 -39t-41 -110q0 -81 54 -118
q21 -15 51.5 -25t62 -15.5t60.5 -7.5t48 -2q31 0 52.5 3.5t36.5 10.5t25 18.5t18 26.5q23 -43 90 -43h11t11 1zM77 -12q-23 20 -38.5 38.5t-25 37.5t-14 40t-4.5 47q0 81 44 128l-9 3q-2 27 -3.5 54.5t-1.5 56.5q0 40 2.5 80.5t8.5 82.5q43 4 90.5 6.5t91.5 4.5t82 3t62 1
q29 0 52 -4t44 -13.5t41 -26.5t43 -42q26 -29 39 -72t13 -106q0 -52 -1 -104.5t-1 -108.5q0 -23 1 -41.5t4.5 -35.5t10 -34.5t16.5 -37.5q-12 -7 -29 -9.5t-33 -2.5q-55 0 -87 25q-19 -21 -50 -31t-85 -10q-31 0 -66 2t-70 9.5t-68 21.5t-59 38zM434 759q-62 -2 -137 -2.5
t-147 -0.5q-2 -20 -2 -40.5v-41.5q20 -1 42 -1.5t45 -0.5q88 0 193 6q3 20 4 40.5t2 40.5zM500 721q-1 -23 -2.5 -47.5t-6.5 -59.5q-53 -4 -113.5 -6t-104.5 -2q-12 0 -27.5 0.5t-32 0.5t-31 0.5t-24.5 0.5l-40 36q0 35 0.5 69.5t3.5 73.5h77.5t83.5 0.5t81 1t70 1.5z" />
    <glyph glyph-name="amacron" unicode="&#x101;" horiz-adv-x="643" 
d="M0 0zM408 127q-26 0 -53.5 0.5t-53.5 2t-49 3t-39 2.5t-23.5 8t-7.5 25q0 47 23 47q16 0 44.5 -1t61 -2.5t64.5 -3.5t55 -4q26 -3 26 -41q0 -20 -7 -28t-21 -8h-20zM546 0q-11 20 -15.5 51.5t-4.5 80.5q0 52 1 105.5t1 107.5q0 103 -40.5 149t-125.5 46q-24 0 -60 -0.5
t-77 -2t-83 -4t-79 -5.5q-5 -31 -6.5 -62t-1.5 -63q0 -40 3 -85q34 5 76.5 8.5t84.5 6t80.5 4t65.5 1.5q47 0 68 -13.5t21 -50.5q0 -8 -0.5 -14.5t-1.5 -14.5q-10 22 -27.5 32.5t-41.5 13.5q-49 6 -98.5 7.5t-91.5 1.5q-85 0 -126 -39t-41 -110q0 -81 54 -118
q21 -15 51.5 -25t62 -15.5t60.5 -7.5t48 -2q31 0 52.5 3.5t36.5 10.5t25 18.5t18 26.5q23 -43 90 -43h11t11 1zM77 -12q-23 20 -38.5 38.5t-25 37.5t-14 40t-4.5 47q0 81 44 128l-9 3q-2 27 -3.5 54.5t-1.5 56.5q0 40 2.5 80.5t8.5 82.5q43 4 90.5 6.5t91.5 4.5t82 3t62 1
q29 0 52 -4t44 -13.5t41 -26.5t43 -42q26 -29 39 -72t13 -106q0 -52 -1 -104.5t-1 -108.5q0 -23 1 -41.5t4.5 -35.5t10 -34.5t16.5 -37.5q-12 -7 -29 -9.5t-33 -2.5q-55 0 -87 25q-19 -21 -50 -31t-85 -10q-31 0 -66 2t-70 9.5t-68 21.5t-59 38zM434 759q-62 -2 -137 -2.5
t-147 -0.5q-2 -20 -2 -40.5v-41.5q20 -1 42 -1.5t45 -0.5q88 0 193 6q3 20 4 40.5t2 40.5zM500 721q-1 -23 -2.5 -47.5t-6.5 -59.5q-53 -4 -113.5 -6t-104.5 -2q-12 0 -27.5 0.5t-32 0.5t-31 0.5t-24.5 0.5l-40 36q0 35 0.5 69.5t3.5 73.5h77.5t83.5 0.5t81 1t70 1.5z" />
    <glyph glyph-name="Abreve" unicode="&#x102;" horiz-adv-x="643" 
d="M0 0zM408 127q-26 0 -53.5 0.5t-53.5 2t-49 3t-39 2.5t-23.5 8t-7.5 25q0 47 23 47q16 0 44.5 -1t61 -2.5t64.5 -3.5t55 -4q26 -3 26 -41q0 -20 -7 -28t-21 -8h-20zM546 0q-11 20 -15.5 51.5t-4.5 80.5q0 52 1 105.5t1 107.5q0 103 -40.5 149t-125.5 46q-24 0 -60 -0.5
t-77 -2t-83 -4t-79 -5.5q-5 -31 -6.5 -62t-1.5 -63q0 -40 3 -85q34 5 76.5 8.5t84.5 6t80.5 4t65.5 1.5q47 0 68 -13.5t21 -50.5q0 -8 -0.5 -14.5t-1.5 -14.5q-10 22 -27.5 32.5t-41.5 13.5q-49 6 -98.5 7.5t-91.5 1.5q-85 0 -126 -39t-41 -110q0 -81 54 -118
q21 -15 51.5 -25t62 -15.5t60.5 -7.5t48 -2q31 0 52.5 3.5t36.5 10.5t25 18.5t18 26.5q23 -43 90 -43h11t11 1zM77 -12q-23 20 -38.5 38.5t-25 37.5t-14 40t-4.5 47q0 81 44 128l-9 3q-2 27 -3.5 54.5t-1.5 56.5q0 40 2.5 80.5t8.5 82.5q43 4 90.5 6.5t91.5 4.5t82 3t62 1
q29 0 52 -4t44 -13.5t41 -26.5t43 -42q26 -29 39 -72t13 -106q0 -52 -1 -104.5t-1 -108.5q0 -23 1 -41.5t4.5 -35.5t10 -34.5t16.5 -37.5q-12 -7 -29 -9.5t-33 -2.5q-55 0 -87 25q-19 -21 -50 -31t-85 -10q-31 0 -66 2t-70 9.5t-68 21.5t-59 38zM128 782q4 -63 43.5 -102.5
t117.5 -39.5t116 35.5t49 117.5q-14 7 -35 13t-39 11q-8 -55 -26.5 -76t-58.5 -21t-63 26.5t-28 71.5q-17 -7 -36.5 -16t-39.5 -20zM98 801q33 17 63 27.5t68 24.5l38 -34q2 -20 6 -36.5t10 -30.5q6 -2 12 -2q25 0 38 20.5t22 79.5q30 -8 66.5 -16t65.5 -23l36 -40
q-8 -53 -22 -89.5t-37.5 -60t-57 -34t-79.5 -10.5q-48 0 -85 13.5t-71 43.5q-38 32 -54.5 70t-18.5 97z" />
    <glyph glyph-name="abreve" unicode="&#x103;" horiz-adv-x="643" 
d="M0 0zM408 127q-26 0 -53.5 0.5t-53.5 2t-49 3t-39 2.5t-23.5 8t-7.5 25q0 47 23 47q16 0 44.5 -1t61 -2.5t64.5 -3.5t55 -4q26 -3 26 -41q0 -20 -7 -28t-21 -8h-20zM546 0q-11 20 -15.5 51.5t-4.5 80.5q0 52 1 105.5t1 107.5q0 103 -40.5 149t-125.5 46q-24 0 -60 -0.5
t-77 -2t-83 -4t-79 -5.5q-5 -31 -6.5 -62t-1.5 -63q0 -40 3 -85q34 5 76.5 8.5t84.5 6t80.5 4t65.5 1.5q47 0 68 -13.5t21 -50.5q0 -8 -0.5 -14.5t-1.5 -14.5q-10 22 -27.5 32.5t-41.5 13.5q-49 6 -98.5 7.5t-91.5 1.5q-85 0 -126 -39t-41 -110q0 -81 54 -118
q21 -15 51.5 -25t62 -15.5t60.5 -7.5t48 -2q31 0 52.5 3.5t36.5 10.5t25 18.5t18 26.5q23 -43 90 -43h11t11 1zM77 -12q-23 20 -38.5 38.5t-25 37.5t-14 40t-4.5 47q0 81 44 128l-9 3q-2 27 -3.5 54.5t-1.5 56.5q0 40 2.5 80.5t8.5 82.5q43 4 90.5 6.5t91.5 4.5t82 3t62 1
q29 0 52 -4t44 -13.5t41 -26.5t43 -42q26 -29 39 -72t13 -106q0 -52 -1 -104.5t-1 -108.5q0 -23 1 -41.5t4.5 -35.5t10 -34.5t16.5 -37.5q-12 -7 -29 -9.5t-33 -2.5q-55 0 -87 25q-19 -21 -50 -31t-85 -10q-31 0 -66 2t-70 9.5t-68 21.5t-59 38zM128 782q4 -63 43.5 -102.5
t117.5 -39.5t116 35.5t49 117.5q-14 7 -35 13t-39 11q-8 -55 -26.5 -76t-58.5 -21t-63 26.5t-28 71.5q-17 -7 -36.5 -16t-39.5 -20zM98 801q33 17 63 27.5t68 24.5l38 -34q2 -20 6 -36.5t10 -30.5q6 -2 12 -2q25 0 38 20.5t22 79.5q30 -8 66.5 -16t65.5 -23l36 -40
q-8 -53 -22 -89.5t-37.5 -60t-57 -34t-79.5 -10.5q-48 0 -85 13.5t-71 43.5q-38 32 -54.5 70t-18.5 97z" />
    <glyph glyph-name="Aogonek" unicode="&#x104;" horiz-adv-x="643" 
d="M85 -6q-24 21 -41 39.5t-28 37t-16 40t-5 48.5q0 83 44 128l-9 6q-1 10 -2 26.5t-1.5 33.5t-1 33.5t-0.5 27.5q0 34 2.5 71t8.5 81q36 3 82.5 5t92.5 4t86.5 3t64.5 1q31 0 55 -4.5t44.5 -14.5t39.5 -26t40 -40q26 -29 39.5 -69.5t13.5 -109.5q0 -51 -1 -103.5t-1 -109.5
q0 -38 7 -77.5t15 -62.5l20 -20q-2 -45 -9.5 -80t-22.5 -62q-27 -14 -55 -16t-63 -2q-22 0 -48 9t-49 25t-38.5 38t-15.5 47q0 7 0.5 13t1.5 12q-28 1 -62 4t-68 10.5t-65.5 20.5t-54.5 33zM546 8q-11 21 -15.5 52t-4.5 80q0 51 1 105t1 107q0 103 -40.5 150t-125.5 47
q-24 0 -60 -1t-77 -2.5t-83 -3.5t-79 -5q-4 -31 -6 -61t-2 -62q0 -44 3 -87q34 4 76.5 7.5t84.5 6t80.5 4t65.5 1.5q47 0 68 -13.5t21 -51.5q0 -7 -0.5 -14t-1.5 -14q-10 22 -27.5 32.5t-41.5 13.5q-49 6 -98.5 8t-91.5 2q-85 0 -126 -39.5t-41 -110.5q0 -79 54 -119
q21 -15 51.5 -24.5t62 -15t60.5 -7t48 -1.5q31 0 52.5 3t36.5 10t25 18t18 27q15 -30 53 -39q-53 -12 -88.5 -39.5t-35.5 -70.5q0 -23 21 -39.5t62 -16.5q32 0 56 2.5t42 11.5q11 19 15.5 38.5t6.5 41.5q-14 -5 -28.5 -6t-28.5 -1q-36 0 -36 27q0 18 21.5 31t51.5 18z
M428 134q-27 0 -57.5 1t-59.5 2t-54.5 2.5t-43.5 3.5q-16 2 -23.5 8.5t-7.5 23.5q0 48 23 48q16 0 44.5 -1t61 -2.5t64.5 -4t55 -4.5q14 -2 20 -11t6 -29q0 -37 -28 -37z" />
    <glyph glyph-name="aogonek" unicode="&#x105;" horiz-adv-x="643" 
d="M0 0zM85 -6q-24 21 -41 39.5t-28 37t-16 40t-5 48.5q0 83 44 128l-9 6q-1 10 -2 26.5t-1.5 33.5t-1 33.5t-0.5 27.5q0 34 2.5 71t8.5 81q36 3 82.5 5t92.5 4t86.5 3t64.5 1q31 0 55 -4.5t44.5 -14.5t39.5 -26t40 -40q26 -29 39.5 -69.5t13.5 -109.5q0 -51 -1 -103.5
t-1 -109.5q0 -38 7 -77.5t15 -62.5l20 -20q-2 -45 -9.5 -80t-22.5 -62q-27 -14 -55 -16t-63 -2q-22 0 -48 9t-49 25t-38.5 38t-15.5 47q0 7 0.5 13t1.5 12q-28 1 -62 4t-68 10.5t-65.5 20.5t-54.5 33zM546 8q-11 21 -15.5 52t-4.5 80q0 51 1 105t1 107q0 103 -40.5 150
t-125.5 47q-24 0 -60 -1t-77 -2.5t-83 -3.5t-79 -5q-4 -31 -6 -61t-2 -62q0 -44 3 -87q34 4 76.5 7.5t84.5 6t80.5 4t65.5 1.5q47 0 68 -13.5t21 -51.5q0 -7 -0.5 -14t-1.5 -14q-10 22 -27.5 32.5t-41.5 13.5q-49 6 -98.5 8t-91.5 2q-85 0 -126 -39.5t-41 -110.5
q0 -79 54 -119q21 -15 51.5 -24.5t62 -15t60.5 -7t48 -1.5q31 0 52.5 3t36.5 10t25 18t18 27q15 -30 53 -39q-53 -12 -88.5 -39.5t-35.5 -70.5q0 -23 21 -39.5t62 -16.5q32 0 56 2.5t42 11.5q11 19 15.5 38.5t6.5 41.5q-14 -5 -28.5 -6t-28.5 -1q-36 0 -36 27q0 18 21.5 31
t51.5 18zM428 134q-27 0 -57.5 1t-59.5 2t-54.5 2.5t-43.5 3.5q-16 2 -23.5 8.5t-7.5 23.5q0 48 23 48q16 0 44.5 -1t61 -2.5t64.5 -4t55 -4.5q14 -2 20 -11t6 -29q0 -37 -28 -37z" />
    <glyph glyph-name="Cacute" unicode="&#x106;" horiz-adv-x="644" 
d="M0 0zM440 122q-6 -9 -12 -16t-14 -15q-20 -1 -41 -1.5t-42 -0.5q-47 0 -96 1t-105 3q-7 60 -11.5 122.5t-4.5 131.5q78 -2 155.5 -5.5t158.5 -11.5q9 -10 16 -24t13 -29q27 38 50.5 77.5t45.5 83.5q-11 53 -53 74t-125 21q-25 0 -54.5 -0.5t-57 -1t-49.5 -1.5t-31 -1
q-80 -5 -118.5 -51t-38.5 -121q0 -94 2 -169.5t16.5 -129t47.5 -82t96 -28.5q17 0 46 2t62 5t66 7t59 7q99 13 119 77q-40 39 -100 76zM432 164q25 -16 47.5 -31t43.5 -32.5t42.5 -37.5t44.5 -47q-32 -98 -147 -113q-26 -3 -59.5 -7t-67.5 -7t-63.5 -5t-46.5 -2q-25 0 -44 4
t-36 11.5t-34 19.5t-37 28q-30 24 -46 57.5t-23.5 82.5t-9 116t-1.5 156q0 87 48 142.5t139 60.5q12 1 34.5 1.5t50 1t56 1t52.5 0.5q38 0 66 -4t51 -14t43.5 -27.5t44.5 -43.5q14 -17 25 -36.5t16 -41.5q-24 -48 -56.5 -101t-77.5 -115l-38 33l-21 53q-35 3 -64.5 5
t-59 3.5t-59.5 2.5t-65 2q1 -42 2.5 -81t5.5 -77q33 -1 66.5 -2t67.5 -1q20 0 39.5 0.5t39.5 1.5zM401 855q25 -28 42.5 -49t30 -38t22 -31.5t18.5 -28.5q-31 -16 -60 -31.5t-59 -32t-61.5 -34t-66.5 -36.5q-36 38 -56.5 67.5t-34.5 62.5q26 23 54 45.5t56.5 42.5t57 36.5
t57.5 26.5zM246 636q50 35 96.5 65.5t93.5 55.5q-11 17 -23 32t-24 29q-39 -14 -86 -49t-91 -74q8 -18 16.5 -32t17.5 -27z" />
    <glyph glyph-name="cacute" unicode="&#x107;" horiz-adv-x="644" 
d="M0 0zM440 122q-6 -9 -12 -16t-14 -15q-20 -1 -41 -1.5t-42 -0.5q-47 0 -96 1t-105 3q-7 60 -11.5 122.5t-4.5 131.5q78 -2 155.5 -5.5t158.5 -11.5q9 -10 16 -24t13 -29q27 38 50.5 77.5t45.5 83.5q-11 53 -53 74t-125 21q-25 0 -54.5 -0.5t-57 -1t-49.5 -1.5t-31 -1
q-80 -5 -118.5 -51t-38.5 -121q0 -94 2 -169.5t16.5 -129t47.5 -82t96 -28.5q17 0 46 2t62 5t66 7t59 7q99 13 119 77q-40 39 -100 76zM432 164q25 -16 47.5 -31t43.5 -32.5t42.5 -37.5t44.5 -47q-32 -98 -147 -113q-26 -3 -59.5 -7t-67.5 -7t-63.5 -5t-46.5 -2q-25 0 -44 4
t-36 11.5t-34 19.5t-37 28q-30 24 -46 57.5t-23.5 82.5t-9 116t-1.5 156q0 87 48 142.5t139 60.5q12 1 34.5 1.5t50 1t56 1t52.5 0.5q38 0 66 -4t51 -14t43.5 -27.5t44.5 -43.5q14 -17 25 -36.5t16 -41.5q-24 -48 -56.5 -101t-77.5 -115l-38 33l-21 53q-35 3 -64.5 5
t-59 3.5t-59.5 2.5t-65 2q1 -42 2.5 -81t5.5 -77q33 -1 66.5 -2t67.5 -1q20 0 39.5 0.5t39.5 1.5zM401 855q25 -28 42.5 -49t30 -38t22 -31.5t18.5 -28.5q-31 -16 -60 -31.5t-59 -32t-61.5 -34t-66.5 -36.5q-36 38 -56.5 67.5t-34.5 62.5q26 23 54 45.5t56.5 42.5t57 36.5
t57.5 26.5zM246 636q50 35 96.5 65.5t93.5 55.5q-11 17 -23 32t-24 29q-39 -14 -86 -49t-91 -74q8 -18 16.5 -32t17.5 -27z" />
    <glyph glyph-name="Cdotaccent" unicode="&#x10a;" horiz-adv-x="644" 
d="M0 0zM440 149q-6 -9 -12 -16t-14 -15q-20 -1 -41 -1.5t-42 -0.5q-47 0 -96 1t-105 3q-7 60 -11.5 122.5t-4.5 131.5q78 -2 155.5 -5.5t158.5 -11.5q9 -10 16 -24t13 -29q27 38 50.5 77.5t45.5 83.5q-11 53 -53 74t-125 21q-25 0 -54.5 -0.5t-57 -1t-49.5 -1.5t-31 -1
q-80 -5 -118.5 -51t-38.5 -121q0 -94 2 -169.5t16.5 -129t47.5 -82t96 -28.5q17 0 46 2t62 5t66 7t59 7q99 13 119 77q-40 39 -100 76zM432 191q25 -16 47.5 -31t43.5 -32.5t42.5 -37.5t44.5 -47q-32 -98 -147 -113q-26 -3 -59.5 -7t-67.5 -7t-63.5 -5t-46.5 -2q-25 0 -44 4
t-36 11.5t-34 19.5t-37 28q-30 24 -46 57.5t-23.5 82.5t-9 116t-1.5 156q0 87 48 142.5t139 60.5q12 1 34.5 1.5t50 1t56 1t52.5 0.5q38 0 66 -4t51 -14t43.5 -27.5t44.5 -43.5q14 -17 25 -36.5t16 -41.5q-24 -48 -56.5 -101t-77.5 -115l-38 33l-21 53q-35 3 -64.5 5
t-59 3.5t-59.5 2.5t-65 2q1 -42 2.5 -81t5.5 -77q33 -1 66.5 -2t67.5 -1q20 0 39.5 0.5t39.5 1.5zM215 709q70 0 135 6q3 22 5 46.5t2 50.5q-38 -2 -73.5 -3t-71.5 -6zM181 831q18 2 45.5 4t57 3.5t57.5 2.5t46 2l36 -41q0 -44 -3 -81.5t-7 -69.5q-47 -4 -93 -6t-94 -2
l-41 36z" />
    <glyph glyph-name="cdotaccent" unicode="&#x10b;" horiz-adv-x="644" 
d="M0 0zM440 149q-6 -9 -12 -16t-14 -15q-20 -1 -41 -1.5t-42 -0.5q-47 0 -96 1t-105 3q-7 60 -11.5 122.5t-4.5 131.5q78 -2 155.5 -5.5t158.5 -11.5q9 -10 16 -24t13 -29q27 38 50.5 77.5t45.5 83.5q-11 53 -53 74t-125 21q-25 0 -54.5 -0.5t-57 -1t-49.5 -1.5t-31 -1
q-80 -5 -118.5 -51t-38.5 -121q0 -94 2 -169.5t16.5 -129t47.5 -82t96 -28.5q17 0 46 2t62 5t66 7t59 7q99 13 119 77q-40 39 -100 76zM432 191q25 -16 47.5 -31t43.5 -32.5t42.5 -37.5t44.5 -47q-32 -98 -147 -113q-26 -3 -59.5 -7t-67.5 -7t-63.5 -5t-46.5 -2q-25 0 -44 4
t-36 11.5t-34 19.5t-37 28q-30 24 -46 57.5t-23.5 82.5t-9 116t-1.5 156q0 87 48 142.5t139 60.5q12 1 34.5 1.5t50 1t56 1t52.5 0.5q38 0 66 -4t51 -14t43.5 -27.5t44.5 -43.5q14 -17 25 -36.5t16 -41.5q-24 -48 -56.5 -101t-77.5 -115l-38 33l-21 53q-35 3 -64.5 5
t-59 3.5t-59.5 2.5t-65 2q1 -42 2.5 -81t5.5 -77q33 -1 66.5 -2t67.5 -1q20 0 39.5 0.5t39.5 1.5zM215 709q70 0 135 6q3 22 5 46.5t2 50.5q-38 -2 -73.5 -3t-71.5 -6zM181 831q18 2 45.5 4t57 3.5t57.5 2.5t46 2l36 -41q0 -44 -3 -81.5t-7 -69.5q-47 -4 -93 -6t-94 -2
l-41 36z" />
    <glyph glyph-name="Ccaron" unicode="&#x10c;" horiz-adv-x="644" 
d="M0 0zM440 122q-6 -9 -12 -16t-14 -15q-20 -1 -41 -1.5t-42 -0.5q-47 0 -96 1t-105 3q-7 60 -11.5 122.5t-4.5 131.5q78 -2 155.5 -5.5t158.5 -11.5q9 -10 16 -24t13 -29q27 38 50.5 77.5t45.5 83.5q-11 53 -53 74t-125 21q-25 0 -54.5 -0.5t-57 -1t-49.5 -1.5t-31 -1
q-80 -5 -118.5 -51t-38.5 -121q0 -94 2 -169.5t16.5 -129t47.5 -82t96 -28.5q17 0 46 2t62 5t66 7t59 7q99 13 119 77q-40 39 -100 76zM432 164q25 -16 47.5 -31t43.5 -32.5t42.5 -37.5t44.5 -47q-32 -98 -147 -113q-26 -3 -59.5 -7t-67.5 -7t-63.5 -5t-46.5 -2q-25 0 -44 4
t-36 11.5t-34 19.5t-37 28q-30 24 -46 57.5t-23.5 82.5t-9 116t-1.5 156q0 87 48 142.5t139 60.5q12 1 34.5 1.5t50 1t56 1t52.5 0.5q38 0 66 -4t51 -14t43.5 -27.5t44.5 -43.5q14 -17 25 -36.5t16 -41.5q-24 -48 -56.5 -101t-77.5 -115l-38 33l-21 53q-35 3 -64.5 5
t-59 3.5t-59.5 2.5t-65 2q1 -42 2.5 -81t5.5 -77q33 -1 66.5 -2t67.5 -1q20 0 39.5 0.5t39.5 1.5zM166 765q9 -8 23.5 -22.5t31 -32t34 -37t32.5 -37.5q55 76 115 136q-8 15 -19.5 26.5t-23.5 19.5q-17 -14 -35 -32t-32 -35q-17 17 -34.5 33.5t-39.5 33.5
q-14 -11 -26.5 -23.5t-25.5 -29.5zM126 764q17 26 42.5 49t48.5 41l42 -31.5t32 -27.5q13 14 30.5 28t36.5 30q34 -25 64.5 -55t52.5 -68q-40 -25 -82.5 -67.5t-81.5 -90.5q-41 47 -90.5 98t-94.5 94z" />
    <glyph glyph-name="ccaron" unicode="&#x10d;" horiz-adv-x="644" 
d="M0 0zM440 122q-6 -9 -12 -16t-14 -15q-20 -1 -41 -1.5t-42 -0.5q-47 0 -96 1t-105 3q-7 60 -11.5 122.5t-4.5 131.5q78 -2 155.5 -5.5t158.5 -11.5q9 -10 16 -24t13 -29q27 38 50.5 77.5t45.5 83.5q-11 53 -53 74t-125 21q-25 0 -54.5 -0.5t-57 -1t-49.5 -1.5t-31 -1
q-80 -5 -118.5 -51t-38.5 -121q0 -94 2 -169.5t16.5 -129t47.5 -82t96 -28.5q17 0 46 2t62 5t66 7t59 7q99 13 119 77q-40 39 -100 76zM432 164q25 -16 47.5 -31t43.5 -32.5t42.5 -37.5t44.5 -47q-32 -98 -147 -113q-26 -3 -59.5 -7t-67.5 -7t-63.5 -5t-46.5 -2q-25 0 -44 4
t-36 11.5t-34 19.5t-37 28q-30 24 -46 57.5t-23.5 82.5t-9 116t-1.5 156q0 87 48 142.5t139 60.5q12 1 34.5 1.5t50 1t56 1t52.5 0.5q38 0 66 -4t51 -14t43.5 -27.5t44.5 -43.5q14 -17 25 -36.5t16 -41.5q-24 -48 -56.5 -101t-77.5 -115l-38 33l-21 53q-35 3 -64.5 5
t-59 3.5t-59.5 2.5t-65 2q1 -42 2.5 -81t5.5 -77q33 -1 66.5 -2t67.5 -1q20 0 39.5 0.5t39.5 1.5zM166 765q9 -8 23.5 -22.5t31 -32t34 -37t32.5 -37.5q55 76 115 136q-8 15 -19.5 26.5t-23.5 19.5q-17 -14 -35 -32t-32 -35q-17 17 -34.5 33.5t-39.5 33.5
q-14 -11 -26.5 -23.5t-25.5 -29.5zM126 764q17 26 42.5 49t48.5 41l42 -31.5t32 -27.5q13 14 30.5 28t36.5 30q34 -25 64.5 -55t52.5 -68q-40 -25 -82.5 -67.5t-81.5 -90.5q-41 47 -90.5 98t-94.5 94z" />
    <glyph glyph-name="Dcaron" unicode="&#x10e;" horiz-adv-x="699" 
d="M3 0zM412 337q9 -75 9 -146q0 -30 -1.5 -60t-3.5 -60q-35 -2 -71 -3.5t-71 -1.5q-40 0 -80 1.5t-81 3.5q0 58 2 116t7 116q74 17 145.5 24.5t144.5 9.5zM48 -43q19 -1 49.5 -1.5t67 -1.5t75.5 -1.5t75.5 -1t68.5 -0.5h54q123 0 137 169q5 62 10 122.5t5 118.5
q0 88 -39.5 133.5t-119.5 45.5q-29 0 -78 -3.5t-104.5 -9t-112.5 -12t-102 -12.5zM3 531q49 6 110.5 13t122 13t112.5 9.5t83 3.5t52.5 -4t38.5 -12t32 -20.5t33 -29.5q42 -39 55.5 -83t13.5 -98q0 -45 -3 -89.5t-7 -89.5l-5 -64q-15 -195 -165 -195q-22 0 -56 0.5t-74 1
t-82.5 1t-81.5 1.5t-72 2t-52 2l-40 36zM390 191q0 36 -3 77q-51 -3 -101 -9.5t-100 -16.5q-4 -40 -5.5 -73t-1.5 -71q23 -1 47 -1.5t48 -0.5h31t26 0.5t26 1.5t31 2q2 23 2 45.5v45.5zM193 765q9 -8 23.5 -22.5t31 -32t34 -37t32.5 -37.5q55 76 115 136q-8 15 -19.5 26.5
t-23.5 19.5q-17 -14 -35 -32t-32 -35q-17 17 -34.5 33.5t-39.5 33.5q-14 -11 -26.5 -23.5t-25.5 -29.5zM153 764q17 26 42.5 49t48.5 41l42 -31.5t32 -27.5q13 14 30.5 28t36.5 30q34 -25 64.5 -55t52.5 -68q-40 -25 -82.5 -67.5t-81.5 -90.5q-41 47 -90.5 98t-94.5 94z" />
    <glyph glyph-name="dcaron" unicode="&#x10f;" horiz-adv-x="699" 
d="M3 0zM412 337q9 -75 9 -146q0 -30 -1.5 -60t-3.5 -60q-35 -2 -71 -3.5t-71 -1.5q-40 0 -80 1.5t-81 3.5q0 58 2 116t7 116q74 17 145.5 24.5t144.5 9.5zM48 -43q19 -1 49.5 -1.5t67 -1.5t75.5 -1.5t75.5 -1t68.5 -0.5h54q123 0 137 169q5 62 10 122.5t5 118.5
q0 88 -39.5 133.5t-119.5 45.5q-29 0 -78 -3.5t-104.5 -9t-112.5 -12t-102 -12.5zM3 531q49 6 110.5 13t122 13t112.5 9.5t83 3.5t52.5 -4t38.5 -12t32 -20.5t33 -29.5q42 -39 55.5 -83t13.5 -98q0 -45 -3 -89.5t-7 -89.5l-5 -64q-15 -195 -165 -195q-22 0 -56 0.5t-74 1
t-82.5 1t-81.5 1.5t-72 2t-52 2l-40 36zM390 191q0 36 -3 77q-51 -3 -101 -9.5t-100 -16.5q-4 -40 -5.5 -73t-1.5 -71q23 -1 47 -1.5t48 -0.5h31t26 0.5t26 1.5t31 2q2 23 2 45.5v45.5zM193 765q9 -8 23.5 -22.5t31 -32t34 -37t32.5 -37.5q55 76 115 136q-8 15 -19.5 26.5
t-23.5 19.5q-17 -14 -35 -32t-32 -35q-17 17 -34.5 33.5t-39.5 33.5q-14 -11 -26.5 -23.5t-25.5 -29.5zM153 764q17 26 42.5 49t48.5 41l42 -31.5t32 -27.5q13 14 30.5 28t36.5 30q34 -25 64.5 -55t52.5 -68q-40 -25 -82.5 -67.5t-81.5 -90.5q-41 47 -90.5 98t-94.5 94z" />
    <glyph glyph-name="Dcroat" unicode="&#x110;" horiz-adv-x="702" 
d="M0 0zM415 372q9 -75 9 -146q0 -30 -1 -60t-3 -60q-36 -2 -72 -3.5t-71 -1.5q-40 0 -80 1.5t-81 3.5v40.5t1 40.5l165 -2q17 36 22 85l-184 2l5 66q74 17 145.5 24.5t144.5 9.5zM51 -8q19 -1 49.5 -1.5t67 -1.5t75.5 -1.5t75.5 -1t68.5 -0.5h54q123 0 137 169
q5 62 10 122.5t5 118.5q0 88 -39.5 133.5t-119.5 45.5q-29 0 -78 -3.5t-104.5 -9t-112.5 -12t-102 -12.5l6 -266h-41q0 -23 1.5 -43.5t4.5 -41.5h37zM16 127l-33 30q-6 34 -9 69t-3 76h42l-7 264q49 6 110.5 13t121.5 13t112.5 9.5t83.5 3.5q36 0 75 -13t72 -42.5t55 -76.5
t23 -115q0 -22 -1 -45.5t-3 -52t-4.5 -64t-6.5 -81.5q-15 -195 -165 -195q-22 0 -56 0.5t-74 1t-82.5 1t-81.5 1.5t-72 2t-52 2l-40 36zM393 226q0 36 -3 77l-53 -4l36 -40q-8 -72 -30 -127l48 3q2 23 2 45.5v45.5z" />
    <glyph glyph-name="dcroat" unicode="&#x111;" horiz-adv-x="702" 
d="M0 0zM415 372q9 -75 9 -146q0 -30 -1 -60t-3 -60q-36 -2 -72 -3.5t-71 -1.5q-40 0 -80 1.5t-81 3.5v40.5t1 40.5l165 -2q17 36 22 85l-184 2l5 66q74 17 145.5 24.5t144.5 9.5zM51 -8q19 -1 49.5 -1.5t67 -1.5t75.5 -1.5t75.5 -1t68.5 -0.5h54q123 0 137 169
q5 62 10 122.5t5 118.5q0 88 -39.5 133.5t-119.5 45.5q-29 0 -78 -3.5t-104.5 -9t-112.5 -12t-102 -12.5l6 -266h-41q0 -23 1.5 -43.5t4.5 -41.5h37zM16 127l-33 30q-6 34 -9 69t-3 76h42l-7 264q49 6 110.5 13t121.5 13t112.5 9.5t83.5 3.5q36 0 75 -13t72 -42.5t55 -76.5
t23 -115q0 -22 -1 -45.5t-3 -52t-4.5 -64t-6.5 -81.5q-15 -195 -165 -195q-22 0 -56 0.5t-74 1t-82.5 1t-81.5 1.5t-72 2t-52 2l-40 36zM393 226q0 36 -3 77l-53 -4l36 -40q-8 -72 -30 -127l48 3q2 23 2 45.5v45.5z" />
    <glyph glyph-name="Emacron" unicode="&#x112;" horiz-adv-x="641" 
d="M0 0zM114 258q0 5 -0.5 10t-0.5 10q0 28 11.5 44t34.5 16h49.5t57 -0.5t52.5 -1.5t36 -3q25 -3 25 -36q0 -18 -6.5 -25t-23.5 -9q-18 -2 -46 -2.5t-60 -1.5t-66 -1h-63zM180 4q72 -8 154 -11.5t154 -5.5q7 34 9.5 67.5t2.5 68.5q-29 -2 -66 -4.5t-74 -4.5t-71 -3t-56 -1
q-26 0 -35.5 19.5t-9.5 49.5q16 -1 37 -2t44.5 -2t48 -1.5t47.5 -0.5q172 0 172 176q0 102 -41.5 152t-129.5 50q-86 0 -150.5 -6t-107.5 -23.5t-64 -50t-21 -84.5q0 -18 1 -43t3.5 -53.5t5.5 -58.5t7 -58q4 -37 13 -65.5t25 -49.5t40.5 -34.5t61.5 -20.5zM212 -62
q-29 5 -61.5 18.5t-72.5 53.5q-31 27 -46 66.5t-22 93.5q-4 28 -7 58.5t-5.5 59.5t-3.5 54.5t-1 44.5q0 63 23 101t69.5 58.5t116.5 27.5t164 7q57 0 101.5 -20t80.5 -68q12 -16 22 -33t17.5 -38t11.5 -48t4 -63q0 -118 -66 -167l29 -27q0 -50 -4 -98.5t-13 -98.5
q-40 0 -86.5 1.5t-92.5 3.5t-87.5 5.5t-70.5 7.5zM426 759q-62 -2 -137 -2.5t-147 -0.5q-2 -20 -2 -40.5v-41.5q20 -1 42 -1.5t45 -0.5q88 0 193 6q3 20 4 40.5t2 40.5zM492 721q-1 -23 -2.5 -47.5t-6.5 -59.5q-53 -4 -113.5 -6t-104.5 -2q-12 0 -27.5 0.5t-32 0.5t-31 0.5
t-24.5 0.5l-40 36q0 35 0.5 69.5t3.5 73.5h77.5t83.5 0.5t81 1t70 1.5z" />
    <glyph glyph-name="emacron" unicode="&#x113;" horiz-adv-x="641" 
d="M0 0zM114 258q0 5 -0.5 10t-0.5 10q0 28 11.5 44t34.5 16h49.5t57 -0.5t52.5 -1.5t36 -3q25 -3 25 -36q0 -18 -6.5 -25t-23.5 -9q-18 -2 -46 -2.5t-60 -1.5t-66 -1h-63zM180 4q72 -8 154 -11.5t154 -5.5q7 34 9.5 67.5t2.5 68.5q-29 -2 -66 -4.5t-74 -4.5t-71 -3t-56 -1
q-26 0 -35.5 19.5t-9.5 49.5q16 -1 37 -2t44.5 -2t48 -1.5t47.5 -0.5q172 0 172 176q0 102 -41.5 152t-129.5 50q-86 0 -150.5 -6t-107.5 -23.5t-64 -50t-21 -84.5q0 -18 1 -43t3.5 -53.5t5.5 -58.5t7 -58q4 -37 13 -65.5t25 -49.5t40.5 -34.5t61.5 -20.5zM212 -62
q-29 5 -61.5 18.5t-72.5 53.5q-31 27 -46 66.5t-22 93.5q-4 28 -7 58.5t-5.5 59.5t-3.5 54.5t-1 44.5q0 63 23 101t69.5 58.5t116.5 27.5t164 7q57 0 101.5 -20t80.5 -68q12 -16 22 -33t17.5 -38t11.5 -48t4 -63q0 -118 -66 -167l29 -27q0 -50 -4 -98.5t-13 -98.5
q-40 0 -86.5 1.5t-92.5 3.5t-87.5 5.5t-70.5 7.5zM426 759q-62 -2 -137 -2.5t-147 -0.5q-2 -20 -2 -40.5v-41.5q20 -1 42 -1.5t45 -0.5q88 0 193 6q3 20 4 40.5t2 40.5zM492 721q-1 -23 -2.5 -47.5t-6.5 -59.5q-53 -4 -113.5 -6t-104.5 -2q-12 0 -27.5 0.5t-32 0.5t-31 0.5
t-24.5 0.5l-40 36q0 35 0.5 69.5t3.5 73.5h77.5t83.5 0.5t81 1t70 1.5z" />
    <glyph glyph-name="Ebreve" unicode="&#x114;" horiz-adv-x="641" 
d="M0 0zM114 258q0 5 -0.5 10t-0.5 10q0 28 11.5 44t34.5 16h49.5t57 -0.5t52.5 -1.5t36 -3q25 -3 25 -36q0 -18 -6.5 -25t-23.5 -9q-18 -2 -46 -2.5t-60 -1.5t-66 -1h-63zM180 4q72 -8 154 -11.5t154 -5.5q7 34 9.5 67.5t2.5 68.5q-29 -2 -66 -4.5t-74 -4.5t-71 -3t-56 -1
q-26 0 -35.5 19.5t-9.5 49.5q16 -1 37 -2t44.5 -2t48 -1.5t47.5 -0.5q172 0 172 176q0 102 -41.5 152t-129.5 50q-86 0 -150.5 -6t-107.5 -23.5t-64 -50t-21 -84.5q0 -18 1 -43t3.5 -53.5t5.5 -58.5t7 -58q4 -37 13 -65.5t25 -49.5t40.5 -34.5t61.5 -20.5zM212 -62
q-29 5 -61.5 18.5t-72.5 53.5q-31 27 -46 66.5t-22 93.5q-4 28 -7 58.5t-5.5 59.5t-3.5 54.5t-1 44.5q0 63 23 101t69.5 58.5t116.5 27.5t164 7q57 0 101.5 -20t80.5 -68q12 -16 22 -33t17.5 -38t11.5 -48t4 -63q0 -118 -66 -167l29 -27q0 -50 -4 -98.5t-13 -98.5
q-40 0 -86.5 1.5t-92.5 3.5t-87.5 5.5t-70.5 7.5zM120 782q4 -63 43.5 -102.5t117.5 -39.5t116 35.5t49 117.5q-14 7 -35 13t-39 11q-8 -55 -26.5 -76t-58.5 -21t-63 26.5t-28 71.5q-17 -7 -36.5 -16t-39.5 -20zM90 801q33 17 63 27.5t68 24.5l38 -34q2 -20 6 -36.5
t10 -30.5q6 -2 12 -2q25 0 38 20.5t22 79.5q30 -8 66.5 -16t65.5 -23l36 -40q-8 -53 -22 -89.5t-37.5 -60t-57 -34t-79.5 -10.5q-48 0 -85 13.5t-71 43.5q-38 32 -54.5 70t-18.5 97z" />
    <glyph glyph-name="ebreve" unicode="&#x115;" horiz-adv-x="641" 
d="M0 0zM114 248q0 5 -0.5 10t-0.5 10q0 28 11.5 44t34.5 16h49.5t57 -0.5t52.5 -1.5t36 -3q25 -3 25 -36q0 -18 -6.5 -25t-23.5 -9q-18 -2 -46 -2.5t-60 -1.5t-66 -1h-63zM180 -6q72 -8 154 -11.5t154 -5.5q7 34 9.5 67.5t2.5 68.5q-29 -2 -66 -4.5t-74 -4.5t-71 -3t-56 -1
q-26 0 -35.5 19.5t-9.5 49.5q16 -1 37 -2t44.5 -2t48 -1.5t47.5 -0.5q172 0 172 176q0 102 -41.5 152t-129.5 50q-86 0 -150.5 -6t-107.5 -23.5t-64 -50t-21 -84.5q0 -18 1 -43t3.5 -53.5t5.5 -58.5t7 -58q4 -37 13 -65.5t25 -49.5t40.5 -34.5t61.5 -20.5zM212 -72
q-29 5 -61.5 18.5t-72.5 53.5q-31 27 -46 66.5t-22 93.5q-4 28 -7 58.5t-5.5 59.5t-3.5 54.5t-1 44.5q0 63 23 101t69.5 58.5t116.5 27.5t164 7q57 0 101.5 -20t80.5 -68q12 -16 22 -33t17.5 -38t11.5 -48t4 -63q0 -118 -66 -167l29 -27q0 -50 -4 -98.5t-13 -98.5
q-40 0 -86.5 1.5t-92.5 3.5t-87.5 5.5t-70.5 7.5zM120 782q4 -63 43.5 -102.5t117.5 -39.5t116 35.5t49 117.5q-14 7 -35 13t-39 11q-8 -55 -26.5 -76t-58.5 -21t-63 26.5t-28 71.5q-17 -7 -36.5 -16t-39.5 -20zM90 801q33 17 63 27.5t68 24.5l38 -34q2 -20 6 -36.5
t10 -30.5q6 -2 12 -2q25 0 38 20.5t22 79.5q30 -8 66.5 -16t65.5 -23l36 -40q-8 -53 -22 -89.5t-37.5 -60t-57 -34t-79.5 -10.5q-48 0 -85 13.5t-71 43.5q-38 32 -54.5 70t-18.5 97z" />
    <glyph glyph-name="Edotaccent" unicode="&#x116;" horiz-adv-x="641" 
d="M0 0zM114 288q0 5 -0.5 10t-0.5 10q0 28 11.5 44t34.5 16h49.5t57 -0.5t52.5 -1.5t36 -3q25 -3 25 -36q0 -18 -6.5 -25t-23.5 -9q-18 -2 -46 -2.5t-60 -1.5t-66 -1h-63zM180 34q72 -8 154 -11.5t154 -5.5q7 34 9.5 67.5t2.5 68.5q-29 -2 -66 -4.5t-74 -4.5t-71 -3t-56 -1
q-26 0 -35.5 19.5t-9.5 49.5q16 -1 37 -2t44.5 -2t48 -1.5t47.5 -0.5q172 0 172 176q0 102 -41.5 152t-129.5 50q-86 0 -150.5 -6t-107.5 -23.5t-64 -50t-21 -84.5q0 -18 1 -43t3.5 -53.5t5.5 -58.5t7 -58q4 -37 13 -65.5t25 -49.5t40.5 -34.5t61.5 -20.5zM212 -32
q-29 5 -61.5 18.5t-72.5 53.5q-31 27 -46 66.5t-22 93.5q-4 28 -7 58.5t-5.5 59.5t-3.5 54.5t-1 44.5q0 63 23 101t69.5 58.5t116.5 27.5t164 7q57 0 101.5 -20t80.5 -68q12 -16 22 -33t17.5 -38t11.5 -48t4 -63q0 -118 -66 -167l29 -27q0 -50 -4 -98.5t-13 -98.5
q-40 0 -86.5 1.5t-92.5 3.5t-87.5 5.5t-70.5 7.5zM213 709q70 0 135 6q3 22 5 46.5t2 50.5q-38 -2 -73.5 -3t-71.5 -6zM179 831q18 2 45.5 4t57 3.5t57.5 2.5t46 2l36 -41q0 -44 -3 -81.5t-7 -69.5q-47 -4 -93 -6t-94 -2l-41 36z" />
    <glyph glyph-name="edotaccent" unicode="&#x117;" horiz-adv-x="641" 
d="M0 0zM114 288q0 5 -0.5 10t-0.5 10q0 28 11.5 44t34.5 16h49.5t57 -0.5t52.5 -1.5t36 -3q25 -3 25 -36q0 -18 -6.5 -25t-23.5 -9q-18 -2 -46 -2.5t-60 -1.5t-66 -1h-63zM180 34q72 -8 154 -11.5t154 -5.5q7 34 9.5 67.5t2.5 68.5q-29 -2 -66 -4.5t-74 -4.5t-71 -3t-56 -1
q-26 0 -35.5 19.5t-9.5 49.5q16 -1 37 -2t44.5 -2t48 -1.5t47.5 -0.5q172 0 172 176q0 102 -41.5 152t-129.5 50q-86 0 -150.5 -6t-107.5 -23.5t-64 -50t-21 -84.5q0 -18 1 -43t3.5 -53.5t5.5 -58.5t7 -58q4 -37 13 -65.5t25 -49.5t40.5 -34.5t61.5 -20.5zM212 -32
q-29 5 -61.5 18.5t-72.5 53.5q-31 27 -46 66.5t-22 93.5q-4 28 -7 58.5t-5.5 59.5t-3.5 54.5t-1 44.5q0 63 23 101t69.5 58.5t116.5 27.5t164 7q57 0 101.5 -20t80.5 -68q12 -16 22 -33t17.5 -38t11.5 -48t4 -63q0 -118 -66 -167l29 -27q0 -50 -4 -98.5t-13 -98.5
q-40 0 -86.5 1.5t-92.5 3.5t-87.5 5.5t-70.5 7.5zM213 709q70 0 135 6q3 22 5 46.5t2 50.5q-38 -2 -73.5 -3t-71.5 -6zM179 831q18 2 45.5 4t57 3.5t57.5 2.5t46 2l36 -41q0 -44 -3 -81.5t-7 -69.5q-47 -4 -93 -6t-94 -2l-41 36z" />
    <glyph glyph-name="Eogonek" unicode="&#x118;" horiz-adv-x="641" 
d="M114 265q0 5 -0.5 10t-0.5 10q0 28 11.5 44t34.5 16h49.5t57 -0.5t52.5 -1.5t36 -3q25 -3 25 -36q0 -18 -6.5 -25t-23.5 -9q-18 -2 -46 -2.5t-60 -1.5t-66 -1h-63zM180 11q54 -8 115.5 -11.5t119.5 -3.5q-48 -13 -79 -37.5t-31 -66.5q0 -21 21.5 -38t62.5 -17
q32 0 56 2.5t42 11.5q11 19 15.5 38.5t6.5 41.5q-27 -7 -57 -7q-36 0 -36 27q0 7 5.5 15t14.5 14.5t20 10.5t22 4q6 0 10 -1q7 34 9.5 67.5t2.5 68.5q-29 -2 -66 -4.5t-74 -4.5t-71 -3t-56 -1q-26 0 -35.5 19.5t-9.5 49.5q16 -1 37 -2t44.5 -2t48 -1.5t47.5 -0.5
q172 0 172 176q0 102 -41.5 152t-129.5 50q-86 0 -150.5 -6t-107.5 -23.5t-64 -50t-21 -84.5q0 -18 1 -43t3.5 -53.5t5.5 -58.5t7 -58q9 -74 38.5 -116.5t101.5 -53.5zM427 -229q-27 0 -54 9.5t-48.5 26t-35.5 38.5t-14 47q0 14 2 25t7 22q-38 1 -65 5t-48 11.5t-39 19.5
t-37 31q-21 21 -36 40t-24.5 39.5t-15.5 42.5t-9 49q-4 28 -7 58.5t-5.5 59.5t-3.5 54.5t-1 44.5q0 63 23 101t69.5 58.5t116.5 27.5t164 7q57 0 101.5 -20t79.5 -67q12 -16 22 -32.5t17.5 -37.5t12 -48.5t4.5 -64.5q0 -118 -66 -167l29 -27q0 -42 -3 -83.5t-10 -85.5
l24 -23q-2 -43 -9.5 -78.5t-22.5 -61.5q-27 -14 -55 -17.5t-63 -3.5z" />
    <glyph glyph-name="eogonek" unicode="&#x119;" horiz-adv-x="641" 
d="M0 0zM114 265q0 5 -0.5 10t-0.5 10q0 28 11.5 44t34.5 16h49.5t57 -0.5t52.5 -1.5t36 -3q25 -3 25 -36q0 -18 -6.5 -25t-23.5 -9q-18 -2 -46 -2.5t-60 -1.5t-66 -1h-63zM180 11q54 -8 115.5 -11.5t119.5 -3.5q-48 -13 -79 -37.5t-31 -66.5q0 -21 21.5 -38t62.5 -17
q32 0 56 2.5t42 11.5q11 19 15.5 38.5t6.5 41.5q-27 -7 -57 -7q-36 0 -36 27q0 7 5.5 15t14.5 14.5t20 10.5t22 4q6 0 10 -1q7 34 9.5 67.5t2.5 68.5q-29 -2 -66 -4.5t-74 -4.5t-71 -3t-56 -1q-26 0 -35.5 19.5t-9.5 49.5q16 -1 37 -2t44.5 -2t48 -1.5t47.5 -0.5
q172 0 172 176q0 102 -41.5 152t-129.5 50q-86 0 -150.5 -6t-107.5 -23.5t-64 -50t-21 -84.5q0 -18 1 -43t3.5 -53.5t5.5 -58.5t7 -58q9 -74 38.5 -116.5t101.5 -53.5zM427 -229q-27 0 -54 9.5t-48.5 26t-35.5 38.5t-14 47q0 14 2 25t7 22q-38 1 -65 5t-48 11.5t-39 19.5
t-37 31q-21 21 -36 40t-24.5 39.5t-15.5 42.5t-9 49q-4 28 -7 58.5t-5.5 59.5t-3.5 54.5t-1 44.5q0 63 23 101t69.5 58.5t116.5 27.5t164 7q57 0 101.5 -20t79.5 -67q12 -16 22 -32.5t17.5 -37.5t12 -48.5t4.5 -64.5q0 -118 -66 -167l29 -27q0 -42 -3 -83.5t-10 -85.5
l24 -23q-2 -43 -9.5 -78.5t-22.5 -61.5q-27 -14 -55 -17.5t-63 -3.5z" />
    <glyph glyph-name="Ecaron" unicode="&#x11a;" horiz-adv-x="641" 
d="M0 0zM114 248q0 5 -0.5 10t-0.5 10q0 28 11.5 44t34.5 16h49.5t57 -0.5t52.5 -1.5t36 -3q25 -3 25 -36q0 -18 -6.5 -25t-23.5 -9q-18 -2 -46 -2.5t-60 -1.5t-66 -1h-63zM180 -6q72 -8 154 -11.5t154 -5.5q7 34 9.5 67.5t2.5 68.5q-29 -2 -66 -4.5t-74 -4.5t-71 -3t-56 -1
q-26 0 -35.5 19.5t-9.5 49.5q16 -1 37 -2t44.5 -2t48 -1.5t47.5 -0.5q172 0 172 176q0 102 -41.5 152t-129.5 50q-86 0 -150.5 -6t-107.5 -23.5t-64 -50t-21 -84.5q0 -18 1 -43t3.5 -53.5t5.5 -58.5t7 -58q4 -37 13 -65.5t25 -49.5t40.5 -34.5t61.5 -20.5zM212 -72
q-29 5 -61.5 18.5t-72.5 53.5q-31 27 -46 66.5t-22 93.5q-4 28 -7 58.5t-5.5 59.5t-3.5 54.5t-1 44.5q0 63 23 101t69.5 58.5t116.5 27.5t164 7q57 0 101.5 -20t80.5 -68q12 -16 22 -33t17.5 -38t11.5 -48t4 -63q0 -118 -66 -167l29 -27q0 -50 -4 -98.5t-13 -98.5
q-40 0 -86.5 1.5t-92.5 3.5t-87.5 5.5t-70.5 7.5zM165 765q9 -8 23.5 -22.5t31 -32t34 -37t32.5 -37.5q55 76 115 136q-8 15 -19.5 26.5t-23.5 19.5q-17 -14 -35 -32t-32 -35q-17 17 -34.5 33.5t-39.5 33.5q-14 -11 -26.5 -23.5t-25.5 -29.5zM125 764q17 26 42.5 49t48.5 41
l42 -31.5t32 -27.5q13 14 30.5 28t36.5 30q34 -25 64.5 -55t52.5 -68q-40 -25 -82.5 -67.5t-81.5 -90.5q-41 47 -90.5 98t-94.5 94z" />
    <glyph glyph-name="ecaron" unicode="&#x11b;" horiz-adv-x="641" 
d="M0 0zM114 248q0 5 -0.5 10t-0.5 10q0 28 11.5 44t34.5 16h49.5t57 -0.5t52.5 -1.5t36 -3q25 -3 25 -36q0 -18 -6.5 -25t-23.5 -9q-18 -2 -46 -2.5t-60 -1.5t-66 -1h-63zM180 -6q72 -8 154 -11.5t154 -5.5q7 34 9.5 67.5t2.5 68.5q-29 -2 -66 -4.5t-74 -4.5t-71 -3t-56 -1
q-26 0 -35.5 19.5t-9.5 49.5q16 -1 37 -2t44.5 -2t48 -1.5t47.5 -0.5q172 0 172 176q0 102 -41.5 152t-129.5 50q-86 0 -150.5 -6t-107.5 -23.5t-64 -50t-21 -84.5q0 -18 1 -43t3.5 -53.5t5.5 -58.5t7 -58q4 -37 13 -65.5t25 -49.5t40.5 -34.5t61.5 -20.5zM212 -72
q-29 5 -61.5 18.5t-72.5 53.5q-31 27 -46 66.5t-22 93.5q-4 28 -7 58.5t-5.5 59.5t-3.5 54.5t-1 44.5q0 63 23 101t69.5 58.5t116.5 27.5t164 7q57 0 101.5 -20t80.5 -68q12 -16 22 -33t17.5 -38t11.5 -48t4 -63q0 -118 -66 -167l29 -27q0 -50 -4 -98.5t-13 -98.5
q-40 0 -86.5 1.5t-92.5 3.5t-87.5 5.5t-70.5 7.5zM165 765q9 -8 23.5 -22.5t31 -32t34 -37t32.5 -37.5q55 76 115 136q-8 15 -19.5 26.5t-23.5 19.5q-17 -14 -35 -32t-32 -35q-17 17 -34.5 33.5t-39.5 33.5q-14 -11 -26.5 -23.5t-25.5 -29.5zM125 764q17 26 42.5 49t48.5 41
l42 -31.5t32 -27.5q13 14 30.5 28t36.5 30q34 -25 64.5 -55t52.5 -68q-40 -25 -82.5 -67.5t-81.5 -90.5q-41 47 -90.5 98t-94.5 94z" />
    <glyph glyph-name="Gbreve" unicode="&#x11e;" horiz-adv-x="656" 
d="M8 0zM426 -36q51 0 93 9q2 78 6 153t13 148q-66 -8 -132.5 -13.5t-134.5 -8.5q-5 -23 -6 -48.5t-1 -51.5q38 2 77 5t77 11q-2 -69 -55 -69h-60t-65.5 0.5t-60.5 1t-44 1.5q-2 11 -3.5 60.5t-3.5 154.5q72 3 142.5 5t137.5 2q5 -9 9.5 -19t8.5 -21q32 30 63 65.5t63 74.5
q-17 51 -54 81t-91 30h-112q-60 0 -107 -3.5t-79.5 -18t-50 -42.5t-17.5 -76v-96t0.5 -68t1 -53t1.5 -51q2 -64 30 -100.5t74 -50.5q26 -8 66 -9.5t87 -1.5q91 0 94 82q10 -18 17.5 -39t15.5 -44zM619 380q-14 -18 -29.5 -36.5t-31.5 -35.5l15 1l36 -40q-11 -91 -16.5 -180
t-7.5 -177q-36 -7 -65.5 -10.5t-54.5 -3.5l-37 28q-27 -27 -91 -27q-46 0 -89 2t-72 10q-21 6 -41.5 19.5t-50.5 37.5q-26 21 -41.5 43t-23 54.5t-9.5 78.5t-2 115v136q0 61 22 95t62.5 51t99 21t132.5 4h81q37 0 70.5 -16t61 -42.5t49 -60t33.5 -67.5zM193 252
q0 -47 0.5 -76t1.5 -46h38q0 32 1.5 63t6.5 62zM127 782q4 -63 43.5 -102.5t117.5 -39.5t116 35.5t49 117.5q-14 7 -35 13t-39 11q-8 -55 -26.5 -76t-58.5 -21t-63 26.5t-28 71.5q-17 -7 -36.5 -16t-39.5 -20zM97 801q33 17 63 27.5t68 24.5l38 -34q2 -20 6 -36.5t10 -30.5
q6 -2 12 -2q25 0 38 20.5t22 79.5q30 -8 66.5 -16t65.5 -23l36 -40q-8 -53 -22 -89.5t-37.5 -60t-57 -34t-79.5 -10.5q-48 0 -85 13.5t-71 43.5q-38 32 -54.5 70t-18.5 97z" />
    <glyph glyph-name="gbreve" unicode="&#x11f;" horiz-adv-x="656" 
d="M8 0zM426 -36q51 0 93 9q2 78 6 153t13 148q-66 -8 -132.5 -13.5t-134.5 -8.5q-5 -23 -6 -48.5t-1 -51.5q38 2 77 5t77 11q-2 -69 -55 -69h-60t-65.5 0.5t-60.5 1t-44 1.5q-2 11 -3.5 60.5t-3.5 154.5q72 3 142.5 5t137.5 2q5 -9 9.5 -19t8.5 -21q32 30 63 65.5t63 74.5
q-17 51 -54 81t-91 30h-112q-60 0 -107 -3.5t-79.5 -18t-50 -42.5t-17.5 -76v-96t0.5 -68t1 -53t1.5 -51q2 -64 30 -100.5t74 -50.5q26 -8 66 -9.5t87 -1.5q91 0 94 82q10 -18 17.5 -39t15.5 -44zM619 380q-14 -18 -29.5 -36.5t-31.5 -35.5l15 1l36 -40q-11 -91 -16.5 -180
t-7.5 -177q-36 -7 -65.5 -10.5t-54.5 -3.5l-37 28q-27 -27 -91 -27q-46 0 -89 2t-72 10q-21 6 -41.5 19.5t-50.5 37.5q-26 21 -41.5 43t-23 54.5t-9.5 78.5t-2 115v136q0 61 22 95t62.5 51t99 21t132.5 4h81q37 0 70.5 -16t61 -42.5t49 -60t33.5 -67.5zM193 252
q0 -47 0.5 -76t1.5 -46h38q0 32 1.5 63t6.5 62zM127 782q4 -63 43.5 -102.5t117.5 -39.5t116 35.5t49 117.5q-14 7 -35 13t-39 11q-8 -55 -26.5 -76t-58.5 -21t-63 26.5t-28 71.5q-17 -7 -36.5 -16t-39.5 -20zM97 801q33 17 63 27.5t68 24.5l38 -34q2 -20 6 -36.5t10 -30.5
q6 -2 12 -2q25 0 38 20.5t22 79.5q30 -8 66.5 -16t65.5 -23l36 -40q-8 -53 -22 -89.5t-37.5 -60t-57 -34t-79.5 -10.5q-48 0 -85 13.5t-71 43.5q-38 32 -54.5 70t-18.5 97z" />
    <glyph glyph-name="Gdotaccent" unicode="&#x120;" horiz-adv-x="656" 
d="M8 0zM426 5q51 0 93 9q2 78 6 153t13 148q-66 -8 -132.5 -13.5t-134.5 -8.5q-5 -23 -6 -48.5t-1 -51.5q38 2 77 5t77 11q-2 -69 -55 -69h-60t-65.5 0.5t-60.5 1t-44 1.5q-2 11 -3.5 60.5t-3.5 154.5q72 3 142.5 5t137.5 2q5 -9 9.5 -19t8.5 -21q32 30 63 65.5t63 74.5
q-17 51 -54 81t-91 30h-112q-60 0 -107 -3.5t-79.5 -18t-50 -42.5t-17.5 -76v-96t0.5 -68t1 -53t1.5 -51q2 -64 30 -100.5t74 -50.5q26 -8 66 -9.5t87 -1.5q91 0 94 82q10 -18 17.5 -39t15.5 -44zM619 421q-14 -18 -29.5 -36.5t-31.5 -35.5l15 1l36 -40q-11 -91 -16.5 -180
t-7.5 -177q-36 -7 -65.5 -10.5t-54.5 -3.5l-37 28q-27 -27 -91 -27q-46 0 -89 2t-72 10q-21 6 -41.5 19.5t-50.5 37.5q-26 21 -41.5 43t-23 54.5t-9.5 78.5t-2 115v136q0 61 22 95t62.5 51t99 21t132.5 4h81q37 0 70.5 -16t61 -42.5t49 -60t33.5 -67.5zM193 293
q0 -47 0.5 -76t1.5 -46h38q0 32 1.5 63t6.5 62zM220 709q70 0 135 6q3 22 5 46.5t2 50.5q-38 -2 -73.5 -3t-71.5 -6zM186 831q18 2 45.5 4t57 3.5t57.5 2.5t46 2l36 -41q0 -44 -3 -81.5t-7 -69.5q-47 -4 -93 -6t-94 -2l-41 36z" />
    <glyph glyph-name="gdotaccent" unicode="&#x121;" horiz-adv-x="656" 
d="M8 0zM426 5q51 0 93 9q2 78 6 153t13 148q-66 -8 -132.5 -13.5t-134.5 -8.5q-5 -23 -6 -48.5t-1 -51.5q38 2 77 5t77 11q-2 -69 -55 -69h-60t-65.5 0.5t-60.5 1t-44 1.5q-2 11 -3.5 60.5t-3.5 154.5q72 3 142.5 5t137.5 2q5 -9 9.5 -19t8.5 -21q32 30 63 65.5t63 74.5
q-17 51 -54 81t-91 30h-112q-60 0 -107 -3.5t-79.5 -18t-50 -42.5t-17.5 -76v-96t0.5 -68t1 -53t1.5 -51q2 -64 30 -100.5t74 -50.5q26 -8 66 -9.5t87 -1.5q91 0 94 82q10 -18 17.5 -39t15.5 -44zM619 421q-14 -18 -29.5 -36.5t-31.5 -35.5l15 1l36 -40q-11 -91 -16.5 -180
t-7.5 -177q-36 -7 -65.5 -10.5t-54.5 -3.5l-37 28q-27 -27 -91 -27q-46 0 -89 2t-72 10q-21 6 -41.5 19.5t-50.5 37.5q-26 21 -41.5 43t-23 54.5t-9.5 78.5t-2 115v136q0 61 22 95t62.5 51t99 21t132.5 4h81q37 0 70.5 -16t61 -42.5t49 -60t33.5 -67.5zM193 293
q0 -47 0.5 -76t1.5 -46h38q0 32 1.5 63t6.5 62zM220 709q70 0 135 6q3 22 5 46.5t2 50.5q-38 -2 -73.5 -3t-71.5 -6zM186 831q18 2 45.5 4t57 3.5t57.5 2.5t46 2l36 -41q0 -44 -3 -81.5t-7 -69.5q-47 -4 -93 -6t-94 -2l-41 36z" />
    <glyph glyph-name="Gcommaaccent" unicode="&#x122;" horiz-adv-x="656" 
d="M8 0zM426 5q51 0 93 9q2 78 6 153t13 148q-66 -8 -132.5 -13.5t-134.5 -8.5q-5 -23 -6 -48.5t-1 -51.5q38 2 77 5t77 11q-2 -69 -55 -69h-60t-65.5 0.5t-60.5 1t-44 1.5q-2 11 -3.5 60.5t-3.5 154.5q72 3 142.5 5t137.5 2q5 -9 9.5 -19t8.5 -21q32 30 63 65.5t63 74.5
q-17 51 -54 81t-91 30h-112q-60 0 -107 -3.5t-79.5 -18t-50 -42.5t-17.5 -76v-96t0.5 -68t1 -53t1.5 -51q2 -64 30 -100.5t74 -50.5q26 -8 66 -9.5t87 -1.5q91 0 94 82q10 -18 17.5 -39t15.5 -44zM619 421q-14 -18 -29.5 -36.5t-31.5 -35.5l15 1l36 -40q-11 -91 -16.5 -180
t-7.5 -177q-36 -7 -65.5 -10.5t-54.5 -3.5l-37 28q-27 -27 -91 -27q-46 0 -89 2t-72 10q-21 6 -41.5 19.5t-50.5 37.5q-26 21 -41.5 43t-23 54.5t-9.5 78.5t-2 115v136q0 61 22 95t62.5 51t99 21t132.5 4h81q37 0 70.5 -16t61 -42.5t49 -60t33.5 -67.5zM193 293
q0 -47 0.5 -76t1.5 -46h38q0 32 1.5 63t6.5 62zM188 -220q0 33 1.5 67t5.5 67q45 4 94 6t103 2l35 -40q0 -39 -3 -65.5t-7 -46.5q-8 -12 -17 -22t-20 -20t-24.5 -21t-31.5 -24q-23 11 -43 27t-38 35h-14zM294 -254q16 17 31 35.5t29 38.5q2 15 4.5 33t2.5 39q-35 0 -69.5 -2
t-69.5 -4q-2 -19 -2.5 -37.5t-0.5 -38.5q15 1 30.5 1.5t30.5 2.5q-6 -11 -13 -19.5t-13 -18.5q9 -12 19 -18.5t21 -11.5z" />
    <glyph glyph-name="gcommaaccent" unicode="&#x123;" horiz-adv-x="656" 
d="M8 0zM426 5q51 0 93 9q2 78 6 153t13 148q-66 -8 -132.5 -13.5t-134.5 -8.5q-5 -23 -6 -48.5t-1 -51.5q38 2 77 5t77 11q-2 -69 -55 -69h-60t-65.5 0.5t-60.5 1t-44 1.5q-2 11 -3.5 60.5t-3.5 154.5q72 3 142.5 5t137.5 2q5 -9 9.5 -19t8.5 -21q32 30 63 65.5t63 74.5
q-17 51 -54 81t-91 30h-112q-60 0 -107 -3.5t-79.5 -18t-50 -42.5t-17.5 -76v-96t0.5 -68t1 -53t1.5 -51q2 -64 30 -100.5t74 -50.5q26 -8 66 -9.5t87 -1.5q91 0 94 82q10 -18 17.5 -39t15.5 -44zM619 421q-14 -18 -29.5 -36.5t-31.5 -35.5l15 1l36 -40q-11 -91 -16.5 -180
t-7.5 -177q-36 -7 -65.5 -10.5t-54.5 -3.5l-37 28q-27 -27 -91 -27q-46 0 -89 2t-72 10q-21 6 -41.5 19.5t-50.5 37.5q-26 21 -41.5 43t-23 54.5t-9.5 78.5t-2 115v136q0 61 22 95t62.5 51t99 21t132.5 4h81q37 0 70.5 -16t61 -42.5t49 -60t33.5 -67.5zM193 293
q0 -47 0.5 -76t1.5 -46h38q0 32 1.5 63t6.5 62zM188 -220q0 33 1.5 67t5.5 67q45 4 94 6t103 2l35 -40q0 -39 -3 -65.5t-7 -46.5q-8 -12 -17 -22t-20 -20t-24.5 -21t-31.5 -24q-23 11 -43 27t-38 35h-14zM294 -254q16 17 31 35.5t29 38.5q2 15 4.5 33t2.5 39q-35 0 -69.5 -2
t-69.5 -4q-2 -19 -2.5 -37.5t-0.5 -38.5q15 1 30.5 1.5t30.5 2.5q-6 -11 -13 -19.5t-13 -18.5q9 -12 19 -18.5t21 -11.5z" />
    <glyph glyph-name="Hbar" unicode="&#x126;" horiz-adv-x="619" 
d="M587 534l-2 -51l29 -28q0 -23 -2 -49.5t-7 -60.5q-5 -1 -11.5 -1h-14.5q-5 -101 -13.5 -205t-17.5 -195q-44 -11 -90 -16.5t-94 -7.5l-40 35q1 20 1.5 44.5t1.5 50t1.5 50t0.5 44.5q-20 -1 -39.5 -2t-42.5 -3q-5 -51 -9 -111t-6 -108q-32 0 -66 1t-76 6l-40 36
q-8 91 -17 181t-21 187l-10 1l-40 36q0 33 0.5 67t4.5 74h24l-9 69q51 6 96.5 8.5t85.5 2.5h18.5t24 -0.5t24 -1t18.5 -0.5l36 -40l2 -32l93 2l4 71q39 0 81 -2.5t87 -10.5zM548 493q-6 -2 -13 -2h-16l2 59q-27 5 -54.5 6.5t-53.5 1.5l-4 -71l-182 -4l-6 75q-14 1 -28.5 1
h-28.5q-38 0 -75 -2t-73 -6l9 -73h-30q-2 -20 -2.5 -40t-0.5 -42q8 -1 20 -1h24q13 -106 23.5 -206t18.5 -199q23 -3 45 -3.5t45 -0.5q2 55 5.5 108.5t9.5 107.5q44 4 87.5 6.5t88.5 2.5v-65q0 -80 -3 -159q65 3 128 18q10 97 17.5 197.5t13.5 206.5q8 0 15 0.5t12 1.5
q3 20 4 40.5t2 41.5zM406 334q-41 0 -82 1t-81 4l-7 60l170 6v-71z" />
    <glyph glyph-name="hbar" unicode="&#x127;" horiz-adv-x="619" 
d="M0 0zM587 534l-2 -51l29 -28q0 -23 -2 -49.5t-7 -60.5q-5 -1 -11.5 -1h-14.5q-5 -101 -13.5 -205t-17.5 -195q-44 -11 -90 -16.5t-94 -7.5l-40 35q1 20 1.5 44.5t1.5 50t1.5 50t0.5 44.5q-20 -1 -39.5 -2t-42.5 -3q-5 -51 -9 -111t-6 -108q-32 0 -66 1t-76 6l-40 36
q-8 91 -17 181t-21 187l-10 1l-40 36q0 33 0.5 67t4.5 74h24l-9 69q51 6 96.5 8.5t85.5 2.5h18.5t24 -0.5t24 -1t18.5 -0.5l36 -40l2 -32l93 2l4 71q39 0 81 -2.5t87 -10.5zM548 493q-6 -2 -13 -2h-16l2 59q-27 5 -54.5 6.5t-53.5 1.5l-4 -71l-182 -4l-6 75q-14 1 -28.5 1
h-28.5q-38 0 -75 -2t-73 -6l9 -73h-30q-2 -20 -2.5 -40t-0.5 -42q8 -1 20 -1h24q13 -106 23.5 -206t18.5 -199q23 -3 45 -3.5t45 -0.5q2 55 5.5 108.5t9.5 107.5q44 4 87.5 6.5t88.5 2.5v-65q0 -80 -3 -159q65 3 128 18q10 97 17.5 197.5t13.5 206.5q8 0 15 0.5t12 1.5
q3 20 4 40.5t2 41.5zM406 334q-41 0 -82 1t-81 4l-7 60l170 6v-71z" />
    <glyph glyph-name="uni012A" unicode="&#x12a;" horiz-adv-x="260" 
d="M0 0zM36 -29q52 5 91 19q12 129 22 265.5t19 277.5q-71 17 -151 18q9 -144 14 -287t5 -293zM6 -30q0 150 -6 309t-14 303q58 -1 111 -7.5t103 -17.5l36 -40q-5 -70 -10 -146.5t-10.5 -152.5t-11.5 -149.5t-12 -137.5q-31 -10 -60 -17t-55 -9zM236 759q-62 -2 -137 -2.5
t-147 -0.5q-2 -20 -2 -40.5v-41.5q20 -1 42 -1.5t45 -0.5q88 0 193 6q3 20 4 40.5t2 40.5zM302 721q-1 -23 -2.5 -47.5t-6.5 -59.5q-53 -4 -113.5 -6t-104.5 -2q-12 0 -27.5 0.5t-32 0.5t-31 0.5t-24.5 0.5l-40 36q0 35 0.5 69.5t3.5 73.5h77.5t83.5 0.5t81 1t70 1.5z" />
    <glyph glyph-name="imacron" unicode="&#x12b;" horiz-adv-x="260" 
d="M0 0zM36 -29q52 5 91 19q12 129 22 265.5t19 277.5q-71 17 -151 18q9 -144 14 -287t5 -293zM6 -30q0 150 -6 309t-14 303q58 -1 111 -7.5t103 -17.5l36 -40q-5 -70 -10 -146.5t-10.5 -152.5t-11.5 -149.5t-12 -137.5q-31 -10 -60 -17t-55 -9zM236 759q-62 -2 -137 -2.5
t-147 -0.5q-2 -20 -2 -40.5v-41.5q20 -1 42 -1.5t45 -0.5q88 0 193 6q3 20 4 40.5t2 40.5zM302 721q-1 -23 -2.5 -47.5t-6.5 -59.5q-53 -4 -113.5 -6t-104.5 -2q-12 0 -27.5 0.5t-32 0.5t-31 0.5t-24.5 0.5l-40 36q0 35 0.5 69.5t3.5 73.5h77.5t83.5 0.5t81 1t70 1.5z" />
    <glyph glyph-name="Ibreve" unicode="&#x12c;" horiz-adv-x="260" 
d="M0 0zM36 -29q52 5 91 19q12 129 22 265.5t19 277.5q-71 17 -151 18q9 -144 14 -287t5 -293zM6 -30q0 150 -6 309t-14 303q58 -1 111 -7.5t103 -17.5l36 -40q-5 -70 -10 -146.5t-10.5 -152.5t-11.5 -149.5t-12 -137.5q-31 -10 -60 -17t-55 -9zM-70 782q4 -63 43.5 -102.5
t117.5 -39.5t116 35.5t49 117.5q-14 7 -35 13t-39 11q-8 -55 -26.5 -76t-58.5 -21t-63 26.5t-28 71.5q-17 -7 -36.5 -16t-39.5 -20zM-100 801q33 17 63 27.5t68 24.5l38 -34q2 -20 6 -36.5t10 -30.5q6 -2 12 -2q25 0 38 20.5t22 79.5q30 -8 66.5 -16t65.5 -23l36 -40
q-8 -53 -22 -89.5t-37.5 -60t-57 -34t-79.5 -10.5q-48 0 -85 13.5t-71 43.5q-38 32 -54.5 70t-18.5 97z" />
    <glyph glyph-name="ibreve" unicode="&#x12d;" horiz-adv-x="260" 
d="M0 0zM36 -29q52 5 91 19q12 129 22 265.5t19 277.5q-71 17 -151 18q9 -144 14 -287t5 -293zM6 -30q0 150 -6 309t-14 303q58 -1 111 -7.5t103 -17.5l36 -40q-5 -70 -10 -146.5t-10.5 -152.5t-11.5 -149.5t-12 -137.5q-31 -10 -60 -17t-55 -9zM-70 782q4 -63 43.5 -102.5
t117.5 -39.5t116 35.5t49 117.5q-14 7 -35 13t-39 11q-8 -55 -26.5 -76t-58.5 -21t-63 26.5t-28 71.5q-17 -7 -36.5 -16t-39.5 -20zM-100 801q33 17 63 27.5t68 24.5l38 -34q2 -20 6 -36.5t10 -30.5q6 -2 12 -2q25 0 38 20.5t22 79.5q30 -8 66.5 -16t65.5 -23l36 -40
q-8 -53 -22 -89.5t-37.5 -60t-57 -34t-79.5 -10.5q-48 0 -85 13.5t-71 43.5q-38 32 -54.5 70t-18.5 97z" />
    <glyph glyph-name="Iogonek" unicode="&#x12e;" horiz-adv-x="260" 
d="M64 -229q-29 0 -56.5 10t-48.5 26.5t-33.5 38.5t-12.5 46q0 45 25.5 73.5t67.5 45.5q-1 146 -6.5 297.5t-13.5 288.5q58 -1 111 -7.5t103 -17.5l36 -40q-5 -69 -10 -143.5t-10.5 -149t-11.5 -147t-12 -137.5l23 -23q-3 -45 -10.5 -79.5t-21.5 -60.5q-27 -14 -55.5 -17.5
t-63.5 -3.5zM127 0q12 133 22 270t19 278q-71 17 -151 18q9 -143 14 -285t5 -291q-41 -13 -67 -36.5t-26 -61.5q0 -21 21.5 -38t61.5 -17q32 0 56 2.5t43 11.5q20 38 21 80q-25 -7 -57 -7q-35 0 -35 27q0 18 21.5 31t51.5 18z" />
    <glyph glyph-name="iogonek" unicode="&#x12f;" horiz-adv-x="260" 
d="M0 0zM64 -229q-29 0 -56.5 10t-48.5 26.5t-33.5 38.5t-12.5 46q0 45 25.5 73.5t67.5 45.5q-1 146 -6.5 297.5t-13.5 288.5q58 -1 111 -7.5t103 -17.5l36 -40q-5 -69 -10 -143.5t-10.5 -149t-11.5 -147t-12 -137.5l23 -23q-3 -45 -10.5 -79.5t-21.5 -60.5
q-27 -14 -55.5 -17.5t-63.5 -3.5zM127 0q12 133 22 270t19 278q-71 17 -151 18q9 -143 14 -285t5 -291q-41 -13 -67 -36.5t-26 -61.5q0 -21 21.5 -38t61.5 -17q32 0 56 2.5t43 11.5q20 38 21 80q-25 -7 -57 -7q-35 0 -35 27q0 18 21.5 31t51.5 18z" />
    <glyph glyph-name="Idotaccent" unicode="&#x130;" horiz-adv-x="260" 
d="M0 0zM36 -6q52 5 91 19q12 129 22 265.5t19 277.5q-71 17 -151 18q9 -144 14 -287t5 -293zM6 -7q0 150 -6 309t-14 303q58 -1 111 -7.5t103 -17.5l36 -40q-5 -70 -10 -146.5t-10.5 -152.5t-11.5 -149.5t-12 -137.5q-31 -10 -60 -17t-55 -9zM24 709q70 0 135 6
q3 22 5 46.5t2 50.5q-38 -2 -73.5 -3t-71.5 -6zM-10 831q18 2 45.5 4t57 3.5t57.5 2.5t46 2l36 -41q0 -44 -3 -81.5t-7 -69.5q-47 -4 -93 -6t-94 -2l-41 36z" />
    <glyph glyph-name="dotlessi" unicode="&#x131;" horiz-adv-x="260" 
d="M0 0zM36 -14q52 5 91 19q12 129 22 265.5t19 277.5q-71 17 -151 18q9 -144 14 -287t5 -293zM6 -15q0 150 -6 309t-14 303q58 -1 111 -7.5t103 -17.5l36 -40q-5 -70 -10 -146.5t-10.5 -152.5t-11.5 -149.5t-12 -137.5q-31 -10 -60 -17t-55 -9z" />
    <glyph glyph-name="IJ" unicode="&#x132;" horiz-adv-x="702" 
d="M197 -52q-30 -10 -63 -18t-57 -10l-71 65q0 150 -6 309t-14 303q58 -1 111 -7.5t103 -17.5l36 -40l-26 -375q63 -5 118 -7t104 -3q-2 53 -6 109.5t-9 114t-10.5 113.5t-11.5 108q63 -1 123 -6t120 -14l36 -40q-10 -108 -16 -176t-9.5 -110t-5 -65.5t-2.5 -41.5
q-1 -8 -2.5 -24t-4 -34t-6 -35t-7.5 -26q-20 -44 -54.5 -70t-85.5 -29l-49 -3q-46 -3 -97 -5t-98 -2zM199 -23q61 0 123.5 3.5t119.5 6.5q42 2 70.5 23.5t45.5 59.5q3 7 6 22.5t5 32t3.5 31.5t2.5 23q3 39 7 84t8 93t8 96.5t7 94.5q-42 7 -85 10t-90 4q12 -112 20.5 -222.5
t12.5 -221.5q-66 0 -132.5 2.5t-135.5 8.5q0 -42 0.5 -79t3.5 -72zM36 -14q52 5 91 19q12 129 22 265.5t19 277.5q-71 17 -151 18q9 -144 14 -287t5 -293z" />
    </font>
</defs>
</svg>
